<svg xmlns="http://www.w3.org/2000/svg" xmlns:xlink="http://www.w3.org/1999/xlink" width="1080" zoomAndPan="magnify" viewBox="0 0 810 809.999993" height="1080" preserveAspectRatio="xMidYMid meet" version="1.0"><defs><clipPath id="3984921c1d"><path d="M 203 81 L 810 81 L 810 738.75 L 203 738.75 Z M 203 81 " clip-rule="nonzero"/></clipPath></defs><g clip-path="url(#3984921c1d)"><path fill="#0160a2" d="M 391.636719 592.582031 C 413.457031 577.789062 427.828125 552.789062 427.828125 524.5 C 427.828125 479.171875 390.949219 442.292969 345.621094 442.292969 C 300.292969 442.292969 263.417969 479.171875 263.417969 524.5 C 263.417969 552.789062 277.785156 577.789062 299.605469 592.582031 C 246.964844 610.695312 207.554688 658.914062 203.195312 717.007812 C 202.777344 722.582031 204.710938 728.121094 208.496094 732.199219 C 212.28125 736.28125 217.660156 738.621094 223.25 738.621094 L 467.992188 738.621094 C 473.585938 738.621094 478.964844 736.28125 482.75 732.199219 C 486.535156 728.121094 488.464844 722.582031 488.046875 717.007812 C 483.6875 658.914062 444.277344 610.695312 391.636719 592.582031 Z M 285.230469 524.5 C 285.230469 491.199219 312.320312 464.109375 345.621094 464.109375 C 378.917969 464.109375 406.011719 491.199219 406.011719 524.5 C 406.011719 557.785156 378.9375 584.867188 345.65625 584.886719 C 345.644531 584.886719 345.632812 584.886719 345.621094 584.886719 C 345.609375 584.886719 345.597656 584.886719 345.585938 584.886719 C 312.300781 584.867188 285.230469 557.785156 285.230469 524.5 Z M 225.101562 716.804688 C 230.695312 654.925781 283.261719 606.71875 345.59375 606.703125 C 345.605469 606.703125 345.613281 606.703125 345.621094 606.703125 C 345.632812 606.703125 345.640625 606.703125 345.648438 606.703125 C 407.980469 606.71875 460.546875 654.925781 466.140625 716.804688 Z M 898.421875 717.007812 C 894.0625 658.914062 854.652344 610.695312 802.015625 592.582031 C 823.835938 577.789062 838.203125 552.789062 838.203125 524.5 C 838.203125 479.171875 801.328125 442.292969 756 442.292969 C 710.671875 442.292969 673.792969 479.171875 673.792969 524.5 C 673.792969 552.789062 688.160156 577.789062 709.980469 592.582031 C 657.34375 610.695312 617.929688 658.914062 613.574219 717.007812 C 613.15625 722.585938 615.085938 728.121094 618.871094 732.203125 C 622.65625 736.28125 628.035156 738.621094 633.625 738.621094 L 878.367188 738.621094 C 883.960938 738.621094 889.339844 736.28125 893.125 732.199219 C 896.910156 728.117188 898.839844 722.582031 898.421875 717.007812 Z M 695.609375 524.5 C 695.609375 491.199219 722.699219 464.109375 755.996094 464.109375 C 789.296875 464.109375 816.386719 491.199219 816.386719 524.5 C 816.386719 557.785156 789.316406 584.867188 756.03125 584.886719 C 756.019531 584.886719 756.007812 584.886719 755.996094 584.886719 C 755.984375 584.886719 755.972656 584.886719 755.960938 584.886719 C 722.679688 584.867188 695.609375 557.785156 695.609375 524.5 Z M 635.476562 716.804688 C 641.070312 654.925781 693.640625 606.71875 755.96875 606.703125 C 755.980469 606.703125 755.988281 606.703125 755.996094 606.703125 C 756.007812 606.703125 756.015625 606.703125 756.023438 606.703125 C 818.355469 606.71875 870.921875 654.925781 876.515625 716.804688 Z M 627.226562 396.121094 L 681.800781 438.105469 C 684.488281 440.171875 687.703125 441.222656 690.9375 441.222656 C 693.511719 441.222656 696.101562 440.554688 698.441406 439.207031 C 703.722656 436.160156 706.613281 430.28125 705.808594 424.242188 L 696.730469 355.941406 C 727.277344 325.898438 744.6875 284.550781 744.6875 241.589844 C 744.6875 153.179688 672.757812 81.253906 584.347656 81.253906 C 573.039062 81.253906 561.765625 82.453125 550.792969 84.789062 C 539.976562 82.480469 528.765625 81.253906 517.269531 81.253906 C 428.859375 81.253906 356.929688 153.179688 356.929688 241.589844 C 356.929688 284.550781 374.339844 325.898438 404.886719 355.941406 L 395.808594 424.238281 C 395.003906 430.28125 397.898438 436.15625 403.179688 439.207031 C 405.519531 440.554688 408.105469 441.222656 410.679688 441.222656 C 413.914062 441.222656 417.128906 440.171875 419.820312 438.105469 L 474.390625 396.121094 C 488.308594 399.976562 502.707031 401.929688 517.269531 401.929688 C 528.765625 401.929688 539.976562 400.703125 550.792969 398.394531 C 561.765625 400.730469 573.039062 401.929688 584.347656 401.929688 C 598.910156 401.929688 613.308594 399.976562 627.226562 396.121094 Z M 475.445312 373.683594 C 472.042969 372.605469 468.332031 373.261719 465.503906 375.4375 L 419.609375 410.746094 L 427.242188 353.300781 C 427.714844 349.765625 426.425781 346.226562 423.792969 343.816406 C 395.164062 317.625 378.746094 280.367188 378.746094 241.589844 C 378.746094 165.210938 440.886719 103.066406 517.269531 103.066406 C 593.652344 103.066406 655.792969 165.207031 655.792969 241.589844 C 655.792969 317.972656 593.652344 380.117188 517.269531 380.117188 C 503.003906 380.117188 488.933594 377.953125 475.445312 373.683594 Z M 677.609375 241.589844 C 677.609375 183.136719 646.15625 131.894531 599.296875 103.878906 C 668.675781 111.355469 722.871094 170.261719 722.871094 241.589844 C 722.871094 280.367188 706.453125 317.628906 677.824219 343.816406 C 675.191406 346.226562 673.902344 349.765625 674.375 353.300781 L 682.007812 410.746094 L 636.117188 375.4375 C 633.289062 373.261719 629.578125 372.609375 626.175781 373.683594 C 617.429688 376.449219 608.4375 378.316406 599.308594 379.300781 C 646.164062 351.28125 677.609375 300.042969 677.609375 241.589844 Z M 616.140625 295.855469 C 616.140625 301.878906 611.257812 306.761719 605.230469 306.761719 L 429.308594 306.761719 C 423.285156 306.761719 418.398438 301.878906 418.398438 295.855469 C 418.398438 289.832031 423.285156 284.949219 429.308594 284.949219 L 605.230469 284.949219 C 611.257812 284.949219 616.140625 289.832031 616.140625 295.855469 Z M 418.398438 241.589844 C 418.398438 235.566406 423.285156 230.683594 429.308594 230.683594 L 605.230469 230.683594 C 611.257812 230.683594 616.140625 235.566406 616.140625 241.589844 C 616.140625 247.613281 611.257812 252.5 605.230469 252.5 L 429.308594 252.5 C 423.285156 252.5 418.398438 247.613281 418.398438 241.589844 Z M 418.398438 187.328125 C 418.398438 181.304688 423.285156 176.421875 429.308594 176.421875 L 605.230469 176.421875 C 611.257812 176.421875 616.140625 181.304688 616.140625 187.328125 C 616.140625 193.351562 611.257812 198.234375 605.230469 198.234375 L 429.308594 198.234375 C 423.285156 198.234375 418.398438 193.351562 418.398438 187.328125 Z M 418.398438 187.328125 " fill-opacity="1" fill-rule="nonzero"/></g></svg>