<svg xmlns="http://www.w3.org/2000/svg" xmlns:xlink="http://www.w3.org/1999/xlink" width="1000" zoomAndPan="magnify" viewBox="0 0 750 599.999999" height="800" preserveAspectRatio="xMidYMid meet" version="1.0"><defs><clipPath id="b34d80f9b7"><path d="M 51.84375 116 L 130 116 L 130 153 L 51.84375 153 Z M 51.84375 116 " clip-rule="nonzero"/></clipPath><clipPath id="3ee57a0d8b"><path d="M 193 157 L 195.246094 157 L 195.246094 251.457031 L 193 251.457031 Z M 193 157 " clip-rule="nonzero"/></clipPath><clipPath id="7a60b123e3"><path d="M 95 130 L 195.246094 130 L 195.246094 251.457031 L 95 251.457031 Z M 95 130 " clip-rule="nonzero"/></clipPath><clipPath id="d643f22d43"><path d="M 179 109 L 195.246094 109 L 195.246094 186 L 179 186 Z M 179 109 " clip-rule="nonzero"/></clipPath><clipPath id="098f109788"><path d="M 51.84375 116 L 130 116 L 130 153 L 51.84375 153 Z M 51.84375 116 " clip-rule="nonzero"/></clipPath><clipPath id="b1f32f63e3"><path d="M 191 165 L 195.246094 165 L 195.246094 216 L 191 216 Z M 191 165 " clip-rule="nonzero"/></clipPath><clipPath id="d49aa216ee"><path d="M 193 157 L 213.835938 157 L 213.835938 211.621094 L 193 211.621094 Z M 193 157 " clip-rule="nonzero"/></clipPath><clipPath id="43a621032b"><path d="M 95 130 L 213.835938 130 L 213.835938 211.621094 L 95 211.621094 Z M 95 130 " clip-rule="nonzero"/></clipPath><clipPath id="c2497fe775"><path d="M 66 181 L 150 181 L 150 211.621094 L 66 211.621094 Z M 66 181 " clip-rule="nonzero"/></clipPath><clipPath id="eca7cae83a"><path d="M 179 109 L 213.835938 109 L 213.835938 186 L 179 186 Z M 179 109 " clip-rule="nonzero"/></clipPath><clipPath id="8cb6f6a45c"><path d="M 51.84375 116 L 130 116 L 130 153 L 51.84375 153 Z M 51.84375 116 " clip-rule="nonzero"/></clipPath><clipPath id="9e013eae5c"><path d="M 191 165 L 206 165 L 206 211.621094 L 191 211.621094 Z M 191 165 " clip-rule="nonzero"/></clipPath><clipPath id="d20eaef182"><path d="M 193 157 L 208.527344 157 L 208.527344 315.191406 L 193 315.191406 Z M 193 157 " clip-rule="nonzero"/></clipPath><clipPath id="38d3da39be"><path d="M 95 130 L 208.527344 130 L 208.527344 293 L 95 293 Z M 95 130 " clip-rule="nonzero"/></clipPath><clipPath id="5e8382139e"><path d="M 179 109 L 208.527344 109 L 208.527344 186 L 179 186 Z M 179 109 " clip-rule="nonzero"/></clipPath><clipPath id="5fa5c87a13"><path d="M 51.84375 116 L 130 116 L 130 153 L 51.84375 153 Z M 51.84375 116 " clip-rule="nonzero"/></clipPath><clipPath id="7b348bd4f8"><path d="M 193 244.117188 L 242.707031 244.117188 L 242.707031 321.128906 L 193 321.128906 Z M 193 244.117188 " clip-rule="nonzero"/></clipPath><clipPath id="1d56fd9814"><path d="M 95 244.117188 L 240 244.117188 L 240 293 L 95 293 Z M 95 244.117188 " clip-rule="nonzero"/></clipPath><clipPath id="653d79529e"><path d="M 193 226.589844 L 221.464844 226.589844 L 221.464844 319.535156 L 193 319.535156 Z M 193 226.589844 " clip-rule="nonzero"/></clipPath><clipPath id="318d829a5a"><path d="M 95 226.589844 L 221.464844 226.589844 L 221.464844 293 L 95 293 Z M 95 226.589844 " clip-rule="nonzero"/></clipPath><clipPath id="935426a9ab"><path d="M 180 221 L 241 221 L 241 316 L 180 316 Z M 180 221 " clip-rule="nonzero"/></clipPath><clipPath id="6fd72443ad"><path d="M 78.445312 239.347656 L 231.464844 221.765625 L 240.257812 298.273438 L 87.238281 315.859375 Z M 78.445312 239.347656 " clip-rule="nonzero"/></clipPath><clipPath id="0db559f8e1"><path d="M 18.433594 39.785156 L 633.148438 -30.855469 L 690.753906 470.414062 L 76.035156 541.054688 Z M 18.433594 39.785156 " clip-rule="nonzero"/></clipPath><clipPath id="6bbba1692f"><path d="M 78 221 L 234 221 L 234 271 L 78 271 Z M 78 221 " clip-rule="nonzero"/></clipPath><clipPath id="35ded05e6e"><path d="M 78.445312 239.347656 L 231.464844 221.765625 L 240.257812 298.273438 L 87.238281 315.859375 Z M 78.445312 239.347656 " clip-rule="nonzero"/></clipPath><clipPath id="c738e71b8f"><path d="M 18.433594 39.785156 L 633.148438 -30.855469 L 690.753906 470.414062 L 76.035156 541.054688 Z M 18.433594 39.785156 " clip-rule="nonzero"/></clipPath><clipPath id="213be5fd55"><path d="M 188 195 L 262 195 L 262 230 L 188 230 Z M 188 195 " clip-rule="nonzero"/></clipPath><clipPath id="ec483316a1"><path d="M 188.949219 224.070312 L 262.058594 195.398438 L 269.917969 215.433594 L 196.808594 244.109375 Z M 188.949219 224.070312 " clip-rule="nonzero"/></clipPath><clipPath id="f074474378"><path d="M 233.332031 229.785156 L 261.996094 195.421875 L 188.949219 224.070312 Z M 233.332031 229.785156 " clip-rule="nonzero"/></clipPath><clipPath id="bb4775ab2e"><path d="M 233 236 L 311 236 L 311 266 L 233 266 Z M 233 236 " clip-rule="nonzero"/></clipPath><clipPath id="f1a388adfc"><path d="M 233.671875 236.910156 L 310.636719 252.515625 L 306.359375 273.609375 L 229.394531 258.003906 Z M 233.671875 236.910156 " clip-rule="nonzero"/></clipPath><clipPath id="0fc67262ea"><path d="M 267.84375 265.800781 L 310.566406 252.503906 L 233.671875 236.910156 Z M 267.84375 265.800781 " clip-rule="nonzero"/></clipPath></defs><path fill="#0061a2" d="M 193.964844 223.375 C 201.039062 219.835938 208.113281 216.300781 215.1875 212.765625 C 216.421875 208.636719 225.25 180.84375 252.3125 170.328125 C 256.386719 168.746094 275.859375 161.730469 294.753906 170.328125 C 331.382812 186.992188 322.726562 232.171875 354.359375 252.246094 C 384.199219 271.175781 428.210938 252.054688 469.800781 233.984375 C 535.117188 205.601562 546.28125 175.542969 607.714844 162.375 C 632.4375 157.074219 666.089844 154.332031 668.71875 162.375 C 671.574219 171.117188 636.851562 190.007812 618.324219 199.503906 C 650.953125 201.125 654.890625 207.34375 655.457031 210.113281 C 657.605469 220.703125 621.667969 236.226562 607.714844 241.9375 C 620.804688 240.183594 631.902344 243.617188 634.238281 249.890625 C 637.476562 258.597656 622.917969 270.121094 618.324219 273.769531 C 606.382812 283.222656 593.65625 286.039062 586.5 287.03125 C 601.320312 293.261719 602.453125 298.246094 602.410156 300.285156 C 602.203125 311.121094 567.597656 317.910156 562.632812 318.851562 C 576.898438 323.484375 583.972656 327.90625 583.847656 332.113281 C 583.648438 338.84375 565.085938 345.03125 528.148438 350.675781 C 537.050781 354.292969 541.472656 357.824219 541.410156 361.292969 C 541.273438 369.691406 514.742188 377.648438 461.84375 385.160156 C 474.847656 389.886719 491.933594 394.460938 512.238281 395.769531 C 557.527344 398.675781 592.835938 383.636719 610.363281 374.546875 C 620.46875 377.574219 626.949219 386.644531 626.277344 395.769531 C 625.546875 405.824219 616.488281 411.214844 615.671875 411.683594 C 625.578125 412.460938 633.496094 420.40625 634.238281 430.246094 C 634.988281 440.214844 628.171875 449.347656 618.324219 451.464844 C 625.640625 459.964844 626.609375 471.949219 620.976562 480.640625 C 613.933594 491.515625 600.4375 491.273438 599.757812 491.246094 C 602.496094 503.585938 596.65625 515.742188 586.5 520.425781 C 574.558594 525.925781 562.835938 518.242188 562.214844 517.828125 C 563.605469 526.839844 559.257812 535.484375 552.015625 538.988281 C 542.953125 543.375 530.566406 539.128906 525.492188 528.378906 C 519.335938 508.78125 507.507812 482.890625 483.0625 470.03125 C 447.9375 451.554688 420.480469 477.695312 366.359375 467.378906 C 354.449219 465.109375 301.101562 454.941406 276.183594 414.332031 C 255.464844 380.5625 248.625 316.285156 255.300781 283.433594 C 256.4375 277.859375 260.503906 260.6875 251.570312 250.417969 C 248.480469 246.871094 245.351562 245.886719 236.40625 239.285156 C 229.238281 234 223.84375 229.179688 220.488281 226.023438 C 211.648438 225.140625 202.808594 224.253906 193.964844 223.375 " fill-opacity="1" fill-rule="nonzero"/><path fill="#0061a2" d="M 332.515625 259.769531 C 338.214844 244.058594 346.558594 218.632812 353.097656 186.242188 C 361.179688 146.253906 358.320312 136.160156 369.015625 119.9375 C 373.808594 112.664062 382.425781 102.042969 445.929688 74.851562 C 497.078125 52.945312 529.53125 39.289062 536.109375 48.328125 C 538.527344 51.648438 538.421875 59.394531 522.847656 80.152344 C 534.105469 73.914062 541.171875 72.148438 544.0625 74.851562 C 548.707031 79.195312 542.511719 95.113281 525.492188 122.589844 C 537.570312 118.015625 544.644531 117.128906 546.714844 119.9375 C 549.933594 124.292969 541.09375 137.554688 520.191406 159.71875 C 533.007812 160.632812 540.082031 163.285156 541.410156 167.675781 C 543.652344 175.089844 529.511719 187.472656 498.96875 204.804688 C 510.464844 202.035156 513.949219 203.136719 514.886719 204.804688 C 519.164062 212.417969 478.691406 246.898438 435.324219 268.460938 C 416.265625 277.933594 399.371094 283.5625 387.378906 286.949219 C 369.089844 277.890625 350.800781 268.828125 332.515625 259.769531 " fill-opacity="1" fill-rule="nonzero"/><path fill="#0061a2" d="M 236.601562 292.144531 C 226.433594 243.339844 197.835938 198.054688 158.136719 167.898438 C 140.785156 154.71875 120.25 143.351562 95.382812 133.160156 L 96.386719 130.707031 C 121.472656 140.984375 142.199219 152.460938 159.742188 165.785156 C 199.941406 196.320312 228.902344 242.179688 239.199219 291.605469 L 236.601562 292.144531 " fill-opacity="1" fill-rule="nonzero"/><path fill="#0061a2" d="M 108.738281 200.703125 L 107.492188 198.359375 C 120.949219 191.199219 135.414062 186.992188 150.460938 185.871094 C 162.097656 184.996094 173.792969 186.027344 185.179688 188.921875 L 184.53125 191.496094 C 173.414062 188.667969 162.019531 187.667969 150.660156 188.511719 C 135.972656 189.609375 121.867188 193.707031 108.738281 200.703125 " fill-opacity="1" fill-rule="nonzero"/><path fill="#0061a2" d="M 103.1875 185.460938 C 76.167969 195.785156 67.574219 221.515625 66.519531 224.839844 C 75.882812 225.613281 104.277344 226.722656 129.433594 207.824219 C 138.738281 200.832031 145.09375 192.988281 149.316406 186.574219 C 145.136719 184.785156 125.527344 176.925781 103.1875 185.460938 " fill-opacity="1" fill-rule="nonzero"/><path fill="#0061a2" d="M 175.3125 103.480469 C 177.753906 83.207031 169.960938 67.925781 167.054688 62.804688 C 165.519531 63.683594 139.59375 79.214844 138.96875 108.472656 C 138.539062 128.484375 150.238281 142.09375 153.183594 145.332031 C 157.132812 141.847656 172.414062 127.53125 175.3125 103.480469 " fill-opacity="1" fill-rule="nonzero"/><path fill="#0061a2" d="M 213.746094 142.621094 C 214.308594 125.957031 207.210938 113.75 204.152344 109.085938 C 202.027344 110.308594 182.222656 122.160156 179.496094 146.378906 C 177.035156 168.25 190.402344 183.230469 192.433594 185.425781 C 195.421875 182.910156 212.90625 167.6875 213.746094 142.621094 " fill-opacity="1" fill-rule="nonzero"/><path fill="#0061a2" d="M 160.128906 169.269531 C 151.222656 151.851562 147.851562 131.589844 150.652344 112.230469 L 153.277344 112.609375 C 150.5625 131.4375 153.828125 151.128906 162.488281 168.058594 L 160.128906 169.269531 " fill-opacity="1" fill-rule="nonzero"/><g clip-path="url(#b34d80f9b7)"><path fill="#0061a2" d="M 85.003906 149.988281 C 65.523438 143.898438 55.0625 130.265625 51.894531 125.769531 C 54.386719 123.992188 72.058594 111.796875 94.886719 117.542969 C 119.128906 123.644531 128.785156 144.847656 129.878906 147.359375 C 125.253906 149.402344 106.949219 156.835938 85.003906 149.988281 " fill-opacity="1" fill-rule="nonzero"/></g><path fill="#0061a2" d="M 203.222656 215.433594 C 197.730469 207.6875 193.917969 198.6875 192.210938 189.398438 C 190.742188 181.394531 190.785156 173.265625 192.335938 165.238281 L 194.945312 165.746094 C 193.453125 173.449219 193.414062 181.242188 194.820312 188.921875 C 196.457031 197.832031 200.109375 206.460938 205.386719 213.894531 L 203.222656 215.433594 " fill-opacity="1" fill-rule="nonzero"/><g clip-path="url(#3ee57a0d8b)"><path fill="#34e4cb" d="M 193.964844 223.375 C 201.039062 219.835938 208.113281 216.300781 215.1875 212.765625 C 216.421875 208.636719 225.25 180.84375 252.3125 170.328125 C 256.386719 168.746094 275.859375 161.730469 294.753906 170.328125 C 331.382812 186.992188 322.726562 232.171875 354.359375 252.246094 C 384.199219 271.175781 428.210938 252.054688 469.800781 233.984375 C 535.117188 205.601562 546.28125 175.542969 607.714844 162.375 C 632.4375 157.074219 666.089844 154.332031 668.71875 162.375 C 671.574219 171.117188 636.851562 190.007812 618.324219 199.503906 C 650.953125 201.125 654.890625 207.34375 655.457031 210.113281 C 657.605469 220.703125 621.667969 236.226562 607.714844 241.9375 C 620.804688 240.183594 631.902344 243.617188 634.238281 249.890625 C 637.476562 258.597656 622.917969 270.121094 618.324219 273.769531 C 606.382812 283.222656 593.65625 286.039062 586.5 287.03125 C 601.320312 293.261719 602.453125 298.246094 602.410156 300.285156 C 602.203125 311.121094 567.597656 317.910156 562.632812 318.851562 C 576.898438 323.484375 583.972656 327.90625 583.847656 332.113281 C 583.648438 338.84375 565.085938 345.03125 528.148438 350.675781 C 537.050781 354.292969 541.472656 357.824219 541.410156 361.292969 C 541.273438 369.691406 514.742188 377.648438 461.84375 385.160156 C 474.847656 389.886719 491.933594 394.460938 512.238281 395.769531 C 557.527344 398.675781 592.835938 383.636719 610.363281 374.546875 C 620.46875 377.574219 626.949219 386.644531 626.277344 395.769531 C 625.546875 405.824219 616.488281 411.214844 615.671875 411.683594 C 625.578125 412.460938 633.496094 420.40625 634.238281 430.246094 C 634.988281 440.214844 628.171875 449.347656 618.324219 451.464844 C 625.640625 459.964844 626.609375 471.949219 620.976562 480.640625 C 613.933594 491.515625 600.4375 491.273438 599.757812 491.246094 C 602.496094 503.585938 596.65625 515.742188 586.5 520.425781 C 574.558594 525.925781 562.835938 518.242188 562.214844 517.828125 C 563.605469 526.839844 559.257812 535.484375 552.015625 538.988281 C 542.953125 543.375 530.566406 539.128906 525.492188 528.378906 C 519.335938 508.78125 507.507812 482.890625 483.0625 470.03125 C 447.9375 451.554688 420.480469 477.695312 366.359375 467.378906 C 354.449219 465.109375 301.101562 454.941406 276.183594 414.332031 C 255.464844 380.5625 248.625 316.285156 255.300781 283.433594 C 256.4375 277.859375 260.503906 260.6875 251.570312 250.417969 C 248.480469 246.871094 245.351562 245.886719 236.40625 239.285156 C 229.238281 234 223.84375 229.179688 220.488281 226.023438 C 211.648438 225.140625 202.808594 224.253906 193.964844 223.375 " fill-opacity="1" fill-rule="nonzero"/></g><g clip-path="url(#7a60b123e3)"><path fill="#34e4cb" d="M 236.601562 292.144531 C 226.433594 243.339844 197.835938 198.054688 158.136719 167.898438 C 140.785156 154.71875 120.25 143.351562 95.382812 133.160156 L 96.386719 130.707031 C 121.472656 140.984375 142.199219 152.460938 159.742188 165.785156 C 199.941406 196.320312 228.902344 242.179688 239.199219 291.605469 L 236.601562 292.144531 " fill-opacity="1" fill-rule="nonzero"/></g><path fill="#34e4cb" d="M 108.738281 200.703125 L 107.492188 198.359375 C 120.949219 191.199219 135.414062 186.992188 150.460938 185.871094 C 162.097656 184.996094 173.792969 186.027344 185.179688 188.921875 L 184.53125 191.496094 C 173.414062 188.667969 162.019531 187.667969 150.660156 188.511719 C 135.972656 189.609375 121.867188 193.707031 108.738281 200.703125 " fill-opacity="1" fill-rule="nonzero"/><path fill="#34e4cb" d="M 103.1875 185.460938 C 76.167969 195.785156 67.574219 221.515625 66.519531 224.839844 C 75.882812 225.613281 104.277344 226.722656 129.433594 207.824219 C 138.738281 200.832031 145.09375 192.988281 149.316406 186.574219 C 145.136719 184.785156 125.527344 176.925781 103.1875 185.460938 " fill-opacity="1" fill-rule="nonzero"/><path fill="#34e4cb" d="M 175.3125 103.480469 C 177.753906 83.207031 169.960938 67.925781 167.054688 62.804688 C 165.519531 63.683594 139.59375 79.214844 138.96875 108.472656 C 138.539062 128.484375 150.238281 142.09375 153.183594 145.332031 C 157.132812 141.847656 172.414062 127.53125 175.3125 103.480469 " fill-opacity="1" fill-rule="nonzero"/><g clip-path="url(#d643f22d43)"><path fill="#34e4cb" d="M 213.746094 142.621094 C 214.308594 125.957031 207.210938 113.75 204.152344 109.085938 C 202.027344 110.308594 182.222656 122.160156 179.496094 146.378906 C 177.035156 168.25 190.402344 183.230469 192.433594 185.425781 C 195.421875 182.910156 212.90625 167.6875 213.746094 142.621094 " fill-opacity="1" fill-rule="nonzero"/></g><path fill="#34e4cb" d="M 160.128906 169.269531 C 151.222656 151.851562 147.851562 131.589844 150.652344 112.230469 L 153.277344 112.609375 C 150.5625 131.4375 153.828125 151.128906 162.488281 168.058594 L 160.128906 169.269531 " fill-opacity="1" fill-rule="nonzero"/><g clip-path="url(#098f109788)"><path fill="#34e4cb" d="M 85.003906 149.988281 C 65.523438 143.898438 55.0625 130.265625 51.894531 125.769531 C 54.386719 123.992188 72.058594 111.796875 94.886719 117.542969 C 119.128906 123.644531 128.785156 144.847656 129.878906 147.359375 C 125.253906 149.402344 106.949219 156.835938 85.003906 149.988281 " fill-opacity="1" fill-rule="nonzero"/></g><g clip-path="url(#b1f32f63e3)"><path fill="#34e4cb" d="M 203.222656 215.433594 C 197.730469 207.6875 193.917969 198.6875 192.210938 189.398438 C 190.742188 181.394531 190.785156 173.265625 192.335938 165.238281 L 194.945312 165.746094 C 193.453125 173.449219 193.414062 181.242188 194.820312 188.921875 C 196.457031 197.832031 200.109375 206.460938 205.386719 213.894531 L 203.222656 215.433594 " fill-opacity="1" fill-rule="nonzero"/></g><g clip-path="url(#d49aa216ee)"><path fill="#34e4cb" d="M 193.964844 223.375 C 201.039062 219.835938 208.113281 216.300781 215.1875 212.765625 C 216.421875 208.636719 225.25 180.84375 252.3125 170.328125 C 256.386719 168.746094 275.859375 161.730469 294.753906 170.328125 C 331.382812 186.992188 322.726562 232.171875 354.359375 252.246094 C 384.199219 271.175781 428.210938 252.054688 469.800781 233.984375 C 535.117188 205.601562 546.28125 175.542969 607.714844 162.375 C 632.4375 157.074219 666.089844 154.332031 668.71875 162.375 C 671.574219 171.117188 636.851562 190.007812 618.324219 199.503906 C 650.953125 201.125 654.890625 207.34375 655.457031 210.113281 C 657.605469 220.703125 621.667969 236.226562 607.714844 241.9375 C 620.804688 240.183594 631.902344 243.617188 634.238281 249.890625 C 637.476562 258.597656 622.917969 270.121094 618.324219 273.769531 C 606.382812 283.222656 593.65625 286.039062 586.5 287.03125 C 601.320312 293.261719 602.453125 298.246094 602.410156 300.285156 C 602.203125 311.121094 567.597656 317.910156 562.632812 318.851562 C 576.898438 323.484375 583.972656 327.90625 583.847656 332.113281 C 583.648438 338.84375 565.085938 345.03125 528.148438 350.675781 C 537.050781 354.292969 541.472656 357.824219 541.410156 361.292969 C 541.273438 369.691406 514.742188 377.648438 461.84375 385.160156 C 474.847656 389.886719 491.933594 394.460938 512.238281 395.769531 C 557.527344 398.675781 592.835938 383.636719 610.363281 374.546875 C 620.46875 377.574219 626.949219 386.644531 626.277344 395.769531 C 625.546875 405.824219 616.488281 411.214844 615.671875 411.683594 C 625.578125 412.460938 633.496094 420.40625 634.238281 430.246094 C 634.988281 440.214844 628.171875 449.347656 618.324219 451.464844 C 625.640625 459.964844 626.609375 471.949219 620.976562 480.640625 C 613.933594 491.515625 600.4375 491.273438 599.757812 491.246094 C 602.496094 503.585938 596.65625 515.742188 586.5 520.425781 C 574.558594 525.925781 562.835938 518.242188 562.214844 517.828125 C 563.605469 526.839844 559.257812 535.484375 552.015625 538.988281 C 542.953125 543.375 530.566406 539.128906 525.492188 528.378906 C 519.335938 508.78125 507.507812 482.890625 483.0625 470.03125 C 447.9375 451.554688 420.480469 477.695312 366.359375 467.378906 C 354.449219 465.109375 301.101562 454.941406 276.183594 414.332031 C 255.464844 380.5625 248.625 316.285156 255.300781 283.433594 C 256.4375 277.859375 260.503906 260.6875 251.570312 250.417969 C 248.480469 246.871094 245.351562 245.886719 236.40625 239.285156 C 229.238281 234 223.84375 229.179688 220.488281 226.023438 C 211.648438 225.140625 202.808594 224.253906 193.964844 223.375 " fill-opacity="1" fill-rule="nonzero"/></g><g clip-path="url(#43a621032b)"><path fill="#34e4cb" d="M 236.601562 292.144531 C 226.433594 243.339844 197.835938 198.054688 158.136719 167.898438 C 140.785156 154.71875 120.25 143.351562 95.382812 133.160156 L 96.386719 130.707031 C 121.472656 140.984375 142.199219 152.460938 159.742188 165.785156 C 199.941406 196.320312 228.902344 242.179688 239.199219 291.605469 L 236.601562 292.144531 " fill-opacity="1" fill-rule="nonzero"/></g><path fill="#34e4cb" d="M 108.738281 200.703125 L 107.492188 198.359375 C 120.949219 191.199219 135.414062 186.992188 150.460938 185.871094 C 162.097656 184.996094 173.792969 186.027344 185.179688 188.921875 L 184.53125 191.496094 C 173.414062 188.667969 162.019531 187.667969 150.660156 188.511719 C 135.972656 189.609375 121.867188 193.707031 108.738281 200.703125 " fill-opacity="1" fill-rule="nonzero"/><g clip-path="url(#c2497fe775)"><path fill="#34e4cb" d="M 103.1875 185.460938 C 76.167969 195.785156 67.574219 221.515625 66.519531 224.839844 C 75.882812 225.613281 104.277344 226.722656 129.433594 207.824219 C 138.738281 200.832031 145.09375 192.988281 149.316406 186.574219 C 145.136719 184.785156 125.527344 176.925781 103.1875 185.460938 " fill-opacity="1" fill-rule="nonzero"/></g><path fill="#34e4cb" d="M 175.3125 103.480469 C 177.753906 83.207031 169.960938 67.925781 167.054688 62.804688 C 165.519531 63.683594 139.59375 79.214844 138.96875 108.472656 C 138.539062 128.484375 150.238281 142.09375 153.183594 145.332031 C 157.132812 141.847656 172.414062 127.53125 175.3125 103.480469 " fill-opacity="1" fill-rule="nonzero"/><g clip-path="url(#eca7cae83a)"><path fill="#34e4cb" d="M 213.746094 142.621094 C 214.308594 125.957031 207.210938 113.75 204.152344 109.085938 C 202.027344 110.308594 182.222656 122.160156 179.496094 146.378906 C 177.035156 168.25 190.402344 183.230469 192.433594 185.425781 C 195.421875 182.910156 212.90625 167.6875 213.746094 142.621094 " fill-opacity="1" fill-rule="nonzero"/></g><path fill="#34e4cb" d="M 160.128906 169.269531 C 151.222656 151.851562 147.851562 131.589844 150.652344 112.230469 L 153.277344 112.609375 C 150.5625 131.4375 153.828125 151.128906 162.488281 168.058594 L 160.128906 169.269531 " fill-opacity="1" fill-rule="nonzero"/><g clip-path="url(#8cb6f6a45c)"><path fill="#34e4cb" d="M 85.003906 149.988281 C 65.523438 143.898438 55.0625 130.265625 51.894531 125.769531 C 54.386719 123.992188 72.058594 111.796875 94.886719 117.542969 C 119.128906 123.644531 128.785156 144.847656 129.878906 147.359375 C 125.253906 149.402344 106.949219 156.835938 85.003906 149.988281 " fill-opacity="1" fill-rule="nonzero"/></g><g clip-path="url(#9e013eae5c)"><path fill="#34e4cb" d="M 203.222656 215.433594 C 197.730469 207.6875 193.917969 198.6875 192.210938 189.398438 C 190.742188 181.394531 190.785156 173.265625 192.335938 165.238281 L 194.945312 165.746094 C 193.453125 173.449219 193.414062 181.242188 194.820312 188.921875 C 196.457031 197.832031 200.109375 206.460938 205.386719 213.894531 L 203.222656 215.433594 " fill-opacity="1" fill-rule="nonzero"/></g><g clip-path="url(#d20eaef182)"><path fill="#34e4cb" d="M 193.964844 223.375 C 201.039062 219.835938 208.113281 216.300781 215.1875 212.765625 C 216.421875 208.636719 225.25 180.84375 252.3125 170.328125 C 256.386719 168.746094 275.859375 161.730469 294.753906 170.328125 C 331.382812 186.992188 322.726562 232.171875 354.359375 252.246094 C 384.199219 271.175781 428.210938 252.054688 469.800781 233.984375 C 535.117188 205.601562 546.28125 175.542969 607.714844 162.375 C 632.4375 157.074219 666.089844 154.332031 668.71875 162.375 C 671.574219 171.117188 636.851562 190.007812 618.324219 199.503906 C 650.953125 201.125 654.890625 207.34375 655.457031 210.113281 C 657.605469 220.703125 621.667969 236.226562 607.714844 241.9375 C 620.804688 240.183594 631.902344 243.617188 634.238281 249.890625 C 637.476562 258.597656 622.917969 270.121094 618.324219 273.769531 C 606.382812 283.222656 593.65625 286.039062 586.5 287.03125 C 601.320312 293.261719 602.453125 298.246094 602.410156 300.285156 C 602.203125 311.121094 567.597656 317.910156 562.632812 318.851562 C 576.898438 323.484375 583.972656 327.90625 583.847656 332.113281 C 583.648438 338.84375 565.085938 345.03125 528.148438 350.675781 C 537.050781 354.292969 541.472656 357.824219 541.410156 361.292969 C 541.273438 369.691406 514.742188 377.648438 461.84375 385.160156 C 474.847656 389.886719 491.933594 394.460938 512.238281 395.769531 C 557.527344 398.675781 592.835938 383.636719 610.363281 374.546875 C 620.46875 377.574219 626.949219 386.644531 626.277344 395.769531 C 625.546875 405.824219 616.488281 411.214844 615.671875 411.683594 C 625.578125 412.460938 633.496094 420.40625 634.238281 430.246094 C 634.988281 440.214844 628.171875 449.347656 618.324219 451.464844 C 625.640625 459.964844 626.609375 471.949219 620.976562 480.640625 C 613.933594 491.515625 600.4375 491.273438 599.757812 491.246094 C 602.496094 503.585938 596.65625 515.742188 586.5 520.425781 C 574.558594 525.925781 562.835938 518.242188 562.214844 517.828125 C 563.605469 526.839844 559.257812 535.484375 552.015625 538.988281 C 542.953125 543.375 530.566406 539.128906 525.492188 528.378906 C 519.335938 508.78125 507.507812 482.890625 483.0625 470.03125 C 447.9375 451.554688 420.480469 477.695312 366.359375 467.378906 C 354.449219 465.109375 301.101562 454.941406 276.183594 414.332031 C 255.464844 380.5625 248.625 316.285156 255.300781 283.433594 C 256.4375 277.859375 260.503906 260.6875 251.570312 250.417969 C 248.480469 246.871094 245.351562 245.886719 236.40625 239.285156 C 229.238281 234 223.84375 229.179688 220.488281 226.023438 C 211.648438 225.140625 202.808594 224.253906 193.964844 223.375 " fill-opacity="1" fill-rule="nonzero"/></g><g clip-path="url(#38d3da39be)"><path fill="#34e4cb" d="M 236.601562 292.144531 C 226.433594 243.339844 197.835938 198.054688 158.136719 167.898438 C 140.785156 154.71875 120.25 143.351562 95.382812 133.160156 L 96.386719 130.707031 C 121.472656 140.984375 142.199219 152.460938 159.742188 165.785156 C 199.941406 196.320312 228.902344 242.179688 239.199219 291.605469 L 236.601562 292.144531 " fill-opacity="1" fill-rule="nonzero"/></g><path fill="#34e4cb" d="M 108.738281 200.703125 L 107.492188 198.359375 C 120.949219 191.199219 135.414062 186.992188 150.460938 185.871094 C 162.097656 184.996094 173.792969 186.027344 185.179688 188.921875 L 184.53125 191.496094 C 173.414062 188.667969 162.019531 187.667969 150.660156 188.511719 C 135.972656 189.609375 121.867188 193.707031 108.738281 200.703125 " fill-opacity="1" fill-rule="nonzero"/><path fill="#34e4cb" d="M 103.1875 185.460938 C 76.167969 195.785156 67.574219 221.515625 66.519531 224.839844 C 75.882812 225.613281 104.277344 226.722656 129.433594 207.824219 C 138.738281 200.832031 145.09375 192.988281 149.316406 186.574219 C 145.136719 184.785156 125.527344 176.925781 103.1875 185.460938 " fill-opacity="1" fill-rule="nonzero"/><path fill="#34e4cb" d="M 175.3125 103.480469 C 177.753906 83.207031 169.960938 67.925781 167.054688 62.804688 C 165.519531 63.683594 139.59375 79.214844 138.96875 108.472656 C 138.539062 128.484375 150.238281 142.09375 153.183594 145.332031 C 157.132812 141.847656 172.414062 127.53125 175.3125 103.480469 " fill-opacity="1" fill-rule="nonzero"/><g clip-path="url(#5e8382139e)"><path fill="#34e4cb" d="M 213.746094 142.621094 C 214.308594 125.957031 207.210938 113.75 204.152344 109.085938 C 202.027344 110.308594 182.222656 122.160156 179.496094 146.378906 C 177.035156 168.25 190.402344 183.230469 192.433594 185.425781 C 195.421875 182.910156 212.90625 167.6875 213.746094 142.621094 " fill-opacity="1" fill-rule="nonzero"/></g><path fill="#34e4cb" d="M 160.128906 169.269531 C 151.222656 151.851562 147.851562 131.589844 150.652344 112.230469 L 153.277344 112.609375 C 150.5625 131.4375 153.828125 151.128906 162.488281 168.058594 L 160.128906 169.269531 " fill-opacity="1" fill-rule="nonzero"/><g clip-path="url(#5fa5c87a13)"><path fill="#34e4cb" d="M 85.003906 149.988281 C 65.523438 143.898438 55.0625 130.265625 51.894531 125.769531 C 54.386719 123.992188 72.058594 111.796875 94.886719 117.542969 C 119.128906 123.644531 128.785156 144.847656 129.878906 147.359375 C 125.253906 149.402344 106.949219 156.835938 85.003906 149.988281 " fill-opacity="1" fill-rule="nonzero"/></g><path fill="#34e4cb" d="M 203.222656 215.433594 C 197.730469 207.6875 193.917969 198.6875 192.210938 189.398438 C 190.742188 181.394531 190.785156 173.265625 192.335938 165.238281 L 194.945312 165.746094 C 193.453125 173.449219 193.414062 181.242188 194.820312 188.921875 C 196.457031 197.832031 200.109375 206.460938 205.386719 213.894531 L 203.222656 215.433594 " fill-opacity="1" fill-rule="nonzero"/><g clip-path="url(#7b348bd4f8)"><path fill="#34e4cb" d="M 193.964844 223.375 C 201.039062 219.835938 208.113281 216.300781 215.1875 212.765625 C 216.421875 208.636719 225.25 180.84375 252.3125 170.328125 C 256.386719 168.746094 275.859375 161.730469 294.753906 170.328125 C 331.382812 186.992188 322.726562 232.171875 354.359375 252.246094 C 384.199219 271.175781 428.210938 252.054688 469.800781 233.984375 C 535.117188 205.601562 546.28125 175.542969 607.714844 162.375 C 632.4375 157.074219 666.089844 154.332031 668.71875 162.375 C 671.574219 171.117188 636.851562 190.007812 618.324219 199.503906 C 650.953125 201.125 654.890625 207.34375 655.457031 210.113281 C 657.605469 220.703125 621.667969 236.226562 607.714844 241.9375 C 620.804688 240.183594 631.902344 243.617188 634.238281 249.890625 C 637.476562 258.597656 622.917969 270.121094 618.324219 273.769531 C 606.382812 283.222656 593.65625 286.039062 586.5 287.03125 C 601.320312 293.261719 602.453125 298.246094 602.410156 300.285156 C 602.203125 311.121094 567.597656 317.910156 562.632812 318.851562 C 576.898438 323.484375 583.972656 327.90625 583.847656 332.113281 C 583.648438 338.84375 565.085938 345.03125 528.148438 350.675781 C 537.050781 354.292969 541.472656 357.824219 541.410156 361.292969 C 541.273438 369.691406 514.742188 377.648438 461.84375 385.160156 C 474.847656 389.886719 491.933594 394.460938 512.238281 395.769531 C 557.527344 398.675781 592.835938 383.636719 610.363281 374.546875 C 620.46875 377.574219 626.949219 386.644531 626.277344 395.769531 C 625.546875 405.824219 616.488281 411.214844 615.671875 411.683594 C 625.578125 412.460938 633.496094 420.40625 634.238281 430.246094 C 634.988281 440.214844 628.171875 449.347656 618.324219 451.464844 C 625.640625 459.964844 626.609375 471.949219 620.976562 480.640625 C 613.933594 491.515625 600.4375 491.273438 599.757812 491.246094 C 602.496094 503.585938 596.65625 515.742188 586.5 520.425781 C 574.558594 525.925781 562.835938 518.242188 562.214844 517.828125 C 563.605469 526.839844 559.257812 535.484375 552.015625 538.988281 C 542.953125 543.375 530.566406 539.128906 525.492188 528.378906 C 519.335938 508.78125 507.507812 482.890625 483.0625 470.03125 C 447.9375 451.554688 420.480469 477.695312 366.359375 467.378906 C 354.449219 465.109375 301.101562 454.941406 276.183594 414.332031 C 255.464844 380.5625 248.625 316.285156 255.300781 283.433594 C 256.4375 277.859375 260.503906 260.6875 251.570312 250.417969 C 248.480469 246.871094 245.351562 245.886719 236.40625 239.285156 C 229.238281 234 223.84375 229.179688 220.488281 226.023438 C 211.648438 225.140625 202.808594 224.253906 193.964844 223.375 " fill-opacity="1" fill-rule="nonzero"/></g><g clip-path="url(#1d56fd9814)"><path fill="#34e4cb" d="M 236.601562 292.144531 C 226.433594 243.339844 197.835938 198.054688 158.136719 167.898438 C 140.785156 154.71875 120.25 143.351562 95.382812 133.160156 L 96.386719 130.707031 C 121.472656 140.984375 142.199219 152.460938 159.742188 165.785156 C 199.941406 196.320312 228.902344 242.179688 239.199219 291.605469 L 236.601562 292.144531 " fill-opacity="1" fill-rule="nonzero"/></g><g clip-path="url(#653d79529e)"><path fill="#34e4cb" d="M 193.964844 223.375 C 201.039062 219.835938 208.113281 216.300781 215.1875 212.765625 C 216.421875 208.636719 225.25 180.84375 252.3125 170.328125 C 256.386719 168.746094 275.859375 161.730469 294.753906 170.328125 C 331.382812 186.992188 322.726562 232.171875 354.359375 252.246094 C 384.199219 271.175781 428.210938 252.054688 469.800781 233.984375 C 535.117188 205.601562 546.28125 175.542969 607.714844 162.375 C 632.4375 157.074219 666.089844 154.332031 668.71875 162.375 C 671.574219 171.117188 636.851562 190.007812 618.324219 199.503906 C 650.953125 201.125 654.890625 207.34375 655.457031 210.113281 C 657.605469 220.703125 621.667969 236.226562 607.714844 241.9375 C 620.804688 240.183594 631.902344 243.617188 634.238281 249.890625 C 637.476562 258.597656 622.917969 270.121094 618.324219 273.769531 C 606.382812 283.222656 593.65625 286.039062 586.5 287.03125 C 601.320312 293.261719 602.453125 298.246094 602.410156 300.285156 C 602.203125 311.121094 567.597656 317.910156 562.632812 318.851562 C 576.898438 323.484375 583.972656 327.90625 583.847656 332.113281 C 583.648438 338.84375 565.085938 345.03125 528.148438 350.675781 C 537.050781 354.292969 541.472656 357.824219 541.410156 361.292969 C 541.273438 369.691406 514.742188 377.648438 461.84375 385.160156 C 474.847656 389.886719 491.933594 394.460938 512.238281 395.769531 C 557.527344 398.675781 592.835938 383.636719 610.363281 374.546875 C 620.46875 377.574219 626.949219 386.644531 626.277344 395.769531 C 625.546875 405.824219 616.488281 411.214844 615.671875 411.683594 C 625.578125 412.460938 633.496094 420.40625 634.238281 430.246094 C 634.988281 440.214844 628.171875 449.347656 618.324219 451.464844 C 625.640625 459.964844 626.609375 471.949219 620.976562 480.640625 C 613.933594 491.515625 600.4375 491.273438 599.757812 491.246094 C 602.496094 503.585938 596.65625 515.742188 586.5 520.425781 C 574.558594 525.925781 562.835938 518.242188 562.214844 517.828125 C 563.605469 526.839844 559.257812 535.484375 552.015625 538.988281 C 542.953125 543.375 530.566406 539.128906 525.492188 528.378906 C 519.335938 508.78125 507.507812 482.890625 483.0625 470.03125 C 447.9375 451.554688 420.480469 477.695312 366.359375 467.378906 C 354.449219 465.109375 301.101562 454.941406 276.183594 414.332031 C 255.464844 380.5625 248.625 316.285156 255.300781 283.433594 C 256.4375 277.859375 260.503906 260.6875 251.570312 250.417969 C 248.480469 246.871094 245.351562 245.886719 236.40625 239.285156 C 229.238281 234 223.84375 229.179688 220.488281 226.023438 C 211.648438 225.140625 202.808594 224.253906 193.964844 223.375 " fill-opacity="1" fill-rule="nonzero"/></g><g clip-path="url(#318d829a5a)"><path fill="#34e4cb" d="M 236.601562 292.144531 C 226.433594 243.339844 197.835938 198.054688 158.136719 167.898438 C 140.785156 154.71875 120.25 143.351562 95.382812 133.160156 L 96.386719 130.707031 C 121.472656 140.984375 142.199219 152.460938 159.742188 165.785156 C 199.941406 196.320312 228.902344 242.179688 239.199219 291.605469 L 236.601562 292.144531 " fill-opacity="1" fill-rule="nonzero"/></g><g clip-path="url(#935426a9ab)"><g clip-path="url(#6fd72443ad)"><g clip-path="url(#0db559f8e1)"><path fill="#34e4cb" d="M 180.675781 206.722656 C 187.296875 202.398438 193.921875 198.082031 200.546875 193.761719 C 201.300781 189.519531 206.898438 160.898438 232.585938 147.363281 C 236.449219 145.328125 254.996094 136.132812 274.746094 142.519531 C 313.039062 154.894531 309.597656 200.765625 343.3125 217.097656 C 375.121094 232.496094 416.664062 208.476562 455.917969 185.773438 C 517.566406 150.117188 525.226562 118.980469 584.757812 98.886719 C 608.707031 90.796875 641.828125 84.234375 645.359375 91.921875 C 649.195312 100.28125 616.851562 123.011719 599.535156 134.5625 C 632.136719 132.445312 636.757812 138.175781 637.632812 140.863281 C 640.980469 151.136719 607.046875 170.664062 593.839844 177.929688 C 606.640625 174.691406 618.058594 176.835938 621.097656 182.804688 C 625.304688 191.082031 612.160156 204.195312 608.011719 208.339844 C 597.226562 219.097656 584.90625 223.347656 577.910156 225.148438 C 593.34375 229.648438 595.039062 234.46875 595.226562 236.5 C 596.261719 247.289062 562.65625 257.988281 557.828125 259.488281 C 572.53125 262.460938 580.0625 266.046875 580.421875 270.242188 C 580.992188 276.949219 563.257812 285.214844 527.203125 295.042969 C 536.460938 297.617188 541.257812 300.625 541.589844 304.074219 C 542.414062 312.433594 516.964844 323.367188 465.273438 336.871094 C 478.726562 340.078125 496.226562 342.675781 516.546875 341.65625 C 561.875 339.375 595.234375 320.398438 611.609375 309.371094 C 621.992188 311.222656 629.464844 319.492188 629.84375 328.636719 C 630.265625 338.710938 621.878906 345.097656 621.121094 345.660156 C 631.050781 345.296875 639.824219 352.289062 641.6875 361.980469 C 643.570312 371.796875 637.839844 381.648438 628.296875 384.875 C 636.535156 392.484375 638.867188 404.277344 634.265625 413.558594 C 628.511719 425.164062 615.074219 426.464844 614.394531 426.519531 C 618.523438 438.460938 614.109375 451.207031 604.554688 457.019531 C 593.320312 463.84375 580.796875 457.550781 580.132812 457.210938 C 582.542969 466.007812 579.210938 475.089844 572.417969 479.394531 C 563.914062 484.792969 551.121094 481.988281 544.855469 471.886719 C 536.5 453.117188 521.792969 428.746094 496.039062 418.761719 C 459.039062 404.417969 434.742188 433.519531 379.796875 429.449219 C 367.707031 428.554688 313.546875 424.546875 284.15625 387.046875 C 259.714844 355.863281 245.582031 292.789062 248.464844 259.386719 C 248.957031 253.71875 251.035156 236.195312 240.988281 227.015625 C 237.515625 223.84375 234.292969 223.222656 224.652344 217.683594 C 216.929688 213.253906 211.019531 209.078125 207.328125 206.324219 C 198.441406 206.460938 189.558594 206.589844 180.675781 206.722656 " fill-opacity="1" fill-rule="nonzero"/></g></g></g><g clip-path="url(#6bbba1692f)"><g clip-path="url(#35ded05e6e)"><g clip-path="url(#c738e71b8f)"><path fill="#34e4cb" d="M 230.882812 270.175781 C 215.210938 222.851562 181.628906 181.128906 138.746094 155.699219 C 120 144.585938 98.304688 135.640625 72.4375 128.355469 L 73.152344 125.800781 C 99.246094 133.148438 121.148438 142.183594 140.101562 153.417969 C 183.523438 179.160156 217.53125 221.417969 233.402344 269.34375 L 230.882812 270.175781 " fill-opacity="1" fill-rule="nonzero"/></g></g></g><g clip-path="url(#213be5fd55)"><g clip-path="url(#ec483316a1)"><g clip-path="url(#f074474378)"><path fill="#0061a2" d="M 188.949219 224.070312 L 261.980469 195.425781 L 269.839844 215.464844 L 196.808594 244.109375 Z M 188.949219 224.070312 " fill-opacity="1" fill-rule="nonzero"/></g></g></g><g clip-path="url(#bb4775ab2e)"><g clip-path="url(#f1a388adfc)"><g clip-path="url(#0fc67262ea)"><path fill="#0061a2" d="M 233.671875 236.910156 L 310.550781 252.5 L 306.273438 273.59375 L 229.394531 258.003906 Z M 233.671875 236.910156 " fill-opacity="1" fill-rule="nonzero"/></g></g></g></svg>