<svg xmlns="http://www.w3.org/2000/svg" xmlns:xlink="http://www.w3.org/1999/xlink" width="1080" zoomAndPan="magnify" viewBox="0 0 810 809.999993" height="1080" preserveAspectRatio="xMidYMid meet" version="1.0"><defs><clipPath id="f22b5530c8"><path d="M 262.492188 45.382812 L 810 45.382812 L 810 748 L 262.492188 748 Z M 262.492188 45.382812 " clip-rule="nonzero"/></clipPath></defs><g clip-path="url(#f22b5530c8)"><path fill="#0061a2" d="M 890.34375 45.382812 L 282.652344 45.382812 C 271.65625 45.382812 262.714844 54.320312 262.714844 65.308594 L 262.714844 404.820312 C 262.714844 415.804688 271.65625 424.746094 282.652344 424.746094 L 361.949219 424.746094 L 361.949219 484.691406 C 361.949219 484.746094 362.015625 484.78125 362.015625 484.835938 C 337.898438 514.984375 338.214844 555.554688 363.464844 595.265625 L 405.773438 668.75 L 409.335938 675.488281 C 417.546875 690.824219 422.957031 700.949219 422.957031 721.648438 L 422.957031 736.484375 C 422.957031 742.746094 428.035156 747.816406 434.289062 747.816406 C 440.539062 747.816406 445.617188 742.75 445.617188 736.484375 L 445.617188 721.648438 C 445.617188 695.269531 438.0625 681.152344 429.320312 664.800781 L 382.839844 583.535156 C 372.429688 567.136719 351.792969 525.472656 384.699219 493.273438 L 519.269531 377.515625 C 545.445312 353.105469 569.941406 355.417969 582.578125 368.5625 C 594.582031 381.023438 597.136719 404.753906 574.113281 427.679688 L 489.316406 518.871094 C 485.125 523.503906 485.480469 530.671875 490.105469 534.878906 C 492.273438 536.835938 494.992188 537.808594 497.714844 537.808594 C 500.792969 537.808594 503.867188 536.5625 506.113281 534.09375 L 523.496094 514.910156 C 545.46875 534.515625 552.042969 562.382812 543.300781 599.925781 C 541.886719 606.011719 545.667969 612.105469 551.753906 613.523438 C 557.871094 614.90625 563.945312 611.152344 565.363281 605.058594 C 576.050781 559.199219 567.175781 523.296875 538.996094 498.125 L 590.367188 443.46875 C 596.472656 437.382812 601.273438 431.097656 604.925781 424.75 L 772.371094 424.75 C 774.757812 545.886719 737.960938 613.335938 721.5625 637.101562 L 697.820312 671.984375 L 696.878906 673.289062 C 685.015625 689.964844 676.441406 702.003906 676.699219 721.695312 L 676.699219 736.488281 C 676.699219 742.75 681.777344 747.820312 688.027344 747.820312 C 694.277344 747.820312 699.359375 742.753906 699.359375 736.488281 L 699.359375 721.554688 C 699.203125 709.59375 703.859375 702.566406 715.34375 686.425781 L 740.261719 649.914062 C 757.851562 624.410156 797.417969 552.21875 795.003906 424.75 L 890.34375 424.75 C 901.332031 424.75 910.269531 415.808594 910.269531 404.824219 L 910.269531 65.308594 C 910.273438 54.320312 901.332031 45.382812 890.34375 45.382812 Z M 384.609375 463.492188 L 384.609375 424.746094 L 429.652344 424.746094 Z M 887.613281 402.085938 L 613.269531 402.085938 C 616.601562 382.914062 610.605469 364.988281 598.910156 352.839844 C 579.214844 332.40625 541.085938 326.222656 504.15625 360.640625 L 455.984375 402.085938 L 285.375 402.085938 L 285.375 68.042969 L 887.613281 68.042969 Z M 887.613281 402.085938 " fill-opacity="1" fill-rule="nonzero"/></g><path fill="#0061a2" d="M 354.0625 208.578125 C 354.015625 208.566406 353.949219 208.566406 353.90625 208.578125 C 343.90625 208.578125 337.996094 203.289062 337.265625 193.664062 C 336.789062 187.421875 331.3125 182.675781 325.117188 183.230469 C 318.878906 183.707031 314.199219 189.148438 314.675781 195.390625 C 316.023438 213.046875 327.011719 225.769531 342.964844 229.777344 L 342.964844 236.890625 C 342.964844 243.152344 348.042969 248.21875 354.292969 248.21875 C 360.546875 248.21875 365.625 243.152344 365.625 236.890625 L 365.625 229.777344 C 372.859375 228.082031 379.246094 224.894531 384.023438 220.140625 C 390.128906 214.03125 393.371094 206.078125 393.371094 197.167969 C 393.40625 185 388.558594 163.878906 355.988281 159.277344 C 339.8125 156.398438 339.148438 149.703125 339.824219 143.089844 C 341.128906 134.667969 350.953125 132.113281 356.960938 132.621094 C 360.964844 132.898438 367.703125 134.425781 367.800781 141.507812 C 367.890625 147.714844 372.9375 152.683594 379.132812 152.683594 C 379.175781 152.683594 379.242188 152.683594 379.285156 152.683594 C 385.546875 152.59375 390.550781 147.449219 390.460938 141.199219 C 390.261719 126.40625 380.351562 114.820312 365.625 111.160156 L 365.625 105.019531 C 365.625 98.757812 360.546875 93.6875 354.292969 93.6875 C 348.042969 93.6875 342.964844 98.753906 342.964844 105.019531 L 342.964844 111.878906 C 330.59375 115.652344 319.707031 125.023438 317.351562 140.179688 C 316.003906 153.089844 318.722656 175.652344 352.425781 181.648438 C 370.757812 184.246094 370.722656 192.613281 370.710938 197.136719 C 370.710938 200.015625 369.839844 202.28125 368.011719 204.097656 C 365.160156 206.949219 360.101562 208.578125 354.0625 208.578125 Z M 354.0625 208.578125 " fill-opacity="1" fill-rule="nonzero"/><path fill="#0061a2" d="M 768.5625 243.960938 C 756.351562 234.300781 745.128906 232.03125 737.296875 232.03125 C 719.96875 232.03125 704.789062 242.898438 697.675781 260.398438 C 689.941406 279.453125 691.382812 309.257812 718.628906 335.769531 L 760.664062 376.640625 C 762.863281 378.777344 765.707031 379.847656 768.5625 379.847656 C 771.417969 379.847656 774.273438 378.777344 776.464844 376.640625 L 818.453125 335.769531 C 845.703125 309.261719 847.140625 279.453125 839.394531 260.398438 C 832.292969 242.898438 817.125 232.03125 799.808594 232.03125 C 791.976562 232.03125 780.757812 234.300781 768.5625 243.960938 Z M 818.40625 268.921875 C 823.375 281.144531 821.847656 300.863281 802.652344 319.527344 L 768.5625 352.710938 L 734.429688 319.527344 C 715.234375 300.863281 713.707031 281.144531 718.664062 268.933594 C 722.296875 260.015625 729.253906 254.691406 737.296875 254.691406 C 744.644531 254.691406 752.632812 258.984375 760.355469 267.117188 C 764.625 271.632812 772.503906 271.632812 776.773438 267.117188 C 784.496094 258.984375 792.464844 254.691406 799.808594 254.691406 C 807.839844 254.691406 814.789062 260.011719 818.40625 268.921875 Z M 818.40625 268.921875 " fill-opacity="1" fill-rule="nonzero"/><path fill="#0061a2" d="M 441.765625 141.925781 L 813.75 141.925781 C 820.011719 141.925781 825.078125 136.859375 825.078125 130.597656 C 825.078125 124.335938 820.011719 119.269531 813.75 119.269531 L 441.765625 119.269531 C 435.515625 119.269531 430.433594 124.335938 430.433594 130.597656 C 430.433594 136.859375 435.515625 141.925781 441.765625 141.925781 Z M 441.765625 141.925781 " fill-opacity="1" fill-rule="nonzero"/><path fill="#0061a2" d="M 441.765625 200.542969 L 813.75 200.542969 C 820.011719 200.542969 825.078125 195.476562 825.078125 189.214844 C 825.078125 182.953125 820.011719 177.886719 813.75 177.886719 L 441.765625 177.886719 C 435.515625 177.886719 430.433594 182.953125 430.433594 189.214844 C 430.433594 195.476562 435.515625 200.542969 441.765625 200.542969 Z M 441.765625 200.542969 " fill-opacity="1" fill-rule="nonzero"/><path fill="#0061a2" d="M 441.765625 259.183594 L 645 259.183594 C 651.261719 259.183594 656.332031 254.117188 656.332031 247.855469 C 656.332031 241.59375 651.265625 236.527344 645 236.527344 L 441.765625 236.527344 C 435.515625 236.527344 430.433594 241.59375 430.433594 247.855469 C 430.433594 254.117188 435.515625 259.183594 441.765625 259.183594 Z M 441.765625 259.183594 " fill-opacity="1" fill-rule="nonzero"/></svg>