<svg xmlns="http://www.w3.org/2000/svg" xmlns:xlink="http://www.w3.org/1999/xlink" width="1080" zoomAndPan="magnify" viewBox="0 0 810 809.999993" height="1080" preserveAspectRatio="xMidYMid meet" version="1.0"><defs><clipPath id="065ac0980f"><path d="M 586 63.683594 L 678 63.683594 L 678 355 L 586 355 Z M 586 63.683594 " clip-rule="nonzero"/></clipPath><clipPath id="50d4a7cc71"><path d="M 620 584 L 644 584 L 644 746.183594 L 620 746.183594 Z M 620 584 " clip-rule="nonzero"/></clipPath></defs><g clip-path="url(#065ac0980f)"><path fill="#0061a2" d="M 620.78125 152.992188 L 620.78125 348.113281 C 623.625 349.820312 625.902344 350.957031 628.746094 352.664062 C 629.882812 353.230469 631.019531 353.800781 632.160156 354.371094 C 633.296875 353.800781 634.433594 353.230469 635.570312 352.664062 C 638.417969 350.957031 640.691406 349.820312 643.535156 348.113281 L 643.535156 152.992188 C 662.878906 147.875 677.667969 130.238281 677.667969 109.191406 C 677.667969 84.164062 657.1875 63.683594 632.160156 63.683594 C 607.128906 63.683594 586.648438 84.164062 586.648438 109.191406 C 586.648438 130.238281 601.441406 147.875 620.78125 152.992188 Z M 632.160156 86.4375 C 644.671875 86.4375 654.914062 96.675781 654.914062 109.191406 C 654.914062 121.707031 644.671875 131.945312 632.160156 131.945312 C 619.644531 131.945312 609.40625 121.707031 609.40625 109.191406 C 609.40625 96.675781 619.644531 86.4375 632.160156 86.4375 Z M 632.160156 86.4375 " fill-opacity="1" fill-rule="nonzero"/></g><path fill="#0061a2" d="M 650.929688 514.21875 C 652.070312 515.355469 665.152344 524.457031 669.703125 527.871094 C 687.90625 511.375 702.128906 490.894531 700.421875 464.160156 C 698.714844 440.835938 688.476562 423.769531 673.683594 409.546875 C 671.980469 410.6875 657.757812 418.082031 652.636719 421.496094 C 666.859375 433.441406 676.53125 447.09375 677.667969 465.867188 C 678.804688 484.636719 666.859375 499.996094 650.929688 514.21875 Z M 650.929688 514.21875 " fill-opacity="1" fill-rule="nonzero"/><path fill="#0061a2" d="M 609.40625 367.453125 C 597.457031 360.628906 586.082031 353.800781 576.410156 346.40625 C 604.851562 290.089844 576.410156 248.5625 562.1875 233.203125 C 556.5 226.945312 547.96875 224.671875 540.003906 226.375 C 532.039062 228.082031 525.78125 234.339844 523.507812 242.304688 C 511.5625 284.398438 522.371094 327.0625 552.519531 355.507812 C 562.757812 365.179688 575.273438 373.710938 588.925781 381.675781 C 595.183594 376.554688 602.007812 372.003906 609.40625 367.453125 Z M 558.777344 329.339844 C 541.710938 307.15625 536.589844 277.574219 544.554688 248.5625 C 560.484375 265.628906 574.136719 292.933594 558.777344 329.339844 Z M 558.777344 329.339844 " fill-opacity="1" fill-rule="nonzero"/><path fill="#0061a2" d="M 620.78125 489.757812 C 624.195312 493.171875 627.609375 496.582031 632.160156 499.996094 C 636.710938 496.582031 640.121094 493.171875 643.535156 489.757812 L 643.535156 443.679688 C 640.121094 440.265625 636.710938 437.421875 632.160156 434.007812 C 627.609375 437.421875 624.195312 440.265625 620.78125 443.679688 Z M 620.78125 489.757812 " fill-opacity="1" fill-rule="nonzero"/><g clip-path="url(#50d4a7cc71)"><path fill="#0061a2" d="M 632.160156 584.757812 C 627.609375 588.171875 620.78125 594.425781 620.78125 594.996094 L 620.78125 734.933594 C 620.78125 741.191406 625.902344 746.3125 632.160156 746.3125 C 638.417969 746.3125 643.535156 741.191406 643.535156 734.933594 L 643.535156 594.996094 C 643.535156 594.425781 636.710938 588.171875 632.160156 584.757812 Z M 632.160156 584.757812 " fill-opacity="1" fill-rule="nonzero"/></g><path fill="#0061a2" d="M 588.355469 562.570312 C 569.015625 583.617188 559.34375 610.355469 562.1875 635.953125 C 563.894531 653.019531 571.859375 676.34375 598.027344 697.390625 L 598.027344 664.964844 C 590.632812 655.296875 586.082031 644.488281 584.945312 633.109375 C 582.667969 613.769531 590.0625 593.289062 604.851562 577.363281 C 607.128906 575.085938 609.972656 572.242188 612.816406 569.964844 C 606.558594 565.414062 600.300781 560.863281 594.046875 556.3125 C 592.339844 559.160156 590.0625 560.863281 588.355469 562.570312 Z M 588.355469 562.570312 " fill-opacity="1" fill-rule="nonzero"/><path fill="#0061a2" d="M 724.3125 226.375 C 716.347656 224.671875 707.816406 226.945312 702.128906 233.203125 C 687.90625 248.5625 659.464844 290.089844 687.90625 346.40625 C 675.960938 355.507812 661.738281 363.472656 646.378906 372.003906 C 609.40625 392.484375 566.738281 415.804688 563.894531 463.589844 C 561.050781 506.253906 598.597656 532.421875 628.746094 554.039062 C 640.691406 562.570312 652.070312 570.535156 659.464844 577.929688 C 674.253906 593.859375 681.648438 614.335938 679.375 633.679688 C 678.234375 645.054688 673.683594 655.863281 666.289062 665.535156 L 666.289062 697.960938 C 691.886719 676.910156 699.851562 653.589844 702.128906 636.523438 C 704.972656 610.355469 695.300781 583.617188 675.960938 563.140625 C 667.429688 553.46875 654.914062 544.9375 641.828125 535.835938 C 613.957031 515.925781 584.375 495.445312 586.648438 465.867188 C 588.925781 430.027344 622.488281 411.824219 657.757812 392.484375 C 677.097656 381.675781 697.578125 370.867188 712.367188 356.074219 C 742.515625 327.0625 753.324219 284.96875 741.378906 242.875 C 739.105469 234.339844 732.847656 228.082031 724.3125 226.375 Z M 705.542969 329.339844 C 690.183594 292.933594 703.835938 265.628906 719.761719 248.5625 C 727.726562 277.574219 722.039062 307.15625 705.542969 329.339844 Z M 705.542969 329.339844 " fill-opacity="1" fill-rule="nonzero"/><path fill="#0061a2" d="M 598.027344 192.246094 L 598.027344 169.492188 C 561.621094 164.371094 541.710938 133.652344 530.902344 108.054688 C 527.488281 99.519531 520.09375 92.125 511.5625 88.714844 C 503.027344 85.300781 493.359375 85.867188 484.824219 89.851562 C 408.027344 126.257812 329.527344 134.222656 290.273438 135.929688 C 281.171875 136.496094 273.210938 141.617188 269.796875 150.148438 C 266.382812 158.683594 268.089844 167.785156 274.347656 174.042969 C 297.101562 197.933594 348.296875 241.734375 415.992188 242.875 C 416.5625 249.699219 419.40625 266.765625 435.335938 282.125 C 450.125 296.914062 471.742188 305.449219 499.613281 307.722656 C 497.910156 300.328125 496.769531 292.363281 496.203125 284.398438 C 445.574219 278.144531 439.886719 247.992188 438.746094 241.167969 C 454.675781 238.890625 471.742188 234.339844 489.375 226.375 C 495.0625 223.53125 497.339844 217.273438 495.0625 211.015625 C 492.21875 205.328125 485.960938 203.054688 479.703125 205.328125 C 430.78125 228.082031 387.550781 221.257812 353.417969 204.761719 C 381.863281 203.054688 422.820312 197.363281 460.363281 182.003906 C 466.050781 179.730469 468.898438 172.902344 466.621094 167.214844 C 464.34375 161.527344 457.519531 158.683594 451.832031 160.957031 C 392.667969 185.988281 323.839844 183.144531 318.148438 183.144531 C 307.339844 174.609375 298.238281 166.078125 290.84375 158.683594 C 332.371094 156.976562 413.71875 148.441406 494.496094 110.328125 C 500.183594 107.484375 507.578125 110.328125 509.855469 116.585938 C 538.867188 190.539062 597.457031 192.246094 598.027344 192.246094 Z M 598.027344 192.246094 " fill-opacity="1" fill-rule="nonzero"/><path fill="#0061a2" d="M 666.289062 192.246094 L 666.289062 169.492188 C 702.695312 164.371094 722.605469 133.652344 733.414062 108.054688 C 736.828125 99.519531 744.222656 92.125 752.757812 88.714844 C 761.289062 85.300781 770.960938 85.867188 779.492188 89.851562 C 856.289062 126.257812 934.222656 134.222656 974.042969 135.929688 C 983.144531 136.496094 991.109375 141.617188 994.519531 150.148438 C 997.933594 158.683594 996.226562 167.785156 989.96875 174.042969 C 967.214844 197.933594 916.019531 241.734375 848.324219 242.875 C 847.753906 249.699219 844.910156 266.765625 828.984375 282.125 C 814.191406 296.914062 792.578125 305.449219 764.703125 307.722656 C 766.410156 300.328125 767.546875 292.363281 768.117188 284.398438 C 818.742188 278.144531 824.433594 247.992188 825.570312 241.167969 C 809.640625 238.890625 792.578125 234.339844 774.941406 226.375 C 769.253906 223.53125 766.976562 217.273438 769.253906 211.015625 C 772.097656 205.328125 778.355469 203.054688 784.613281 205.328125 C 833.535156 228.082031 876.765625 221.257812 910.898438 204.761719 C 882.457031 203.054688 841.5 197.363281 803.953125 182.003906 C 798.265625 179.730469 795.421875 172.902344 797.695312 167.214844 C 799.972656 161.527344 806.796875 158.683594 812.488281 160.957031 C 871.078125 185.417969 939.910156 183.144531 945.597656 182.574219 C 956.40625 174.042969 965.507812 165.507812 972.902344 158.113281 C 931.378906 156.40625 850.03125 147.875 769.253906 109.761719 C 763.566406 106.917969 756.167969 109.761719 753.894531 116.019531 C 725.453125 190.539062 666.859375 192.246094 666.289062 192.246094 Z M 666.289062 192.246094 " fill-opacity="1" fill-rule="nonzero"/></svg>