<svg xmlns="http://www.w3.org/2000/svg" xmlns:xlink="http://www.w3.org/1999/xlink" width="1080" zoomAndPan="magnify" viewBox="0 0 810 809.999993" height="1080" preserveAspectRatio="xMidYMid meet" version="1.0"><defs><clipPath id="14ea616d83"><path d="M 244.875 675 L 810 675 L 810 701.804688 L 244.875 701.804688 Z M 244.875 675 " clip-rule="nonzero"/></clipPath><clipPath id="d2ff4ffdc8"><path d="M 304 305 L 810 305 L 810 701.804688 L 304 701.804688 Z M 304 305 " clip-rule="nonzero"/></clipPath><clipPath id="12d54b54c2"><path d="M 621 383.402344 L 781 383.402344 L 781 701.804688 L 621 701.804688 Z M 621 383.402344 " clip-rule="nonzero"/></clipPath><clipPath id="8741b7e5b8"><path d="M 330 66.253906 L 807 66.253906 L 807 267 L 330 267 Z M 330 66.253906 " clip-rule="nonzero"/></clipPath></defs><g clip-path="url(#14ea616d83)"><path fill="#0061a2" d="M 258.101562 701.804688 C 250.796875 701.804688 244.875 695.882812 244.875 688.578125 C 244.875 681.273438 250.796875 675.355469 258.101562 675.355469 L 879.6875 675.355469 C 886.992188 675.355469 892.910156 681.273438 892.910156 688.578125 C 892.910156 695.882812 886.992188 701.804688 879.6875 701.804688 L 258.101562 701.804688 " fill-opacity="1" fill-rule="nonzero"/></g><g clip-path="url(#d2ff4ffdc8)"><path fill="#0061a2" d="M 568.894531 305.050781 L 820.167969 305.050781 C 827.472656 305.050781 833.402344 310.96875 833.402344 318.277344 L 833.402344 688.578125 C 833.402344 695.882812 827.472656 701.804688 820.167969 701.804688 L 568.894531 701.804688 L 568.894531 675.355469 L 806.945312 675.355469 L 806.945312 331.5 L 568.894531 331.5 Z M 317.613281 305.050781 L 568.894531 305.050781 L 568.894531 331.5 L 330.835938 331.5 L 330.835938 675.355469 L 568.894531 675.355469 L 568.894531 701.804688 L 317.613281 701.804688 C 310.3125 701.804688 304.386719 695.882812 304.386719 688.578125 L 304.386719 318.277344 C 304.386719 310.96875 310.3125 305.050781 317.613281 305.050781 " fill-opacity="1" fill-rule="nonzero"/></g><path fill="#0061a2" d="M 635.015625 542.273438 C 642.324219 542.273438 648.25 548.199219 648.25 555.503906 C 648.25 562.804688 642.324219 568.730469 635.015625 568.730469 L 383.742188 568.730469 C 376.4375 568.730469 370.515625 562.804688 370.515625 555.503906 L 370.515625 396.804688 C 370.515625 389.496094 376.4375 383.578125 383.742188 383.578125 L 635.015625 383.578125 C 642.324219 383.578125 648.25 389.496094 648.25 396.804688 C 648.25 404.101562 642.324219 410.027344 635.015625 410.027344 L 396.964844 410.027344 L 396.964844 542.273438 L 635.015625 542.273438 " fill-opacity="1" fill-rule="nonzero"/><g clip-path="url(#12d54b54c2)"><path fill="#0061a2" d="M 754.046875 410.027344 L 701.148438 410.027344 L 701.148438 383.578125 L 767.269531 383.578125 C 774.574219 383.578125 780.496094 389.496094 780.496094 396.804688 L 780.496094 688.578125 C 780.496094 695.882812 774.574219 701.804688 767.269531 701.804688 L 701.148438 701.804688 L 701.148438 675.355469 L 754.046875 675.355469 Z M 701.148438 410.027344 L 648.25 410.027344 L 648.25 675.355469 L 701.148438 675.355469 L 701.148438 701.804688 L 635.015625 701.804688 C 627.71875 701.804688 621.792969 695.882812 621.792969 688.578125 L 621.792969 396.804688 C 621.792969 389.496094 627.71875 383.578125 635.015625 383.578125 L 701.148438 383.578125 L 701.148438 410.027344 " fill-opacity="1" fill-rule="nonzero"/></g><path fill="#0061a2" d="M 663.382812 529.050781 C 663.382812 525.402344 666.351562 522.4375 669.996094 522.4375 C 673.648438 522.4375 676.613281 525.402344 676.613281 529.050781 L 676.613281 574.953125 C 676.613281 578.605469 673.648438 581.566406 669.996094 581.566406 C 666.351562 581.566406 663.382812 578.605469 663.382812 574.953125 L 663.382812 529.050781 " fill-opacity="1" fill-rule="nonzero"/><path fill="#0061a2" d="M 568.894531 305.050781 L 859.851562 305.050781 L 859.851562 266.40625 L 568.894531 266.40625 L 568.894531 239.957031 L 873.074219 239.957031 C 880.371094 239.957031 886.300781 245.875 886.300781 253.179688 L 886.300781 318.277344 C 886.300781 325.582031 880.371094 331.5 873.074219 331.5 L 568.894531 331.5 Z M 277.9375 305.050781 L 568.894531 305.050781 L 568.894531 331.5 L 264.714844 331.5 C 257.410156 331.5 251.488281 325.582031 251.488281 318.277344 L 251.488281 253.179688 C 251.488281 245.875 257.410156 239.957031 264.714844 239.957031 L 568.894531 239.957031 L 568.894531 266.40625 L 277.9375 266.40625 L 277.9375 305.050781 " fill-opacity="1" fill-rule="nonzero"/><g clip-path="url(#8741b7e5b8)"><path fill="#0061a2" d="M 568.894531 66.554688 L 793.71875 66.554688 C 801.023438 66.554688 806.945312 72.476562 806.945312 79.78125 L 806.945312 253.179688 C 806.945312 260.488281 801.023438 266.40625 793.71875 266.40625 L 568.894531 266.40625 L 568.894531 239.957031 L 780.496094 239.957031 L 780.496094 93.003906 L 568.894531 93.003906 Z M 344.066406 66.554688 L 568.894531 66.554688 L 568.894531 93.003906 L 357.292969 93.003906 L 357.292969 239.957031 L 568.894531 239.957031 L 568.894531 266.40625 L 344.066406 266.40625 C 336.761719 266.40625 330.835938 260.488281 330.835938 253.179688 L 330.835938 79.78125 C 330.835938 72.476562 336.761719 66.554688 344.066406 66.554688 " fill-opacity="1" fill-rule="nonzero"/></g><path fill="#0061a2" d="M 695.886719 179.308594 L 695.886719 161.65625 L 699.007812 161.65625 C 700.832031 161.65625 702.480469 161.320312 703.953125 160.675781 C 705.425781 160.011719 706.582031 159.070312 707.445312 157.808594 C 708.324219 156.574219 708.753906 155.066406 708.773438 153.296875 C 708.753906 151.496094 708.324219 149.945312 707.445312 148.6875 C 706.582031 147.429688 705.425781 146.46875 703.953125 145.824219 C 702.480469 145.15625 700.832031 144.820312 699.007812 144.820312 L 695.886719 144.820312 L 695.886719 127.171875 L 702.070312 127.171875 C 706.480469 127.191406 710.382812 127.898438 713.78125 129.25 C 717.171875 130.601562 720.035156 132.484375 722.351562 134.898438 C 724.664062 137.292969 726.414062 140.058594 727.589844 143.199219 C 728.789062 146.355469 729.371094 149.703125 729.371094 153.296875 C 729.371094 156.847656 728.789062 160.207031 727.589844 163.320312 C 726.414062 166.441406 724.664062 169.207031 722.351562 171.601562 C 720.035156 173.996094 717.171875 175.878906 713.78125 177.230469 C 710.382812 178.582031 706.480469 179.289062 702.070312 179.308594 Z M 695.886719 127.171875 L 695.886719 144.820312 L 683 144.820312 L 683 161.65625 L 695.886719 161.65625 L 695.886719 179.308594 L 683 179.308594 L 683 205.671875 L 662.757812 205.671875 L 662.757812 127.171875 Z M 610.558594 207.082031 L 610.558594 189.195312 L 610.621094 189.195312 C 613.875 189.175781 616.792969 188.585938 619.40625 187.429688 C 622.035156 186.269531 624.269531 184.664062 626.132812 182.605469 C 627.996094 180.546875 629.425781 178.132812 630.410156 175.386719 C 631.410156 172.644531 631.921875 169.675781 631.921875 166.480469 C 631.921875 163.246094 631.410156 160.265625 630.410156 157.515625 C 629.425781 154.769531 627.996094 152.355469 626.132812 150.316406 C 624.269531 148.257812 622.035156 146.652344 619.40625 145.515625 C 616.792969 144.355469 613.875 143.785156 610.621094 143.765625 L 610.558594 143.765625 L 610.558594 125.871094 L 610.621094 125.871094 C 616.660156 125.890625 622.210938 126.894531 627.289062 128.859375 C 632.375 130.816406 636.804688 133.601562 640.574219 137.214844 C 644.339844 140.824219 647.257812 145.097656 649.339844 150.0625 C 651.4375 155.003906 652.5 160.480469 652.519531 166.480469 C 652.5 172.480469 651.4375 177.957031 649.339844 182.902344 C 647.257812 187.859375 644.339844 192.136719 640.574219 195.75 C 636.804688 199.355469 632.375 202.144531 627.289062 204.105469 C 622.210938 206.066406 616.660156 207.070312 610.621094 207.082031 Z M 443.253906 207.082031 C 450.296875 207.050781 456.234375 205.945312 461.105469 203.789062 C 465.96875 201.613281 469.65625 198.574219 472.164062 194.652344 C 474.699219 190.722656 475.953125 186.136719 475.972656 180.84375 C 475.953125 177.210938 475.304688 174.089844 474.066406 171.5 C 472.835938 168.910156 471.148438 166.714844 469.050781 164.953125 C 466.929688 163.183594 464.554688 161.730469 461.925781 160.574219 C 459.296875 159.417969 456.59375 158.476562 453.785156 157.730469 C 450.980469 157.003906 448.269531 156.359375 445.648438 155.824219 C 443.015625 155.28125 440.644531 154.730469 438.523438 154.183594 C 436.425781 153.652344 434.757812 152.988281 433.5 152.21875 C 432.269531 151.453125 431.617188 150.472656 431.601562 149.292969 C 431.582031 147.574219 432.269531 146.234375 433.621094 145.3125 C 434.992188 144.371094 437.152344 143.878906 440.078125 143.878906 C 442.679688 143.878906 445.332031 144.175781 448.023438 144.789062 C 450.707031 145.394531 453.316406 146.292969 455.867188 147.53125 C 458.433594 148.75 460.808594 150.277344 463.023438 152.121094 L 474.089844 136.9375 C 469.890625 133.34375 465.109375 130.621094 459.734375 128.777344 C 454.351562 126.933594 448.511719 125.992188 442.195312 125.992188 C 437.152344 126.011719 432.699219 126.699219 428.832031 128.03125 C 424.949219 129.371094 421.695312 131.214844 419.042969 133.527344 C 416.398438 135.839844 414.394531 138.503906 413.042969 141.492188 C 411.691406 144.472656 411.003906 147.605469 411.003906 150.941406 C 411.039062 154.710938 411.671875 157.910156 412.910156 160.574219 C 414.160156 163.246094 415.828125 165.457031 417.945312 167.25 C 420.046875 169.03125 422.421875 170.503906 425.050781 171.640625 C 427.675781 172.777344 430.386719 173.699219 433.191406 174.40625 C 435.996094 175.132812 438.699219 175.738281 441.328125 176.25 C 443.960938 176.757812 446.332031 177.289062 448.453125 177.84375 C 450.550781 178.386719 452.234375 179.054688 453.472656 179.859375 C 454.707031 180.640625 455.355469 181.683594 455.375 182.960938 C 455.375 184.253906 454.921875 185.371094 454.023438 186.292969 C 453.140625 187.234375 451.863281 187.9375 450.214844 188.449219 C 448.566406 188.941406 446.601562 189.195312 444.308594 189.195312 C 440.703125 189.175781 437.328125 188.707031 434.234375 187.765625 C 431.109375 186.84375 428.285156 185.589844 425.757812 184.039062 C 423.222656 182.46875 421.007812 180.742188 419.125 178.839844 L 408.414062 194.613281 C 411.039062 197.101562 414.046875 199.28125 417.414062 201.144531 C 420.8125 203.007812 424.632812 204.460938 428.910156 205.496094 C 433.191406 206.539062 437.972656 207.070312 443.253906 207.082031 Z M 610.558594 125.871094 L 610.558594 143.765625 C 607.34375 143.792969 604.417969 144.363281 601.808594 145.515625 C 599.175781 146.652344 596.925781 148.257812 595.0625 150.316406 C 593.175781 152.355469 591.730469 154.769531 590.730469 157.515625 C 589.707031 160.265625 589.214844 163.246094 589.195312 166.480469 C 589.214844 169.675781 589.707031 172.644531 590.730469 175.386719 C 591.730469 178.132812 593.175781 180.546875 595.0625 182.605469 C 596.925781 184.664062 599.175781 186.269531 601.808594 187.429688 C 604.417969 188.578125 607.34375 189.171875 610.558594 189.195312 L 610.558594 207.082031 C 604.539062 207.0625 599.007812 206.0625 593.925781 204.105469 C 588.824219 202.144531 584.390625 199.355469 580.605469 195.75 C 576.816406 192.136719 573.878906 187.859375 571.800781 182.902344 C 569.699219 177.957031 568.636719 172.480469 568.597656 166.480469 C 568.636719 160.480469 569.699219 155.003906 571.800781 150.0625 C 573.878906 145.097656 576.816406 140.824219 580.605469 137.214844 C 584.390625 133.601562 588.824219 130.816406 593.925781 128.859375 C 599.007812 126.902344 604.539062 125.898438 610.558594 125.871094 Z M 558.472656 205.671875 L 558.472656 127.171875 L 538.234375 127.171875 L 538.234375 156.59375 L 505.628906 156.59375 L 505.628906 127.171875 L 485.390625 127.171875 L 485.390625 205.671875 L 505.628906 205.671875 L 505.628906 174.25 L 538.234375 174.25 L 538.234375 205.671875 L 558.472656 205.671875 " fill-opacity="1" fill-rule="nonzero"/><path fill="#0061a2" d="M 579.636719 445.132812 C 582.003906 443.761719 585.03125 444.570312 586.402344 446.929688 C 587.769531 449.296875 586.960938 452.324219 584.601562 453.695312 L 500.605469 502.191406 C 498.242188 503.554688 495.214844 502.746094 493.84375 500.386719 C 492.480469 498.019531 493.285156 494.992188 495.648438 493.625 L 579.636719 445.132812 " fill-opacity="1" fill-rule="nonzero"/><path fill="#0061a2" d="M 512.476562 454.429688 C 514.84375 453.058594 517.871094 453.871094 519.246094 456.234375 C 520.609375 458.59375 519.800781 461.621094 517.441406 462.992188 L 464.777344 493.398438 C 462.417969 494.769531 459.390625 493.957031 458.019531 491.59375 C 456.652344 489.226562 457.453125 486.199219 459.820312 484.835938 L 512.476562 454.429688 " fill-opacity="1" fill-rule="nonzero"/></svg>