<svg xmlns="http://www.w3.org/2000/svg" xmlns:xlink="http://www.w3.org/1999/xlink" width="1000" zoomAndPan="magnify" viewBox="0 0 750 599.999999" height="800" preserveAspectRatio="xMidYMid meet" version="1.0"><defs><clipPath id="4cc22a5ad2"><path d="M 139.238281 21.222656 L 653.738281 21.222656 L 653.738281 578.472656 L 139.238281 578.472656 Z M 139.238281 21.222656 " clip-rule="nonzero"/></clipPath><clipPath id="140fa8f6d8"><path d="M 460.789062 155.167969 L 616.039062 155.167969 L 616.039062 296.917969 L 460.789062 296.917969 Z M 460.789062 155.167969 " clip-rule="nonzero"/></clipPath></defs><g clip-path="url(#4cc22a5ad2)"><path fill="#0061a2" d="M 637.585938 21.222656 L 155.234375 21.222656 C 146.503906 21.222656 139.40625 28.316406 139.40625 37.039062 L 139.40625 306.523438 C 139.40625 315.242188 146.503906 322.339844 155.234375 322.339844 L 218.175781 322.339844 L 218.175781 369.921875 C 218.175781 369.964844 218.226562 369.992188 218.226562 370.035156 C 199.082031 393.964844 199.335938 426.167969 219.378906 457.6875 L 252.960938 516.019531 L 255.789062 521.367188 C 262.304688 533.539062 266.601562 541.574219 266.601562 558.003906 L 266.601562 569.78125 C 266.601562 574.753906 270.628906 578.773438 275.59375 578.773438 C 280.554688 578.773438 284.585938 574.753906 284.585938 569.78125 L 284.585938 558.003906 C 284.585938 537.066406 278.585938 525.863281 271.648438 512.882812 L 234.757812 448.378906 C 226.492188 435.363281 210.113281 402.289062 236.230469 376.734375 L 343.046875 284.851562 C 363.824219 265.476562 383.269531 267.3125 393.296875 277.746094 C 402.828125 287.632812 404.855469 306.472656 386.578125 324.667969 L 319.273438 397.050781 C 315.945312 400.730469 316.226562 406.417969 319.898438 409.757812 C 321.617188 411.3125 323.777344 412.085938 325.9375 412.085938 C 328.378906 412.085938 330.820312 411.09375 332.605469 409.132812 L 346.402344 393.90625 C 363.84375 409.46875 369.058594 431.589844 362.121094 461.386719 C 360.996094 466.21875 364 471.054688 368.832031 472.179688 C 373.6875 473.277344 378.507812 470.300781 379.632812 465.460938 C 388.117188 429.0625 381.070312 400.5625 358.703125 380.585938 L 399.480469 337.199219 C 404.328125 332.371094 408.136719 327.382812 411.035156 322.34375 L 543.945312 322.34375 C 545.839844 418.496094 516.632812 472.03125 503.617188 490.894531 L 484.769531 518.585938 L 484.023438 519.621094 C 474.609375 532.855469 467.800781 542.410156 468.003906 558.042969 L 468.003906 569.785156 C 468.003906 574.753906 472.035156 578.777344 477 578.777344 C 481.960938 578.777344 485.992188 574.757812 485.992188 569.785156 L 485.992188 557.929688 C 485.867188 548.4375 489.566406 542.859375 498.679688 530.046875 L 518.457031 501.066406 C 532.421875 480.824219 563.824219 423.519531 561.910156 322.34375 L 637.585938 322.34375 C 646.308594 322.34375 653.402344 315.246094 653.402344 306.527344 L 653.402344 37.039062 C 653.402344 28.316406 646.308594 21.222656 637.585938 21.222656 Z M 236.160156 353.09375 L 236.160156 322.339844 L 271.910156 322.339844 Z M 635.417969 304.355469 L 417.660156 304.355469 C 420.304688 289.136719 415.542969 274.90625 406.261719 265.265625 C 390.628906 249.042969 360.363281 244.136719 331.050781 271.457031 L 292.8125 304.355469 L 157.394531 304.355469 L 157.394531 39.207031 L 635.417969 39.207031 Z M 635.417969 304.355469 " fill-opacity="1" fill-rule="nonzero"/></g><path fill="#0061a2" d="M 211.914062 150.757812 C 211.878906 150.746094 211.824219 150.746094 211.789062 150.757812 C 203.851562 150.757812 199.160156 146.558594 198.582031 138.917969 C 198.203125 133.964844 193.855469 130.199219 188.941406 130.636719 C 183.984375 131.015625 180.273438 135.335938 180.648438 140.289062 C 181.722656 154.304688 190.441406 164.402344 203.105469 167.582031 L 203.105469 173.230469 C 203.105469 178.199219 207.136719 182.222656 212.097656 182.222656 C 217.058594 182.222656 221.09375 178.199219 221.09375 173.230469 L 221.09375 167.582031 C 226.832031 166.238281 231.902344 163.707031 235.695312 159.933594 C 240.542969 155.085938 243.117188 148.773438 243.117188 141.703125 C 243.140625 132.042969 239.296875 115.277344 213.441406 111.625 C 200.601562 109.339844 200.074219 104.027344 200.613281 98.777344 C 201.648438 92.09375 209.445312 90.0625 214.214844 90.46875 C 217.394531 90.6875 222.742188 91.898438 222.820312 97.519531 C 222.890625 102.445312 226.894531 106.390625 231.8125 106.390625 C 231.847656 106.390625 231.902344 106.390625 231.9375 106.390625 C 236.90625 106.320312 240.875 102.238281 240.804688 97.273438 C 240.648438 85.535156 232.78125 76.339844 221.09375 73.429688 L 221.09375 68.554688 C 221.09375 63.585938 217.058594 59.5625 212.097656 59.5625 C 207.136719 59.5625 203.105469 63.585938 203.105469 68.554688 L 203.105469 74 C 193.285156 76.996094 184.644531 84.433594 182.773438 96.464844 C 181.703125 106.714844 183.863281 124.621094 210.613281 129.382812 C 225.164062 131.445312 225.136719 138.085938 225.128906 141.675781 C 225.128906 143.960938 224.4375 145.757812 222.988281 147.199219 C 220.722656 149.464844 216.707031 150.757812 211.914062 150.757812 Z M 211.914062 150.757812 " fill-opacity="1" fill-rule="nonzero"/><path fill="#0061a2" d="M 540.921875 178.839844 C 531.226562 171.175781 522.324219 169.375 516.105469 169.375 C 502.351562 169.375 490.304688 177.996094 484.65625 191.890625 C 478.519531 207.011719 479.660156 230.671875 501.289062 251.714844 L 534.652344 284.15625 C 536.398438 285.851562 538.65625 286.703125 540.921875 286.703125 C 543.1875 286.703125 545.453125 285.851562 547.195312 284.15625 L 580.523438 251.714844 C 602.152344 230.671875 603.292969 207.015625 597.144531 191.890625 C 591.507812 177.996094 579.46875 169.375 565.726562 169.375 C 559.503906 169.375 550.601562 171.175781 540.921875 178.839844 Z M 580.484375 198.652344 C 584.429688 208.359375 583.21875 224.007812 567.980469 238.824219 L 540.921875 265.160156 L 513.832031 238.824219 C 498.59375 224.007812 497.382812 208.359375 501.316406 198.664062 C 504.199219 191.585938 509.722656 187.359375 516.105469 187.359375 C 521.9375 187.359375 528.277344 190.769531 534.40625 197.222656 C 537.796875 200.804688 544.050781 200.804688 547.441406 197.222656 C 553.570312 190.769531 559.894531 187.359375 565.726562 187.359375 C 572.101562 187.359375 577.613281 191.582031 580.484375 198.652344 Z M 580.484375 198.652344 " fill-opacity="1" fill-rule="nonzero"/><path fill="#0061a2" d="M 281.527344 97.851562 L 576.789062 97.851562 C 581.761719 97.851562 585.78125 93.832031 585.78125 88.859375 C 585.78125 83.890625 581.761719 79.867188 576.789062 79.867188 L 281.527344 79.867188 C 276.566406 79.867188 272.535156 83.890625 272.535156 88.859375 C 272.535156 93.832031 276.566406 97.851562 281.527344 97.851562 Z M 281.527344 97.851562 " fill-opacity="1" fill-rule="nonzero"/><path fill="#0061a2" d="M 281.527344 144.378906 L 576.789062 144.378906 C 581.761719 144.378906 585.78125 140.359375 585.78125 135.386719 C 585.78125 130.417969 581.761719 126.394531 576.789062 126.394531 L 281.527344 126.394531 C 276.566406 126.394531 272.535156 130.417969 272.535156 135.386719 C 272.535156 140.359375 276.566406 144.378906 281.527344 144.378906 Z M 281.527344 144.378906 " fill-opacity="1" fill-rule="nonzero"/><path fill="#0061a2" d="M 281.527344 190.925781 L 442.847656 190.925781 C 447.816406 190.925781 451.839844 186.902344 451.839844 181.933594 C 451.839844 176.964844 447.816406 172.941406 442.847656 172.941406 L 281.527344 172.941406 C 276.566406 172.941406 272.535156 176.960938 272.535156 181.933594 C 272.535156 186.902344 276.566406 190.925781 281.527344 190.925781 Z M 281.527344 190.925781 " fill-opacity="1" fill-rule="nonzero"/><g clip-path="url(#140fa8f6d8)"><path fill="#44e3c8" d="M 637.585938 21.222656 L 155.234375 21.222656 C 146.503906 21.222656 139.40625 28.316406 139.40625 37.039062 L 139.40625 306.523438 C 139.40625 315.242188 146.503906 322.339844 155.234375 322.339844 L 218.175781 322.339844 L 218.175781 369.921875 C 218.175781 369.964844 218.226562 369.992188 218.226562 370.035156 C 199.082031 393.964844 199.335938 426.167969 219.378906 457.6875 L 252.960938 516.019531 L 255.789062 521.367188 C 262.304688 533.539062 266.601562 541.574219 266.601562 558.003906 L 266.601562 569.78125 C 266.601562 574.753906 270.628906 578.773438 275.59375 578.773438 C 280.554688 578.773438 284.585938 574.753906 284.585938 569.78125 L 284.585938 558.003906 C 284.585938 537.066406 278.585938 525.863281 271.648438 512.882812 L 234.757812 448.378906 C 226.492188 435.363281 210.113281 402.289062 236.230469 376.734375 L 343.046875 284.851562 C 363.824219 265.476562 383.269531 267.3125 393.296875 277.746094 C 402.828125 287.632812 404.855469 306.472656 386.578125 324.667969 L 319.273438 397.050781 C 315.945312 400.730469 316.226562 406.417969 319.898438 409.757812 C 321.617188 411.3125 323.777344 412.085938 325.9375 412.085938 C 328.378906 412.085938 330.820312 411.09375 332.605469 409.132812 L 346.402344 393.90625 C 363.84375 409.46875 369.058594 431.589844 362.121094 461.386719 C 360.996094 466.21875 364 471.054688 368.832031 472.179688 C 373.6875 473.277344 378.507812 470.300781 379.632812 465.460938 C 388.117188 429.0625 381.070312 400.5625 358.703125 380.585938 L 399.480469 337.199219 C 404.328125 332.371094 408.136719 327.382812 411.035156 322.34375 L 543.945312 322.34375 C 545.839844 418.496094 516.632812 472.03125 503.617188 490.894531 L 484.769531 518.585938 L 484.023438 519.621094 C 474.609375 532.855469 467.800781 542.410156 468.003906 558.042969 L 468.003906 569.785156 C 468.003906 574.753906 472.035156 578.777344 477 578.777344 C 481.960938 578.777344 485.992188 574.757812 485.992188 569.785156 L 485.992188 557.929688 C 485.867188 548.4375 489.566406 542.859375 498.679688 530.046875 L 518.457031 501.066406 C 532.421875 480.824219 563.824219 423.519531 561.910156 322.34375 L 637.585938 322.34375 C 646.308594 322.34375 653.402344 315.246094 653.402344 306.527344 L 653.402344 37.039062 C 653.402344 28.316406 646.308594 21.222656 637.585938 21.222656 Z M 236.160156 353.09375 L 236.160156 322.339844 L 271.910156 322.339844 Z M 635.417969 304.355469 L 417.660156 304.355469 C 420.304688 289.136719 415.542969 274.90625 406.261719 265.265625 C 390.628906 249.042969 360.363281 244.136719 331.050781 271.457031 L 292.8125 304.355469 L 157.394531 304.355469 L 157.394531 39.207031 L 635.417969 39.207031 Z M 635.417969 304.355469 " fill-opacity="1" fill-rule="nonzero"/></g><path fill="#44e3c8" d="M 540.921875 178.839844 C 531.226562 171.175781 522.324219 169.375 516.105469 169.375 C 502.351562 169.375 490.304688 177.996094 484.65625 191.890625 C 478.519531 207.011719 479.660156 230.671875 501.289062 251.714844 L 534.652344 284.15625 C 536.398438 285.851562 538.65625 286.703125 540.921875 286.703125 C 543.1875 286.703125 545.453125 285.851562 547.195312 284.15625 L 580.523438 251.714844 C 602.152344 230.671875 603.292969 207.015625 597.144531 191.890625 C 591.507812 177.996094 579.46875 169.375 565.726562 169.375 C 559.503906 169.375 550.601562 171.175781 540.921875 178.839844 Z M 580.484375 198.652344 C 584.429688 208.359375 583.21875 224.007812 567.980469 238.824219 L 540.921875 265.160156 L 513.832031 238.824219 C 498.59375 224.007812 497.382812 208.359375 501.316406 198.664062 C 504.199219 191.585938 509.722656 187.359375 516.105469 187.359375 C 521.9375 187.359375 528.277344 190.769531 534.40625 197.222656 C 537.796875 200.804688 544.050781 200.804688 547.441406 197.222656 C 553.570312 190.769531 559.894531 187.359375 565.726562 187.359375 C 572.101562 187.359375 577.613281 191.582031 580.484375 198.652344 Z M 580.484375 198.652344 " fill-opacity="1" fill-rule="nonzero"/></svg>