<svg xmlns="http://www.w3.org/2000/svg" xmlns:xlink="http://www.w3.org/1999/xlink" width="1000" zoomAndPan="magnify" viewBox="0 0 750 599.999999" height="800" preserveAspectRatio="xMidYMid meet" version="1.0"><defs><clipPath id="1f79e88395"><path d="M 93.320312 33.082031 L 664.820312 33.082031 L 664.820312 573 L 93.320312 573 Z M 93.320312 33.082031 " clip-rule="nonzero"/></clipPath><clipPath id="fe7e5099b7"><path d="M 121.085938 33.082031 L 664.820312 33.082031 L 664.820312 329.332031 L 121.085938 329.332031 Z M 121.085938 33.082031 " clip-rule="nonzero"/></clipPath></defs><g clip-path="url(#1f79e88395)"><path fill="#0061a2" d="M 248.394531 453.050781 C 266.308594 440.902344 278.101562 420.382812 278.101562 397.15625 C 278.101562 359.949219 247.832031 329.675781 210.621094 329.675781 C 173.410156 329.675781 143.136719 359.949219 143.136719 397.15625 C 143.136719 420.382812 154.933594 440.902344 172.84375 453.050781 C 129.632812 467.917969 97.28125 507.5 93.703125 555.191406 C 93.359375 559.765625 94.945312 564.3125 98.050781 567.664062 C 101.160156 571.011719 105.574219 572.933594 110.164062 572.933594 L 311.074219 572.933594 C 315.667969 572.933594 320.082031 571.011719 323.1875 567.660156 C 326.296875 564.3125 327.882812 559.765625 327.539062 555.191406 C 323.960938 507.5 291.605469 467.917969 248.394531 453.050781 Z M 161.046875 397.15625 C 161.046875 369.824219 183.285156 347.582031 210.621094 347.582031 C 237.953125 347.582031 260.195312 369.824219 260.195312 397.15625 C 260.195312 424.484375 237.96875 446.714844 210.648438 446.730469 C 210.636719 446.730469 210.628906 446.730469 210.621094 446.730469 C 210.609375 446.730469 210.601562 446.730469 210.589844 446.730469 C 183.269531 446.714844 161.046875 424.484375 161.046875 397.15625 Z M 111.683594 555.023438 C 116.277344 504.226562 159.429688 464.652344 210.597656 464.640625 C 210.605469 464.640625 210.613281 464.640625 210.621094 464.640625 C 210.628906 464.640625 210.636719 464.640625 210.644531 464.640625 C 261.808594 464.652344 304.964844 504.226562 309.554688 555.023438 Z M 664.417969 555.191406 C 660.839844 507.5 628.488281 467.917969 585.277344 453.050781 C 603.191406 440.902344 614.984375 420.382812 614.984375 397.15625 C 614.984375 359.949219 584.710938 329.675781 547.503906 329.675781 C 510.292969 329.675781 480.019531 359.949219 480.019531 397.15625 C 480.019531 420.382812 491.816406 440.902344 509.726562 453.050781 C 466.515625 467.917969 434.160156 507.5 430.582031 555.191406 C 430.242188 559.769531 431.824219 564.3125 434.933594 567.664062 C 438.042969 571.011719 442.457031 572.933594 447.046875 572.933594 L 647.957031 572.933594 C 652.546875 572.933594 656.960938 571.011719 660.070312 567.660156 C 663.179688 564.3125 664.761719 559.765625 664.417969 555.191406 Z M 497.925781 397.15625 C 497.925781 369.824219 520.167969 347.582031 547.5 347.582031 C 574.835938 347.582031 597.074219 369.824219 597.074219 397.15625 C 597.074219 424.484375 574.851562 446.714844 547.53125 446.730469 C 547.519531 446.730469 547.511719 446.730469 547.5 446.730469 C 547.492188 446.730469 547.480469 446.730469 547.472656 446.730469 C 520.152344 446.714844 497.925781 424.484375 497.925781 397.15625 Z M 448.566406 555.023438 C 453.15625 504.226562 496.3125 464.652344 547.480469 464.640625 C 547.488281 464.640625 547.492188 464.640625 547.5 464.640625 C 547.507812 464.640625 547.515625 464.640625 547.523438 464.640625 C 598.691406 464.652344 641.84375 504.226562 646.4375 555.023438 Z M 441.792969 291.773438 L 486.59375 326.238281 C 488.800781 327.933594 491.4375 328.796875 494.09375 328.796875 C 496.207031 328.796875 498.332031 328.25 500.253906 327.140625 C 504.585938 324.640625 506.960938 319.816406 506.300781 314.855469 L 498.847656 258.789062 C 523.925781 234.125 538.214844 200.183594 538.214844 164.917969 C 538.214844 92.339844 479.171875 33.292969 406.59375 33.292969 C 397.308594 33.292969 388.054688 34.28125 379.046875 36.195312 C 370.167969 34.300781 360.964844 33.292969 351.527344 33.292969 C 278.953125 33.292969 219.90625 92.339844 219.90625 164.917969 C 219.90625 200.183594 234.195312 234.125 259.273438 258.789062 L 251.820312 314.855469 C 251.160156 319.816406 253.535156 324.636719 257.871094 327.140625 C 259.792969 328.25 261.914062 328.796875 264.027344 328.796875 C 266.679688 328.796875 269.320312 327.933594 271.53125 326.234375 L 316.328125 291.773438 C 327.753906 294.9375 339.574219 296.539062 351.527344 296.539062 C 360.964844 296.539062 370.167969 295.535156 379.046875 293.636719 C 388.054688 295.554688 397.308594 296.539062 406.59375 296.539062 C 418.546875 296.539062 430.367188 294.9375 441.792969 291.773438 Z M 317.191406 273.351562 C 314.402344 272.46875 311.351562 273.007812 309.03125 274.792969 L 271.355469 303.777344 L 277.625 256.621094 C 278.011719 253.71875 276.953125 250.8125 274.792969 248.835938 C 251.292969 227.335938 237.8125 196.75 237.8125 164.917969 C 237.8125 102.214844 288.824219 51.203125 351.527344 51.203125 C 414.230469 51.203125 465.242188 102.214844 465.242188 164.917969 C 465.242188 227.621094 414.230469 278.632812 351.527344 278.632812 C 339.816406 278.632812 328.265625 276.855469 317.191406 273.351562 Z M 483.152344 164.917969 C 483.152344 116.929688 457.332031 74.867188 418.863281 51.867188 C 475.816406 58.007812 520.308594 106.359375 520.308594 164.917969 C 520.308594 196.75 506.828125 227.335938 483.328125 248.835938 C 481.167969 250.8125 480.109375 253.71875 480.496094 256.621094 L 486.761719 303.777344 L 449.089844 274.792969 C 446.769531 273.007812 443.722656 272.46875 440.929688 273.351562 C 433.75 275.625 426.367188 277.15625 418.871094 277.964844 C 457.335938 254.960938 483.152344 212.898438 483.152344 164.917969 Z M 432.691406 209.464844 C 432.691406 214.410156 428.683594 218.417969 423.738281 218.417969 L 279.320312 218.417969 C 274.375 218.417969 270.363281 214.410156 270.363281 209.464844 C 270.363281 204.519531 274.375 200.511719 279.320312 200.511719 L 423.738281 200.511719 C 428.683594 200.511719 432.691406 204.519531 432.691406 209.464844 Z M 270.363281 164.917969 C 270.363281 159.972656 274.375 155.964844 279.320312 155.964844 L 423.738281 155.964844 C 428.683594 155.964844 432.691406 159.972656 432.691406 164.917969 C 432.691406 169.863281 428.683594 173.871094 423.738281 173.871094 L 279.320312 173.871094 C 274.375 173.871094 270.363281 169.863281 270.363281 164.917969 Z M 270.363281 120.371094 C 270.363281 115.425781 274.375 111.417969 279.320312 111.417969 L 423.738281 111.417969 C 428.683594 111.417969 432.691406 115.425781 432.691406 120.371094 C 432.691406 125.316406 428.683594 129.328125 423.738281 129.328125 L 279.320312 129.328125 C 274.375 129.328125 270.363281 125.316406 270.363281 120.371094 Z M 270.363281 120.371094 " fill-opacity="1" fill-rule="nonzero"/></g><g clip-path="url(#fe7e5099b7)"><path fill="#34e4cb" d="M 248.394531 453.050781 C 266.308594 440.902344 278.101562 420.382812 278.101562 397.15625 C 278.101562 359.949219 247.832031 329.675781 210.621094 329.675781 C 173.410156 329.675781 143.136719 359.949219 143.136719 397.15625 C 143.136719 420.382812 154.933594 440.902344 172.84375 453.050781 C 129.632812 467.917969 97.28125 507.5 93.703125 555.191406 C 93.359375 559.765625 94.945312 564.3125 98.050781 567.664062 C 101.160156 571.011719 105.574219 572.933594 110.164062 572.933594 L 311.074219 572.933594 C 315.667969 572.933594 320.082031 571.011719 323.1875 567.660156 C 326.296875 564.3125 327.882812 559.765625 327.539062 555.191406 C 323.960938 507.5 291.605469 467.917969 248.394531 453.050781 Z M 161.046875 397.15625 C 161.046875 369.824219 183.285156 347.582031 210.621094 347.582031 C 237.953125 347.582031 260.195312 369.824219 260.195312 397.15625 C 260.195312 424.484375 237.96875 446.714844 210.648438 446.730469 C 210.636719 446.730469 210.628906 446.730469 210.621094 446.730469 C 210.609375 446.730469 210.601562 446.730469 210.589844 446.730469 C 183.269531 446.714844 161.046875 424.484375 161.046875 397.15625 Z M 111.683594 555.023438 C 116.277344 504.226562 159.429688 464.652344 210.597656 464.640625 C 210.605469 464.640625 210.613281 464.640625 210.621094 464.640625 C 210.628906 464.640625 210.636719 464.640625 210.644531 464.640625 C 261.808594 464.652344 304.964844 504.226562 309.554688 555.023438 Z M 664.417969 555.191406 C 660.839844 507.5 628.488281 467.917969 585.277344 453.050781 C 603.191406 440.902344 614.984375 420.382812 614.984375 397.15625 C 614.984375 359.949219 584.710938 329.675781 547.503906 329.675781 C 510.292969 329.675781 480.019531 359.949219 480.019531 397.15625 C 480.019531 420.382812 491.816406 440.902344 509.726562 453.050781 C 466.515625 467.917969 434.160156 507.5 430.582031 555.191406 C 430.242188 559.769531 431.824219 564.3125 434.933594 567.664062 C 438.042969 571.011719 442.457031 572.933594 447.046875 572.933594 L 647.957031 572.933594 C 652.546875 572.933594 656.960938 571.011719 660.070312 567.660156 C 663.179688 564.3125 664.761719 559.765625 664.417969 555.191406 Z M 497.925781 397.15625 C 497.925781 369.824219 520.167969 347.582031 547.5 347.582031 C 574.835938 347.582031 597.074219 369.824219 597.074219 397.15625 C 597.074219 424.484375 574.851562 446.714844 547.53125 446.730469 C 547.519531 446.730469 547.511719 446.730469 547.5 446.730469 C 547.492188 446.730469 547.480469 446.730469 547.472656 446.730469 C 520.152344 446.714844 497.925781 424.484375 497.925781 397.15625 Z M 448.566406 555.023438 C 453.15625 504.226562 496.3125 464.652344 547.480469 464.640625 C 547.488281 464.640625 547.492188 464.640625 547.5 464.640625 C 547.507812 464.640625 547.515625 464.640625 547.523438 464.640625 C 598.691406 464.652344 641.84375 504.226562 646.4375 555.023438 Z M 441.792969 291.773438 L 486.59375 326.238281 C 488.800781 327.933594 491.4375 328.796875 494.09375 328.796875 C 496.207031 328.796875 498.332031 328.25 500.253906 327.140625 C 504.585938 324.640625 506.960938 319.816406 506.300781 314.855469 L 498.847656 258.789062 C 523.925781 234.125 538.214844 200.183594 538.214844 164.917969 C 538.214844 92.339844 479.171875 33.292969 406.59375 33.292969 C 397.308594 33.292969 388.054688 34.28125 379.046875 36.195312 C 370.167969 34.300781 360.964844 33.292969 351.527344 33.292969 C 278.953125 33.292969 219.90625 92.339844 219.90625 164.917969 C 219.90625 200.183594 234.195312 234.125 259.273438 258.789062 L 251.820312 314.855469 C 251.160156 319.816406 253.535156 324.636719 257.871094 327.140625 C 259.792969 328.25 261.914062 328.796875 264.027344 328.796875 C 266.679688 328.796875 269.320312 327.933594 271.53125 326.234375 L 316.328125 291.773438 C 327.753906 294.9375 339.574219 296.539062 351.527344 296.539062 C 360.964844 296.539062 370.167969 295.535156 379.046875 293.636719 C 388.054688 295.554688 397.308594 296.539062 406.59375 296.539062 C 418.546875 296.539062 430.367188 294.9375 441.792969 291.773438 Z M 317.191406 273.351562 C 314.402344 272.46875 311.351562 273.007812 309.03125 274.792969 L 271.355469 303.777344 L 277.625 256.621094 C 278.011719 253.71875 276.953125 250.8125 274.792969 248.835938 C 251.292969 227.335938 237.8125 196.75 237.8125 164.917969 C 237.8125 102.214844 288.824219 51.203125 351.527344 51.203125 C 414.230469 51.203125 465.242188 102.214844 465.242188 164.917969 C 465.242188 227.621094 414.230469 278.632812 351.527344 278.632812 C 339.816406 278.632812 328.265625 276.855469 317.191406 273.351562 Z M 483.152344 164.917969 C 483.152344 116.929688 457.332031 74.867188 418.863281 51.867188 C 475.816406 58.007812 520.308594 106.359375 520.308594 164.917969 C 520.308594 196.75 506.828125 227.335938 483.328125 248.835938 C 481.167969 250.8125 480.109375 253.71875 480.496094 256.621094 L 486.761719 303.777344 L 449.089844 274.792969 C 446.769531 273.007812 443.722656 272.46875 440.929688 273.351562 C 433.75 275.625 426.367188 277.15625 418.871094 277.964844 C 457.335938 254.960938 483.152344 212.898438 483.152344 164.917969 Z M 432.691406 209.464844 C 432.691406 214.410156 428.683594 218.417969 423.738281 218.417969 L 279.320312 218.417969 C 274.375 218.417969 270.363281 214.410156 270.363281 209.464844 C 270.363281 204.519531 274.375 200.511719 279.320312 200.511719 L 423.738281 200.511719 C 428.683594 200.511719 432.691406 204.519531 432.691406 209.464844 Z M 270.363281 164.917969 C 270.363281 159.972656 274.375 155.964844 279.320312 155.964844 L 423.738281 155.964844 C 428.683594 155.964844 432.691406 159.972656 432.691406 164.917969 C 432.691406 169.863281 428.683594 173.871094 423.738281 173.871094 L 279.320312 173.871094 C 274.375 173.871094 270.363281 169.863281 270.363281 164.917969 Z M 270.363281 120.371094 C 270.363281 115.425781 274.375 111.417969 279.320312 111.417969 L 423.738281 111.417969 C 428.683594 111.417969 432.691406 115.425781 432.691406 120.371094 C 432.691406 125.316406 428.683594 129.328125 423.738281 129.328125 L 279.320312 129.328125 C 274.375 129.328125 270.363281 125.316406 270.363281 120.371094 Z M 270.363281 120.371094 " fill-opacity="1" fill-rule="nonzero"/></g></svg>