<svg xmlns="http://www.w3.org/2000/svg" xmlns:xlink="http://www.w3.org/1999/xlink" width="1000" zoomAndPan="magnify" viewBox="0 0 750 599.999999" height="800" preserveAspectRatio="xMidYMid meet" version="1.0"><defs><clipPath id="34c001ee98"><path d="M 227 47.398438 L 641 47.398438 L 641 329 L 227 329 Z M 227 47.398438 " clip-rule="nonzero"/></clipPath><clipPath id="21d7501e89"><path d="M 238 340 L 673.5625 340 L 673.5625 541 L 238 541 Z M 238 340 " clip-rule="nonzero"/></clipPath><clipPath id="d93b121f28"><path d="M 117 466 L 168 466 L 168 583.765625 L 117 583.765625 Z M 117 466 " clip-rule="nonzero"/></clipPath><clipPath id="0a567c6299"><path d="M 176 466 L 227 466 L 227 583.765625 L 176 583.765625 Z M 176 466 " clip-rule="nonzero"/></clipPath><clipPath id="0d946daa6c"><path d="M 246.695312 141.835938 L 625.472656 141.835938 L 625.472656 205.445312 L 246.695312 205.445312 Z M 246.695312 141.835938 " clip-rule="nonzero"/></clipPath><clipPath id="e2407422e3"><path d="M 245.265625 71.847656 L 625.492188 71.847656 L 625.492188 126.785156 L 245.265625 126.785156 Z M 245.265625 71.847656 " clip-rule="nonzero"/></clipPath><clipPath id="902bc40442"><path d="M 305.253906 220.867188 L 601.628906 220.867188 L 601.628906 281.585938 L 305.253906 281.585938 Z M 305.253906 220.867188 " clip-rule="nonzero"/></clipPath><clipPath id="f73b15018e"><path d="M 362.382812 302.277344 L 612.496094 302.277344 L 612.496094 329 L 362.382812 329 Z M 362.382812 302.277344 " clip-rule="nonzero"/></clipPath></defs><g clip-path="url(#34c001ee98)"><path fill="#0061a2" d="M 249.167969 215.972656 L 626.96875 215.972656 L 626.96875 285.046875 L 280.28125 285.046875 C 280.867188 287.671875 281.417969 290.363281 281.953125 293.101562 L 626.964844 293.101562 L 626.964844 328.277344 L 635.019531 328.277344 L 635.019531 57.46875 L 640.890625 57.46875 L 640.890625 47.398438 L 227.125 47.398438 L 227.125 57.46875 L 233 57.46875 L 233 202.714844 C 237.480469 205.285156 243.199219 209.429688 249.167969 215.972656 Z M 241.050781 207.917969 L 241.050781 138.84375 L 626.96875 138.84375 L 626.96875 207.917969 Z M 626.96875 130.792969 L 241.050781 130.792969 L 241.050781 60.65625 L 626.96875 60.65625 Z M 626.96875 130.792969 " fill-opacity="1" fill-rule="nonzero"/></g><path fill="#0061a2" d="M 257.453125 121.816406 L 271.296875 121.816406 C 273.519531 121.816406 275.324219 120.011719 275.324219 117.789062 L 275.324219 94.886719 C 275.324219 92.660156 273.519531 90.859375 271.296875 90.859375 L 269.535156 90.859375 L 269.535156 88.089844 L 272.429688 88.089844 L 272.429688 80.035156 L 256.320312 80.035156 L 256.320312 88.089844 L 259.21875 88.089844 L 259.21875 90.859375 L 257.453125 90.859375 C 255.230469 90.859375 253.425781 92.660156 253.425781 94.886719 L 253.425781 117.789062 C 253.425781 120.011719 255.230469 121.816406 257.453125 121.816406 Z M 257.453125 121.816406 " fill-opacity="1" fill-rule="nonzero"/><path fill="#0061a2" d="M 286.625 121.816406 L 300.46875 121.816406 C 302.6875 121.816406 304.492188 120.011719 304.492188 117.789062 L 304.492188 94.886719 C 304.492188 92.660156 302.6875 90.859375 300.46875 90.859375 L 298.707031 90.859375 L 298.707031 88.089844 L 301.597656 88.089844 L 301.597656 80.035156 L 285.492188 80.035156 L 285.492188 88.089844 L 288.386719 88.089844 L 288.386719 90.859375 L 286.625 90.859375 C 284.398438 90.859375 282.597656 92.660156 282.597656 94.886719 L 282.597656 117.789062 C 282.597656 120.011719 284.398438 121.816406 286.625 121.816406 Z M 286.625 121.816406 " fill-opacity="1" fill-rule="nonzero"/><path fill="#0061a2" d="M 315.796875 121.816406 L 329.636719 121.816406 C 331.863281 121.816406 333.664062 120.011719 333.664062 117.789062 L 333.664062 94.886719 C 333.664062 92.660156 331.863281 90.859375 329.636719 90.859375 L 327.875 90.859375 L 327.875 88.089844 L 330.773438 88.089844 L 330.773438 80.035156 L 314.664062 80.035156 L 314.664062 88.089844 L 317.558594 88.089844 L 317.558594 90.859375 L 315.796875 90.859375 C 313.574219 90.859375 311.769531 92.660156 311.769531 94.886719 L 311.769531 117.789062 C 311.769531 120.011719 313.570312 121.816406 315.796875 121.816406 Z M 315.796875 121.816406 " fill-opacity="1" fill-rule="nonzero"/><path fill="#0061a2" d="M 344.964844 121.816406 L 358.808594 121.816406 C 361.03125 121.816406 362.835938 120.011719 362.835938 117.789062 L 362.835938 94.886719 C 362.835938 92.660156 361.03125 90.859375 358.808594 90.859375 L 357.046875 90.859375 L 357.046875 88.089844 L 359.941406 88.089844 L 359.941406 80.035156 L 343.835938 80.035156 L 343.835938 88.089844 L 346.730469 88.089844 L 346.730469 90.859375 L 344.96875 90.859375 C 342.742188 90.859375 340.941406 92.660156 340.941406 94.886719 L 340.941406 117.789062 C 340.941406 120.011719 342.742188 121.816406 344.964844 121.816406 Z M 344.964844 121.816406 " fill-opacity="1" fill-rule="nonzero"/><path fill="#0061a2" d="M 374.136719 121.816406 L 387.980469 121.816406 C 390.203125 121.816406 392.007812 120.011719 392.007812 117.789062 L 392.007812 94.886719 C 392.007812 92.660156 390.203125 90.859375 387.980469 90.859375 L 386.21875 90.859375 L 386.21875 88.089844 L 389.113281 88.089844 L 389.113281 80.035156 L 373.003906 80.035156 L 373.003906 88.089844 L 375.898438 88.089844 L 375.898438 90.859375 L 374.136719 90.859375 C 371.914062 90.859375 370.109375 92.660156 370.109375 94.886719 L 370.109375 117.789062 C 370.109375 120.011719 371.914062 121.816406 374.136719 121.816406 Z M 374.136719 121.816406 " fill-opacity="1" fill-rule="nonzero"/><path fill="#0061a2" d="M 403.3125 121.816406 L 417.15625 121.816406 C 419.378906 121.816406 421.183594 120.011719 421.183594 117.789062 L 421.183594 94.886719 C 421.183594 92.660156 419.378906 90.859375 417.15625 90.859375 L 415.394531 90.859375 L 415.394531 88.089844 L 418.289062 88.089844 L 418.289062 80.035156 L 402.179688 80.035156 L 402.179688 88.089844 L 405.078125 88.089844 L 405.078125 90.859375 L 403.316406 90.859375 C 401.089844 90.859375 399.289062 92.660156 399.289062 94.886719 L 399.289062 117.789062 C 399.285156 120.011719 401.085938 121.816406 403.3125 121.816406 Z M 403.3125 121.816406 " fill-opacity="1" fill-rule="nonzero"/><path fill="#0061a2" d="M 432.480469 121.816406 L 446.320312 121.816406 C 448.546875 121.816406 450.347656 120.011719 450.347656 117.789062 L 450.347656 94.886719 C 450.347656 92.660156 448.546875 90.859375 446.320312 90.859375 L 444.558594 90.859375 L 444.558594 88.089844 L 447.457031 88.089844 L 447.457031 80.035156 L 431.347656 80.035156 L 431.347656 88.089844 L 434.242188 88.089844 L 434.242188 90.859375 L 432.480469 90.859375 C 430.257812 90.859375 428.453125 92.660156 428.453125 94.886719 L 428.453125 117.789062 C 428.453125 120.011719 430.257812 121.816406 432.480469 121.816406 Z M 432.480469 121.816406 " fill-opacity="1" fill-rule="nonzero"/><path fill="#0061a2" d="M 461.652344 121.816406 L 475.492188 121.816406 C 477.71875 121.816406 479.519531 120.011719 479.519531 117.789062 L 479.519531 94.886719 C 479.519531 92.660156 477.71875 90.859375 475.492188 90.859375 L 473.730469 90.859375 L 473.730469 88.089844 L 476.625 88.089844 L 476.625 80.035156 L 460.519531 80.035156 L 460.519531 88.089844 L 463.414062 88.089844 L 463.414062 90.859375 L 461.652344 90.859375 C 459.429688 90.859375 457.625 92.660156 457.625 94.886719 L 457.625 117.789062 C 457.625 120.011719 459.429688 121.816406 461.652344 121.816406 Z M 461.652344 121.816406 " fill-opacity="1" fill-rule="nonzero"/><path fill="#0061a2" d="M 268.234375 187.671875 L 288.367188 187.671875 L 288.367188 198.746094 L 268.234375 198.746094 Z M 268.234375 187.671875 " fill-opacity="1" fill-rule="nonzero"/><path fill="#0061a2" d="M 268.234375 172.320312 L 288.367188 172.320312 L 288.367188 183.394531 L 268.234375 183.394531 Z M 268.234375 172.320312 " fill-opacity="1" fill-rule="nonzero"/><path fill="#0061a2" d="M 294.410156 187.671875 L 314.542969 187.671875 L 314.542969 198.746094 L 294.410156 198.746094 Z M 294.410156 187.671875 " fill-opacity="1" fill-rule="nonzero"/><path fill="#0061a2" d="M 294.410156 172.320312 L 314.542969 172.320312 L 314.542969 183.394531 L 294.410156 183.394531 Z M 294.410156 172.320312 " fill-opacity="1" fill-rule="nonzero"/><path fill="#0061a2" d="M 294.410156 156.964844 L 314.542969 156.964844 L 314.542969 168.039062 L 294.410156 168.039062 Z M 294.410156 156.964844 " fill-opacity="1" fill-rule="nonzero"/><path fill="#0061a2" d="M 346.757812 187.671875 L 366.894531 187.671875 L 366.894531 198.746094 L 346.757812 198.746094 Z M 346.757812 187.671875 " fill-opacity="1" fill-rule="nonzero"/><path fill="#0061a2" d="M 372.933594 187.671875 L 393.066406 187.671875 L 393.066406 198.746094 L 372.933594 198.746094 Z M 372.933594 187.671875 " fill-opacity="1" fill-rule="nonzero"/><path fill="#0061a2" d="M 320.582031 187.671875 L 340.71875 187.671875 L 340.71875 198.746094 L 320.582031 198.746094 Z M 320.582031 187.671875 " fill-opacity="1" fill-rule="nonzero"/><path fill="#0061a2" d="M 320.582031 172.320312 L 340.71875 172.320312 L 340.71875 183.394531 L 320.582031 183.394531 Z M 320.582031 172.320312 " fill-opacity="1" fill-rule="nonzero"/><path fill="#0061a2" d="M 320.582031 156.964844 L 340.71875 156.964844 L 340.71875 168.039062 L 320.582031 168.039062 Z M 320.582031 156.964844 " fill-opacity="1" fill-rule="nonzero"/><path fill="#0061a2" d="M 544.523438 239.015625 C 542.300781 239.015625 540.496094 240.820312 540.496094 243.042969 L 540.496094 247.570312 L 555.320312 247.570312 L 555.320312 270.390625 L 540.496094 270.390625 L 540.496094 275.257812 C 540.496094 277.480469 542.300781 279.285156 544.523438 279.285156 L 580.765625 279.285156 C 582.992188 279.285156 584.792969 277.480469 584.792969 275.257812 L 584.792969 243.042969 C 584.792969 240.820312 582.992188 239.015625 580.765625 239.015625 L 579.929688 239.015625 L 579.929688 235.660156 L 580.765625 235.660156 C 582.992188 235.660156 584.792969 233.855469 584.792969 231.632812 L 584.792969 227.605469 C 584.792969 225.382812 582.992188 223.578125 580.765625 223.578125 L 544.523438 223.578125 C 542.300781 223.578125 540.496094 225.382812 540.496094 227.605469 L 540.496094 231.632812 C 540.496094 233.855469 542.300781 235.660156 544.523438 235.660156 L 545.363281 235.660156 L 545.363281 239.015625 Z M 544.523438 239.015625 " fill-opacity="1" fill-rule="nonzero"/><path fill="#0061a2" d="M 487.644531 279.285156 L 523.886719 279.285156 C 526.109375 279.285156 527.914062 277.480469 527.914062 275.257812 L 527.914062 243.042969 C 527.914062 240.820312 526.109375 239.015625 523.886719 239.015625 L 523.050781 239.015625 L 523.050781 235.660156 L 523.886719 235.660156 C 526.109375 235.660156 527.914062 233.855469 527.914062 231.632812 L 527.914062 227.605469 C 527.914062 225.382812 526.109375 223.578125 523.886719 223.578125 L 487.644531 223.578125 C 485.421875 223.578125 483.617188 225.382812 483.617188 227.605469 L 483.617188 231.632812 C 483.617188 233.855469 485.421875 235.660156 487.644531 235.660156 L 488.480469 235.660156 L 488.480469 239.015625 L 487.644531 239.015625 C 485.421875 239.015625 483.617188 240.820312 483.617188 243.042969 L 483.617188 275.257812 C 483.617188 277.480469 485.421875 279.285156 487.644531 279.285156 Z M 515.722656 270.390625 L 489.550781 270.390625 L 489.550781 247.570312 L 515.722656 247.570312 Z M 515.722656 270.390625 " fill-opacity="1" fill-rule="nonzero"/><path fill="#0061a2" d="M 429.253906 279.285156 L 465.496094 279.285156 C 467.722656 279.285156 469.523438 277.480469 469.523438 275.257812 L 469.523438 243.042969 C 469.523438 240.820312 467.722656 239.015625 465.496094 239.015625 L 464.660156 239.015625 L 464.660156 235.660156 L 465.496094 235.660156 C 467.722656 235.660156 469.523438 233.855469 469.523438 231.632812 L 469.523438 227.605469 C 469.523438 225.382812 467.722656 223.578125 465.496094 223.578125 L 429.253906 223.578125 C 427.03125 223.578125 425.226562 225.382812 425.226562 227.605469 L 425.226562 231.632812 C 425.226562 233.855469 427.03125 235.660156 429.253906 235.660156 L 430.089844 235.660156 L 430.089844 239.015625 L 429.253906 239.015625 C 427.03125 239.015625 425.226562 240.820312 425.226562 243.042969 L 425.226562 275.257812 C 425.226562 277.480469 427.03125 279.285156 429.253906 279.285156 Z M 465.890625 247.570312 L 465.890625 270.390625 L 439.714844 270.390625 L 439.714844 247.570312 Z M 465.890625 247.570312 " fill-opacity="1" fill-rule="nonzero"/><path fill="#0061a2" d="M 371.871094 279.285156 L 408.113281 279.285156 C 410.335938 279.285156 412.140625 277.480469 412.140625 275.257812 L 412.140625 243.042969 C 412.140625 240.820312 410.335938 239.015625 408.113281 239.015625 L 407.273438 239.015625 L 407.273438 235.660156 L 408.113281 235.660156 C 410.335938 235.660156 412.140625 233.855469 412.140625 231.632812 L 412.140625 227.605469 C 412.140625 225.382812 410.335938 223.578125 408.113281 223.578125 L 371.871094 223.578125 C 369.648438 223.578125 367.84375 225.382812 367.84375 227.605469 L 367.84375 231.632812 C 367.84375 233.855469 369.648438 235.660156 371.871094 235.660156 L 372.707031 235.660156 L 372.707031 239.015625 L 371.871094 239.015625 C 369.648438 239.015625 367.84375 240.820312 367.84375 243.042969 L 367.84375 275.257812 C 367.84375 277.480469 369.648438 279.285156 371.871094 279.285156 Z M 401.964844 270.390625 L 375.789062 270.390625 L 375.789062 247.570312 L 401.964844 247.570312 Z M 401.964844 270.390625 " fill-opacity="1" fill-rule="nonzero"/><path fill="#0061a2" d="M 488.039062 174.585938 L 513.039062 174.585938 L 513.039062 199.585938 L 488.039062 199.585938 Z M 488.039062 174.585938 " fill-opacity="1" fill-rule="nonzero"/><path fill="#0061a2" d="M 488.039062 144.886719 L 513.039062 144.886719 L 513.039062 169.886719 L 488.039062 169.886719 Z M 488.039062 144.886719 " fill-opacity="1" fill-rule="nonzero"/><path fill="#0061a2" d="M 520.003906 174.585938 L 545 174.585938 L 545 199.585938 L 520.003906 199.585938 Z M 520.003906 174.585938 " fill-opacity="1" fill-rule="nonzero"/><path fill="#0061a2" d="M 520.003906 144.886719 L 545 144.886719 L 545 169.886719 L 520.003906 169.886719 Z M 520.003906 144.886719 " fill-opacity="1" fill-rule="nonzero"/><path fill="#0061a2" d="M 551.964844 174.585938 L 576.964844 174.585938 L 576.964844 199.585938 L 551.964844 199.585938 Z M 551.964844 174.585938 " fill-opacity="1" fill-rule="nonzero"/><path fill="#0061a2" d="M 456.074219 174.585938 L 481.074219 174.585938 L 481.074219 199.585938 L 456.074219 199.585938 Z M 456.074219 174.585938 " fill-opacity="1" fill-rule="nonzero"/><path fill="#0061a2" d="M 583.929688 174.585938 L 608.929688 174.585938 L 608.929688 199.585938 L 583.929688 199.585938 Z M 583.929688 174.585938 " fill-opacity="1" fill-rule="nonzero"/><path fill="#0061a2" d="M 482.332031 309.988281 L 500.453125 309.988281 L 500.453125 328.273438 L 482.332031 328.273438 Z M 482.332031 309.988281 " fill-opacity="1" fill-rule="nonzero"/><path fill="#0061a2" d="M 507.839844 309.988281 L 525.960938 309.988281 L 525.960938 328.273438 L 507.839844 328.273438 Z M 507.839844 309.988281 " fill-opacity="1" fill-rule="nonzero"/><path fill="#0061a2" d="M 533.339844 309.988281 L 551.460938 309.988281 L 551.460938 328.273438 L 533.339844 328.273438 Z M 533.339844 309.988281 " fill-opacity="1" fill-rule="nonzero"/><path fill="#0061a2" d="M 558.84375 309.988281 L 576.964844 309.988281 L 576.964844 328.273438 L 558.84375 328.273438 Z M 558.84375 309.988281 " fill-opacity="1" fill-rule="nonzero"/><path fill="#0061a2" d="M 584.351562 309.988281 L 602.472656 309.988281 L 602.472656 328.273438 L 584.351562 328.273438 Z M 584.351562 309.988281 " fill-opacity="1" fill-rule="nonzero"/><path fill="#0061a2" d="M 511.527344 121.816406 L 540.390625 121.816406 L 540.390625 104.199219 L 542.0625 104.199219 L 542.0625 96.144531 L 509.847656 96.144531 L 509.847656 104.199219 L 511.527344 104.199219 Z M 511.527344 121.816406 " fill-opacity="1" fill-rule="nonzero"/><path fill="#0061a2" d="M 547.519531 121.816406 L 576.378906 121.816406 L 576.378906 104.199219 L 578.054688 104.199219 L 578.054688 96.144531 L 545.839844 96.144531 L 545.839844 104.199219 L 547.519531 104.199219 Z M 547.519531 121.816406 " fill-opacity="1" fill-rule="nonzero"/><path fill="#0061a2" d="M 584.265625 121.816406 L 613.125 121.816406 L 613.125 104.199219 L 614.800781 104.199219 L 614.800781 96.144531 L 582.585938 96.144531 L 582.585938 104.199219 L 584.265625 104.199219 Z M 584.265625 121.816406 " fill-opacity="1" fill-rule="nonzero"/><path fill="#0061a2" d="M 368.542969 316.867188 L 463.847656 316.867188 L 463.847656 328.273438 L 368.542969 328.273438 Z M 368.542969 316.867188 " fill-opacity="1" fill-rule="nonzero"/><g clip-path="url(#21d7501e89)"><path fill="#0061a2" d="M 288.160156 340.359375 C 289.375 355.605469 290.066406 372.074219 290.226562 389.828125 C 290.335938 403.804688 280.214844 415.472656 266.890625 417.804688 C 267.980469 431.800781 268.636719 444.996094 268.636719 456.515625 L 268.636719 464.550781 L 261.226562 467.65625 C 254.96875 470.28125 247.261719 472.960938 238.527344 475.398438 L 238.527344 540.695312 L 663.179688 540.695312 L 663.179688 354.566406 L 673.246094 354.566406 L 673.246094 340.359375 Z M 288.160156 340.359375 " fill-opacity="1" fill-rule="nonzero"/></g><g clip-path="url(#d93b121f28)"><path fill="#0061a2" d="M 167.328125 472.550781 C 149.792969 472.152344 132.542969 469.566406 117.535156 466.011719 L 117.535156 558.695312 C 117.535156 572.449219 128.683594 583.585938 142.429688 583.585938 C 153.0625 583.585938 162.113281 576.910156 165.683594 567.527344 C 166.730469 564.777344 167.324219 561.808594 167.324219 558.695312 L 167.324219 472.550781 Z M 167.328125 472.550781 " fill-opacity="1" fill-rule="nonzero"/></g><g clip-path="url(#0a567c6299)"><path fill="#0061a2" d="M 226.449219 466.011719 C 211.445312 469.566406 194.195312 472.152344 176.660156 472.550781 L 176.660156 558.695312 C 176.660156 572.449219 187.808594 583.585938 201.554688 583.585938 C 215.300781 583.585938 226.449219 572.449219 226.449219 558.695312 Z M 226.449219 466.011719 " fill-opacity="1" fill-rule="nonzero"/></g><path fill="#0061a2" d="M 81.945312 406.175781 C 85.070312 406.179688 87.984375 405.273438 90.457031 403.726562 C 91.34375 394.429688 92.382812 384.914062 93.515625 375.414062 C 91.175781 375.050781 88.527344 374.613281 85.765625 374.09375 C 79.066406 372.804688 71.792969 371.144531 66.296875 368.84375 C 66.054688 375.582031 65.898438 382.597656 65.835938 389.933594 C 65.773438 397.558594 71.023438 403.976562 78.121094 405.703125 C 79.308594 405.996094 80.539062 406.167969 81.808594 406.175781 C 81.855469 406.175781 81.898438 406.175781 81.945312 406.175781 Z M 81.945312 406.175781 " fill-opacity="1" fill-rule="nonzero"/><path fill="#0061a2" d="M 86.507812 370.132812 C 89.171875 370.636719 91.726562 371.0625 93.996094 371.414062 C 100.996094 314.019531 111.070312 258.523438 111.070312 258.523438 L 115.890625 258.523438 C 112.082031 282.386719 95.171875 391.667969 95.171875 451.816406 C 112.621094 459.867188 142.152344 467.921875 171.992188 467.921875 C 201.832031 467.921875 231.359375 459.867188 248.8125 451.816406 C 248.8125 391.667969 231.90625 282.386719 228.09375 258.523438 L 232.914062 258.523438 C 232.914062 258.523438 242.992188 314.019531 249.988281 371.414062 C 252.257812 371.0625 254.8125 370.636719 257.472656 370.136719 C 264.617188 368.820312 272.605469 366.824219 277.503906 364.535156 C 274.652344 296.699219 263.078125 259.144531 249.683594 236.878906 C 242.1875 224.496094 233.835938 217.011719 226.507812 212.917969 C 221.542969 210.117188 217.214844 208.957031 214.242188 208.484375 C 213.160156 208.246094 212.039062 208.113281 210.886719 208.113281 L 197.519531 208.113281 C 197.140625 234.179688 171.992188 268.546875 171.992188 268.546875 C 171.992188 268.546875 146.839844 234.179688 146.460938 208.113281 L 133.097656 208.113281 C 131.945312 208.113281 130.824219 208.246094 129.742188 208.484375 C 126.769531 208.953125 122.441406 210.117188 117.472656 212.921875 C 106.382812 219.109375 93.4375 232.699219 83.628906 259.464844 C 75.144531 282.535156 68.507812 315.648438 66.460938 364.53125 C 71.363281 366.820312 79.359375 368.8125 86.507812 370.132812 Z M 150.632812 406.261719 L 114.730469 401.316406 L 115.832031 393.339844 L 151.734375 398.285156 Z M 193.347656 406.261719 L 192.246094 398.285156 L 228.152344 393.339844 L 229.253906 401.316406 Z M 193.347656 406.261719 " fill-opacity="1" fill-rule="nonzero"/><path fill="#0061a2" d="M 262.035156 406.175781 C 262.082031 406.175781 262.125 406.175781 262.171875 406.175781 C 271.070312 406.101562 278.21875 398.835938 278.152344 389.941406 C 278.085938 382.601562 277.921875 375.585938 277.679688 368.847656 C 272.183594 371.148438 264.914062 372.800781 258.222656 374.09375 C 255.457031 374.613281 252.8125 375.054688 250.472656 375.414062 C 251.605469 384.914062 252.640625 394.429688 253.527344 403.726562 C 256 405.269531 258.910156 406.175781 262.035156 406.175781 Z M 262.035156 406.175781 " fill-opacity="1" fill-rule="nonzero"/><path fill="#0061a2" d="M 194.804688 190.472656 C 208.253906 182.617188 217.296875 168.035156 217.296875 151.335938 C 217.296875 126.3125 197.015625 106.035156 171.992188 106.035156 C 146.972656 106.035156 126.691406 126.3125 126.691406 151.335938 C 126.691406 168.035156 135.730469 182.613281 149.179688 190.472656 C 155.878906 194.386719 163.671875 196.640625 171.992188 196.640625 C 180.3125 196.640625 188.105469 194.386719 194.804688 190.472656 Z M 194.804688 190.472656 " fill-opacity="1" fill-rule="nonzero"/><path fill="#0061a2" d="M 353.109375 253.78125 L 334.988281 253.78125 L 334.988281 239.683594 L 328.949219 239.683594 L 328.949219 253.78125 L 324.25 253.78125 L 324.25 239.683594 L 318.207031 239.683594 L 318.207031 253.78125 L 314.179688 253.78125 L 314.179688 277.269531 L 353.109375 277.269531 Z M 353.109375 253.78125 " fill-opacity="1" fill-rule="nonzero"/><g clip-path="url(#0d946daa6c)"><path fill="#34e4cb" d="M 249.167969 215.972656 L 626.96875 215.972656 L 626.96875 285.046875 L 280.28125 285.046875 C 280.867188 287.671875 281.417969 290.363281 281.953125 293.101562 L 626.964844 293.101562 L 626.964844 328.277344 L 635.019531 328.277344 L 635.019531 57.46875 L 640.890625 57.46875 L 640.890625 47.398438 L 227.125 47.398438 L 227.125 57.46875 L 233 57.46875 L 233 202.714844 C 237.480469 205.285156 243.199219 209.429688 249.167969 215.972656 Z M 241.050781 207.917969 L 241.050781 138.84375 L 626.96875 138.84375 L 626.96875 207.917969 Z M 626.96875 130.792969 L 241.050781 130.792969 L 241.050781 60.65625 L 626.96875 60.65625 Z M 626.96875 130.792969 " fill-opacity="1" fill-rule="nonzero"/></g><path fill="#34e4cb" d="M 268.234375 187.671875 L 288.367188 187.671875 L 288.367188 198.746094 L 268.234375 198.746094 Z M 268.234375 187.671875 " fill-opacity="1" fill-rule="nonzero"/><path fill="#34e4cb" d="M 268.234375 172.320312 L 288.367188 172.320312 L 288.367188 183.394531 L 268.234375 183.394531 Z M 268.234375 172.320312 " fill-opacity="1" fill-rule="nonzero"/><path fill="#34e4cb" d="M 294.410156 187.671875 L 314.542969 187.671875 L 314.542969 198.746094 L 294.410156 198.746094 Z M 294.410156 187.671875 " fill-opacity="1" fill-rule="nonzero"/><path fill="#34e4cb" d="M 294.410156 172.320312 L 314.542969 172.320312 L 314.542969 183.394531 L 294.410156 183.394531 Z M 294.410156 172.320312 " fill-opacity="1" fill-rule="nonzero"/><path fill="#34e4cb" d="M 294.410156 156.964844 L 314.542969 156.964844 L 314.542969 168.039062 L 294.410156 168.039062 Z M 294.410156 156.964844 " fill-opacity="1" fill-rule="nonzero"/><path fill="#34e4cb" d="M 346.757812 187.671875 L 366.894531 187.671875 L 366.894531 198.746094 L 346.757812 198.746094 Z M 346.757812 187.671875 " fill-opacity="1" fill-rule="nonzero"/><path fill="#34e4cb" d="M 372.933594 187.671875 L 393.066406 187.671875 L 393.066406 198.746094 L 372.933594 198.746094 Z M 372.933594 187.671875 " fill-opacity="1" fill-rule="nonzero"/><path fill="#34e4cb" d="M 320.582031 187.671875 L 340.71875 187.671875 L 340.71875 198.746094 L 320.582031 198.746094 Z M 320.582031 187.671875 " fill-opacity="1" fill-rule="nonzero"/><path fill="#34e4cb" d="M 320.582031 172.320312 L 340.71875 172.320312 L 340.71875 183.394531 L 320.582031 183.394531 Z M 320.582031 172.320312 " fill-opacity="1" fill-rule="nonzero"/><path fill="#34e4cb" d="M 320.582031 156.964844 L 340.71875 156.964844 L 340.71875 168.039062 L 320.582031 168.039062 Z M 320.582031 156.964844 " fill-opacity="1" fill-rule="nonzero"/><path fill="#34e4cb" d="M 488.039062 174.585938 L 513.039062 174.585938 L 513.039062 199.585938 L 488.039062 199.585938 Z M 488.039062 174.585938 " fill-opacity="1" fill-rule="nonzero"/><path fill="#34e4cb" d="M 488.039062 144.886719 L 513.039062 144.886719 L 513.039062 169.886719 L 488.039062 169.886719 Z M 488.039062 144.886719 " fill-opacity="1" fill-rule="nonzero"/><path fill="#34e4cb" d="M 520.003906 174.585938 L 545 174.585938 L 545 199.585938 L 520.003906 199.585938 Z M 520.003906 174.585938 " fill-opacity="1" fill-rule="nonzero"/><path fill="#34e4cb" d="M 520.003906 144.886719 L 545 144.886719 L 545 169.886719 L 520.003906 169.886719 Z M 520.003906 144.886719 " fill-opacity="1" fill-rule="nonzero"/><path fill="#34e4cb" d="M 551.964844 174.585938 L 576.964844 174.585938 L 576.964844 199.585938 L 551.964844 199.585938 Z M 551.964844 174.585938 " fill-opacity="1" fill-rule="nonzero"/><path fill="#34e4cb" d="M 456.074219 174.585938 L 481.074219 174.585938 L 481.074219 199.585938 L 456.074219 199.585938 Z M 456.074219 174.585938 " fill-opacity="1" fill-rule="nonzero"/><path fill="#34e4cb" d="M 583.929688 174.585938 L 608.929688 174.585938 L 608.929688 199.585938 L 583.929688 199.585938 Z M 583.929688 174.585938 " fill-opacity="1" fill-rule="nonzero"/><g clip-path="url(#e2407422e3)"><path fill="#34e4cb" d="M 249.167969 215.972656 L 626.96875 215.972656 L 626.96875 285.046875 L 280.28125 285.046875 C 280.867188 287.671875 281.417969 290.363281 281.953125 293.101562 L 626.964844 293.101562 L 626.964844 328.277344 L 635.019531 328.277344 L 635.019531 57.46875 L 640.890625 57.46875 L 640.890625 47.398438 L 227.125 47.398438 L 227.125 57.46875 L 233 57.46875 L 233 202.714844 C 237.480469 205.285156 243.199219 209.429688 249.167969 215.972656 Z M 241.050781 207.917969 L 241.050781 138.84375 L 626.96875 138.84375 L 626.96875 207.917969 Z M 626.96875 130.792969 L 241.050781 130.792969 L 241.050781 60.65625 L 626.96875 60.65625 Z M 626.96875 130.792969 " fill-opacity="1" fill-rule="nonzero"/></g><path fill="#34e4cb" d="M 257.453125 121.816406 L 271.296875 121.816406 C 273.519531 121.816406 275.324219 120.011719 275.324219 117.789062 L 275.324219 94.886719 C 275.324219 92.660156 273.519531 90.859375 271.296875 90.859375 L 269.535156 90.859375 L 269.535156 88.089844 L 272.429688 88.089844 L 272.429688 80.035156 L 256.320312 80.035156 L 256.320312 88.089844 L 259.21875 88.089844 L 259.21875 90.859375 L 257.453125 90.859375 C 255.230469 90.859375 253.425781 92.660156 253.425781 94.886719 L 253.425781 117.789062 C 253.425781 120.011719 255.230469 121.816406 257.453125 121.816406 Z M 257.453125 121.816406 " fill-opacity="1" fill-rule="nonzero"/><path fill="#34e4cb" d="M 286.625 121.816406 L 300.46875 121.816406 C 302.6875 121.816406 304.492188 120.011719 304.492188 117.789062 L 304.492188 94.886719 C 304.492188 92.660156 302.6875 90.859375 300.46875 90.859375 L 298.707031 90.859375 L 298.707031 88.089844 L 301.597656 88.089844 L 301.597656 80.035156 L 285.492188 80.035156 L 285.492188 88.089844 L 288.386719 88.089844 L 288.386719 90.859375 L 286.625 90.859375 C 284.398438 90.859375 282.597656 92.660156 282.597656 94.886719 L 282.597656 117.789062 C 282.597656 120.011719 284.398438 121.816406 286.625 121.816406 Z M 286.625 121.816406 " fill-opacity="1" fill-rule="nonzero"/><path fill="#34e4cb" d="M 315.796875 121.816406 L 329.636719 121.816406 C 331.863281 121.816406 333.664062 120.011719 333.664062 117.789062 L 333.664062 94.886719 C 333.664062 92.660156 331.863281 90.859375 329.636719 90.859375 L 327.875 90.859375 L 327.875 88.089844 L 330.773438 88.089844 L 330.773438 80.035156 L 314.664062 80.035156 L 314.664062 88.089844 L 317.558594 88.089844 L 317.558594 90.859375 L 315.796875 90.859375 C 313.574219 90.859375 311.769531 92.660156 311.769531 94.886719 L 311.769531 117.789062 C 311.769531 120.011719 313.570312 121.816406 315.796875 121.816406 Z M 315.796875 121.816406 " fill-opacity="1" fill-rule="nonzero"/><path fill="#34e4cb" d="M 344.964844 121.816406 L 358.808594 121.816406 C 361.03125 121.816406 362.835938 120.011719 362.835938 117.789062 L 362.835938 94.886719 C 362.835938 92.660156 361.03125 90.859375 358.808594 90.859375 L 357.046875 90.859375 L 357.046875 88.089844 L 359.941406 88.089844 L 359.941406 80.035156 L 343.835938 80.035156 L 343.835938 88.089844 L 346.730469 88.089844 L 346.730469 90.859375 L 344.96875 90.859375 C 342.742188 90.859375 340.941406 92.660156 340.941406 94.886719 L 340.941406 117.789062 C 340.941406 120.011719 342.742188 121.816406 344.964844 121.816406 Z M 344.964844 121.816406 " fill-opacity="1" fill-rule="nonzero"/><path fill="#34e4cb" d="M 374.136719 121.816406 L 387.980469 121.816406 C 390.203125 121.816406 392.007812 120.011719 392.007812 117.789062 L 392.007812 94.886719 C 392.007812 92.660156 390.203125 90.859375 387.980469 90.859375 L 386.21875 90.859375 L 386.21875 88.089844 L 389.113281 88.089844 L 389.113281 80.035156 L 373.003906 80.035156 L 373.003906 88.089844 L 375.898438 88.089844 L 375.898438 90.859375 L 374.136719 90.859375 C 371.914062 90.859375 370.109375 92.660156 370.109375 94.886719 L 370.109375 117.789062 C 370.109375 120.011719 371.914062 121.816406 374.136719 121.816406 Z M 374.136719 121.816406 " fill-opacity="1" fill-rule="nonzero"/><path fill="#34e4cb" d="M 403.3125 121.816406 L 417.15625 121.816406 C 419.378906 121.816406 421.183594 120.011719 421.183594 117.789062 L 421.183594 94.886719 C 421.183594 92.660156 419.378906 90.859375 417.15625 90.859375 L 415.394531 90.859375 L 415.394531 88.089844 L 418.289062 88.089844 L 418.289062 80.035156 L 402.179688 80.035156 L 402.179688 88.089844 L 405.078125 88.089844 L 405.078125 90.859375 L 403.316406 90.859375 C 401.089844 90.859375 399.289062 92.660156 399.289062 94.886719 L 399.289062 117.789062 C 399.285156 120.011719 401.085938 121.816406 403.3125 121.816406 Z M 403.3125 121.816406 " fill-opacity="1" fill-rule="nonzero"/><path fill="#34e4cb" d="M 432.480469 121.816406 L 446.320312 121.816406 C 448.546875 121.816406 450.347656 120.011719 450.347656 117.789062 L 450.347656 94.886719 C 450.347656 92.660156 448.546875 90.859375 446.320312 90.859375 L 444.558594 90.859375 L 444.558594 88.089844 L 447.457031 88.089844 L 447.457031 80.035156 L 431.347656 80.035156 L 431.347656 88.089844 L 434.242188 88.089844 L 434.242188 90.859375 L 432.480469 90.859375 C 430.257812 90.859375 428.453125 92.660156 428.453125 94.886719 L 428.453125 117.789062 C 428.453125 120.011719 430.257812 121.816406 432.480469 121.816406 Z M 432.480469 121.816406 " fill-opacity="1" fill-rule="nonzero"/><path fill="#34e4cb" d="M 461.652344 121.816406 L 475.492188 121.816406 C 477.71875 121.816406 479.519531 120.011719 479.519531 117.789062 L 479.519531 94.886719 C 479.519531 92.660156 477.71875 90.859375 475.492188 90.859375 L 473.730469 90.859375 L 473.730469 88.089844 L 476.625 88.089844 L 476.625 80.035156 L 460.519531 80.035156 L 460.519531 88.089844 L 463.414062 88.089844 L 463.414062 90.859375 L 461.652344 90.859375 C 459.429688 90.859375 457.625 92.660156 457.625 94.886719 L 457.625 117.789062 C 457.625 120.011719 459.429688 121.816406 461.652344 121.816406 Z M 461.652344 121.816406 " fill-opacity="1" fill-rule="nonzero"/><path fill="#34e4cb" d="M 511.527344 121.816406 L 540.390625 121.816406 L 540.390625 104.199219 L 542.0625 104.199219 L 542.0625 96.144531 L 509.847656 96.144531 L 509.847656 104.199219 L 511.527344 104.199219 Z M 511.527344 121.816406 " fill-opacity="1" fill-rule="nonzero"/><path fill="#34e4cb" d="M 547.519531 121.816406 L 576.378906 121.816406 L 576.378906 104.199219 L 578.054688 104.199219 L 578.054688 96.144531 L 545.839844 96.144531 L 545.839844 104.199219 L 547.519531 104.199219 Z M 547.519531 121.816406 " fill-opacity="1" fill-rule="nonzero"/><path fill="#34e4cb" d="M 584.265625 121.816406 L 613.125 121.816406 L 613.125 104.199219 L 614.800781 104.199219 L 614.800781 96.144531 L 582.585938 96.144531 L 582.585938 104.199219 L 584.265625 104.199219 Z M 584.265625 121.816406 " fill-opacity="1" fill-rule="nonzero"/><g clip-path="url(#902bc40442)"><path fill="#34e4cb" d="M 249.167969 215.972656 L 626.96875 215.972656 L 626.96875 285.046875 L 280.28125 285.046875 C 280.867188 287.671875 281.417969 290.363281 281.953125 293.101562 L 626.964844 293.101562 L 626.964844 328.277344 L 635.019531 328.277344 L 635.019531 57.46875 L 640.890625 57.46875 L 640.890625 47.398438 L 227.125 47.398438 L 227.125 57.46875 L 233 57.46875 L 233 202.714844 C 237.480469 205.285156 243.199219 209.429688 249.167969 215.972656 Z M 241.050781 207.917969 L 241.050781 138.84375 L 626.96875 138.84375 L 626.96875 207.917969 Z M 626.96875 130.792969 L 241.050781 130.792969 L 241.050781 60.65625 L 626.96875 60.65625 Z M 626.96875 130.792969 " fill-opacity="1" fill-rule="nonzero"/></g><path fill="#34e4cb" d="M 544.523438 239.015625 C 542.300781 239.015625 540.496094 240.820312 540.496094 243.042969 L 540.496094 247.570312 L 555.320312 247.570312 L 555.320312 270.390625 L 540.496094 270.390625 L 540.496094 275.257812 C 540.496094 277.480469 542.300781 279.285156 544.523438 279.285156 L 580.765625 279.285156 C 582.992188 279.285156 584.792969 277.480469 584.792969 275.257812 L 584.792969 243.042969 C 584.792969 240.820312 582.992188 239.015625 580.765625 239.015625 L 579.929688 239.015625 L 579.929688 235.660156 L 580.765625 235.660156 C 582.992188 235.660156 584.792969 233.855469 584.792969 231.632812 L 584.792969 227.605469 C 584.792969 225.382812 582.992188 223.578125 580.765625 223.578125 L 544.523438 223.578125 C 542.300781 223.578125 540.496094 225.382812 540.496094 227.605469 L 540.496094 231.632812 C 540.496094 233.855469 542.300781 235.660156 544.523438 235.660156 L 545.363281 235.660156 L 545.363281 239.015625 Z M 544.523438 239.015625 " fill-opacity="1" fill-rule="nonzero"/><path fill="#34e4cb" d="M 487.644531 279.285156 L 523.886719 279.285156 C 526.113281 279.285156 527.914062 277.480469 527.914062 275.257812 L 527.914062 243.042969 C 527.914062 240.820312 526.113281 239.015625 523.886719 239.015625 L 523.050781 239.015625 L 523.050781 235.660156 L 523.886719 235.660156 C 526.113281 235.660156 527.914062 233.855469 527.914062 231.632812 L 527.914062 227.605469 C 527.914062 225.382812 526.113281 223.578125 523.886719 223.578125 L 487.644531 223.578125 C 485.421875 223.578125 483.617188 225.382812 483.617188 227.605469 L 483.617188 231.632812 C 483.617188 233.855469 485.421875 235.660156 487.644531 235.660156 L 488.480469 235.660156 L 488.480469 239.015625 L 487.644531 239.015625 C 485.421875 239.015625 483.617188 240.820312 483.617188 243.042969 L 483.617188 275.257812 C 483.617188 277.480469 485.421875 279.285156 487.644531 279.285156 Z M 515.722656 270.390625 L 489.550781 270.390625 L 489.550781 247.570312 L 515.722656 247.570312 Z M 515.722656 270.390625 " fill-opacity="1" fill-rule="nonzero"/><path fill="#34e4cb" d="M 429.253906 279.285156 L 465.496094 279.285156 C 467.722656 279.285156 469.523438 277.480469 469.523438 275.257812 L 469.523438 243.042969 C 469.523438 240.820312 467.722656 239.015625 465.496094 239.015625 L 464.660156 239.015625 L 464.660156 235.660156 L 465.496094 235.660156 C 467.722656 235.660156 469.523438 233.855469 469.523438 231.632812 L 469.523438 227.605469 C 469.523438 225.382812 467.722656 223.578125 465.496094 223.578125 L 429.253906 223.578125 C 427.03125 223.578125 425.226562 225.382812 425.226562 227.605469 L 425.226562 231.632812 C 425.226562 233.855469 427.03125 235.660156 429.253906 235.660156 L 430.089844 235.660156 L 430.089844 239.015625 L 429.253906 239.015625 C 427.03125 239.015625 425.226562 240.820312 425.226562 243.042969 L 425.226562 275.257812 C 425.226562 277.480469 427.03125 279.285156 429.253906 279.285156 Z M 465.890625 247.570312 L 465.890625 270.390625 L 439.714844 270.390625 L 439.714844 247.570312 Z M 465.890625 247.570312 " fill-opacity="1" fill-rule="nonzero"/><path fill="#34e4cb" d="M 371.871094 279.285156 L 408.113281 279.285156 C 410.335938 279.285156 412.140625 277.480469 412.140625 275.257812 L 412.140625 243.042969 C 412.140625 240.820312 410.335938 239.015625 408.113281 239.015625 L 407.273438 239.015625 L 407.273438 235.660156 L 408.113281 235.660156 C 410.335938 235.660156 412.140625 233.855469 412.140625 231.632812 L 412.140625 227.605469 C 412.140625 225.382812 410.335938 223.578125 408.113281 223.578125 L 371.871094 223.578125 C 369.648438 223.578125 367.84375 225.382812 367.84375 227.605469 L 367.84375 231.632812 C 367.84375 233.855469 369.648438 235.660156 371.871094 235.660156 L 372.707031 235.660156 L 372.707031 239.015625 L 371.871094 239.015625 C 369.648438 239.015625 367.84375 240.820312 367.84375 243.042969 L 367.84375 275.257812 C 367.84375 277.480469 369.648438 279.285156 371.871094 279.285156 Z M 401.964844 270.390625 L 375.789062 270.390625 L 375.789062 247.570312 L 401.964844 247.570312 Z M 401.964844 270.390625 " fill-opacity="1" fill-rule="nonzero"/><path fill="#34e4cb" d="M 353.109375 253.78125 L 334.988281 253.78125 L 334.988281 239.683594 L 328.949219 239.683594 L 328.949219 253.78125 L 324.25 253.78125 L 324.25 239.683594 L 318.207031 239.683594 L 318.207031 253.78125 L 314.179688 253.78125 L 314.179688 277.269531 L 353.109375 277.269531 Z M 353.109375 253.78125 " fill-opacity="1" fill-rule="nonzero"/><g clip-path="url(#f73b15018e)"><path fill="#34e4cb" d="M 249.167969 215.972656 L 626.96875 215.972656 L 626.96875 285.046875 L 280.28125 285.046875 C 280.867188 287.671875 281.417969 290.363281 281.953125 293.101562 L 626.964844 293.101562 L 626.964844 328.277344 L 635.019531 328.277344 L 635.019531 57.46875 L 640.890625 57.46875 L 640.890625 47.398438 L 227.125 47.398438 L 227.125 57.46875 L 233 57.46875 L 233 202.714844 C 237.480469 205.285156 243.199219 209.429688 249.167969 215.972656 Z M 241.050781 207.917969 L 241.050781 138.84375 L 626.96875 138.84375 L 626.96875 207.917969 Z M 626.96875 130.792969 L 241.050781 130.792969 L 241.050781 60.65625 L 626.96875 60.65625 Z M 626.96875 130.792969 " fill-opacity="1" fill-rule="nonzero"/></g><path fill="#34e4cb" d="M 482.332031 309.988281 L 500.453125 309.988281 L 500.453125 328.277344 L 482.332031 328.277344 Z M 482.332031 309.988281 " fill-opacity="1" fill-rule="nonzero"/><path fill="#34e4cb" d="M 507.839844 309.988281 L 525.960938 309.988281 L 525.960938 328.277344 L 507.839844 328.277344 Z M 507.839844 309.988281 " fill-opacity="1" fill-rule="nonzero"/><path fill="#34e4cb" d="M 533.339844 309.988281 L 551.460938 309.988281 L 551.460938 328.277344 L 533.339844 328.277344 Z M 533.339844 309.988281 " fill-opacity="1" fill-rule="nonzero"/><path fill="#34e4cb" d="M 558.84375 309.988281 L 576.964844 309.988281 L 576.964844 328.277344 L 558.84375 328.277344 Z M 558.84375 309.988281 " fill-opacity="1" fill-rule="nonzero"/><path fill="#34e4cb" d="M 584.351562 309.988281 L 602.472656 309.988281 L 602.472656 328.277344 L 584.351562 328.277344 Z M 584.351562 309.988281 " fill-opacity="1" fill-rule="nonzero"/><path fill="#34e4cb" d="M 368.542969 316.867188 L 463.847656 316.867188 L 463.847656 328.277344 L 368.542969 328.277344 Z M 368.542969 316.867188 " fill-opacity="1" fill-rule="nonzero"/></svg>