<svg xmlns="http://www.w3.org/2000/svg" xmlns:xlink="http://www.w3.org/1999/xlink" width="1000" zoomAndPan="magnify" viewBox="0 0 750 599.999999" height="800" preserveAspectRatio="xMidYMid meet" version="1.0"><defs><clipPath id="c7dec634d7"><path d="M 77.519531 106 L 244 106 L 244 588.890625 L 77.519531 588.890625 Z M 77.519531 106 " clip-rule="nonzero"/></clipPath><clipPath id="fea7fedaed"><path d="M 273 11.390625 L 655 11.390625 L 655 588.890625 L 273 588.890625 Z M 273 11.390625 " clip-rule="nonzero"/></clipPath><clipPath id="49f7ebb001"><path d="M 322.035156 176.382812 L 622.785156 176.382812 L 622.785156 549.882812 L 322.035156 549.882812 Z M 322.035156 176.382812 " clip-rule="nonzero"/></clipPath><clipPath id="cb7741f972"><path d="M 125.523438 333.902344 L 196.773438 333.902344 L 196.773438 420.902344 L 125.523438 420.902344 Z M 125.523438 333.902344 " clip-rule="nonzero"/></clipPath></defs><g clip-path="url(#c7dec634d7)"><path fill="#0061a2" d="M 217.925781 106.441406 L 102.675781 106.441406 C 88.804688 106.441406 77.519531 117.726562 77.519531 131.597656 L 77.519531 177.304688 C 77.519531 190.113281 87.144531 200.710938 99.539062 202.261719 L 99.539062 527.804688 C 99.539062 561.308594 126.796875 588.566406 160.300781 588.566406 C 193.804688 588.566406 221.0625 561.308594 221.0625 527.804688 L 221.0625 202.261719 C 233.460938 200.710938 243.085938 190.113281 243.085938 177.304688 L 243.085938 131.597656 C 243.085938 117.726562 231.796875 106.441406 217.925781 106.441406 Z M 202.882812 428.207031 L 117.71875 428.207031 L 117.71875 324.652344 L 202.882812 324.652344 Z M 117.71875 306.472656 L 117.71875 241.90625 L 202.882812 241.90625 L 202.882812 306.472656 Z M 202.882812 223.726562 L 117.71875 223.726562 L 117.71875 202.464844 L 202.882812 202.464844 Z M 160.300781 570.386719 C 136.820312 570.386719 117.71875 551.285156 117.71875 527.804688 L 117.71875 446.386719 L 202.882812 446.386719 L 202.882812 527.804688 C 202.882812 551.285156 183.78125 570.386719 160.300781 570.386719 Z M 224.902344 177.304688 C 224.902344 181.152344 221.773438 184.285156 217.925781 184.285156 L 102.675781 184.285156 C 98.828125 184.285156 95.699219 181.152344 95.699219 177.304688 L 95.699219 131.597656 C 95.699219 127.75 98.828125 124.621094 102.675781 124.621094 L 217.925781 124.621094 C 221.773438 124.621094 224.902344 127.75 224.902344 131.597656 Z M 224.902344 177.304688 " fill-opacity="1" fill-rule="nonzero"/></g><path fill="#0061a2" d="M 140.09375 385.519531 L 151.210938 385.519531 L 151.210938 396.636719 C 151.210938 401.660156 155.28125 405.726562 160.300781 405.726562 C 165.320312 405.726562 169.390625 401.660156 169.390625 396.636719 L 169.390625 385.519531 L 180.507812 385.519531 C 185.527344 385.519531 189.597656 381.449219 189.597656 376.429688 C 189.597656 371.410156 185.527344 367.339844 180.507812 367.339844 L 169.390625 367.339844 L 169.390625 356.222656 C 169.390625 351.203125 165.320312 347.132812 160.300781 347.132812 C 155.28125 347.132812 151.210938 351.203125 151.210938 356.222656 L 151.210938 367.339844 L 140.09375 367.339844 C 135.074219 367.339844 131.003906 371.410156 131.003906 376.429688 C 131.003906 381.449219 135.074219 385.519531 140.09375 385.519531 Z M 140.09375 385.519531 " fill-opacity="1" fill-rule="nonzero"/><path fill="#0061a2" d="M 464.019531 356.351562 C 497.789062 356.351562 525.261719 328.878906 525.261719 295.113281 C 525.261719 263.882812 476.519531 205.335938 470.960938 198.765625 C 469.234375 196.722656 466.695312 195.542969 464.019531 195.542969 C 461.34375 195.542969 458.804688 196.722656 457.078125 198.765625 C 451.523438 205.335938 402.78125 263.882812 402.78125 295.113281 C 402.78125 328.878906 430.253906 356.351562 464.019531 356.351562 Z M 464.019531 218.988281 C 482.964844 242.84375 507.078125 278.675781 507.078125 295.113281 C 507.078125 318.855469 487.761719 338.171875 464.019531 338.171875 C 440.277344 338.171875 420.960938 318.855469 420.960938 295.113281 C 420.960938 278.675781 445.078125 242.84375 464.019531 218.988281 Z M 464.019531 218.988281 " fill-opacity="1" fill-rule="nonzero"/><path fill="#0061a2" d="M 594.703125 377.335938 L 333.335938 377.335938 C 328.316406 377.335938 324.246094 381.40625 324.246094 386.425781 C 324.246094 391.445312 328.316406 395.515625 333.335938 395.515625 L 594.703125 395.515625 C 599.722656 395.515625 603.792969 391.445312 603.792969 386.425781 C 603.792969 381.40625 599.722656 377.335938 594.703125 377.335938 Z M 594.703125 377.335938 " fill-opacity="1" fill-rule="nonzero"/><path fill="#0061a2" d="M 594.703125 438.800781 L 333.335938 438.800781 C 328.316406 438.800781 324.246094 442.871094 324.246094 447.890625 C 324.246094 452.910156 328.316406 456.980469 333.335938 456.980469 L 594.703125 456.980469 C 599.722656 456.980469 603.792969 452.910156 603.792969 447.890625 C 603.792969 442.871094 599.722656 438.800781 594.703125 438.800781 Z M 594.703125 438.800781 " fill-opacity="1" fill-rule="nonzero"/><path fill="#0061a2" d="M 594.703125 500.265625 L 333.335938 500.265625 C 328.316406 500.265625 324.246094 504.335938 324.246094 509.355469 C 324.246094 514.375 328.316406 518.445312 333.335938 518.445312 L 594.703125 518.445312 C 599.722656 518.445312 603.792969 514.375 603.792969 509.355469 C 603.792969 504.335938 599.722656 500.265625 594.703125 500.265625 Z M 594.703125 500.265625 " fill-opacity="1" fill-rule="nonzero"/><path fill="#0061a2" d="M 473.109375 68.050781 C 473.109375 68.648438 473.050781 69.238281 472.9375 69.824219 C 472.820312 70.410156 472.648438 70.980469 472.417969 71.53125 C 472.191406 72.082031 471.910156 72.605469 471.578125 73.101562 C 471.246094 73.597656 470.871094 74.058594 470.449219 74.480469 C 470.027344 74.902344 469.566406 75.277344 469.070312 75.609375 C 468.574219 75.941406 468.050781 76.222656 467.5 76.449219 C 466.949219 76.679688 466.378906 76.851562 465.792969 76.96875 C 465.207031 77.082031 464.617188 77.140625 464.019531 77.140625 C 463.421875 77.140625 462.832031 77.082031 462.246094 76.96875 C 461.660156 76.851562 461.09375 76.679688 460.542969 76.449219 C 459.988281 76.222656 459.464844 75.941406 458.96875 75.609375 C 458.472656 75.277344 458.015625 74.902344 457.59375 74.480469 C 457.171875 74.058594 456.792969 73.597656 456.460938 73.101562 C 456.128906 72.605469 455.851562 72.082031 455.621094 71.53125 C 455.394531 70.980469 455.222656 70.410156 455.105469 69.824219 C 454.988281 69.238281 454.929688 68.648438 454.929688 68.050781 C 454.929688 67.453125 454.988281 66.863281 455.105469 66.277344 C 455.222656 65.691406 455.394531 65.125 455.621094 64.574219 C 455.851562 64.019531 456.128906 63.496094 456.460938 63 C 456.792969 62.503906 457.171875 62.046875 457.59375 61.625 C 458.015625 61.203125 458.472656 60.824219 458.96875 60.492188 C 459.464844 60.160156 459.988281 59.882812 460.542969 59.652344 C 461.09375 59.425781 461.660156 59.253906 462.246094 59.136719 C 462.832031 59.019531 463.421875 58.960938 464.019531 58.960938 C 464.617188 58.960938 465.207031 59.019531 465.792969 59.136719 C 466.378906 59.253906 466.949219 59.425781 467.5 59.652344 C 468.050781 59.882812 468.574219 60.160156 469.070312 60.492188 C 469.566406 60.824219 470.027344 61.203125 470.449219 61.625 C 470.871094 62.046875 471.246094 62.503906 471.578125 63 C 471.910156 63.496094 472.191406 64.019531 472.417969 64.574219 C 472.648438 65.125 472.820312 65.691406 472.9375 66.277344 C 473.050781 66.863281 473.109375 67.453125 473.109375 68.050781 Z M 473.109375 68.050781 " fill-opacity="1" fill-rule="nonzero"/><g clip-path="url(#fea7fedaed)"><path fill="#0061a2" d="M 627.46875 106.441406 L 603.792969 106.441406 L 603.792969 97.945312 C 603.792969 72.882812 583.402344 52.492188 558.34375 52.492188 L 515.109375 52.492188 C 510.011719 28.832031 489.03125 11.347656 464.019531 11.347656 C 439.011719 11.347656 418.03125 28.832031 412.933594 52.492188 L 369.695312 52.492188 C 344.636719 52.492188 324.246094 72.882812 324.246094 97.945312 L 324.246094 106.441406 L 300.574219 106.441406 C 285.539062 106.441406 273.304688 118.671875 273.304688 133.710938 L 273.304688 561.296875 C 273.304688 576.332031 285.539062 588.566406 300.574219 588.566406 L 627.46875 588.566406 C 642.503906 588.566406 654.738281 576.332031 654.738281 561.296875 L 654.738281 133.710938 C 654.738281 118.671875 642.503906 106.441406 627.46875 106.441406 Z M 342.425781 97.945312 C 342.425781 82.90625 354.660156 70.671875 369.695312 70.671875 L 420.890625 70.671875 C 425.746094 70.671875 429.746094 66.855469 429.96875 62.007812 C 430.816406 43.792969 445.773438 29.527344 464.019531 29.527344 C 482.265625 29.527344 497.226562 43.792969 498.070312 62.007812 C 498.296875 66.855469 502.296875 70.671875 507.152344 70.671875 L 558.34375 70.671875 C 573.378906 70.671875 585.613281 82.90625 585.613281 97.945312 L 585.613281 133.84375 C 585.613281 138.859375 581.535156 142.9375 576.523438 142.9375 L 351.515625 142.9375 C 346.503906 142.9375 342.425781 138.859375 342.425781 133.84375 Z M 636.558594 561.296875 C 636.558594 566.308594 632.480469 570.386719 627.46875 570.386719 L 300.574219 570.386719 C 295.5625 570.386719 291.484375 566.308594 291.484375 561.296875 L 291.484375 133.710938 C 291.484375 128.699219 295.5625 124.621094 300.574219 124.621094 L 324.246094 124.621094 L 324.246094 133.84375 C 324.246094 148.882812 336.480469 161.117188 351.515625 161.117188 L 576.523438 161.117188 C 591.558594 161.117188 603.792969 148.882812 603.792969 133.84375 L 603.792969 124.621094 L 627.46875 124.621094 C 632.480469 124.621094 636.558594 128.699219 636.558594 133.710938 Z M 636.558594 561.296875 " fill-opacity="1" fill-rule="nonzero"/></g><path fill="#34e4cb" d="M 464.019531 356.441406 C 497.789062 356.441406 525.261719 328.96875 525.261719 295.199219 C 525.261719 263.972656 476.519531 205.425781 470.960938 198.851562 C 469.234375 196.808594 466.695312 195.632812 464.019531 195.632812 C 461.34375 195.632812 458.804688 196.808594 457.078125 198.851562 C 451.523438 205.425781 402.78125 263.972656 402.78125 295.199219 C 402.78125 328.96875 430.253906 356.441406 464.019531 356.441406 Z M 464.019531 219.078125 C 482.964844 242.933594 507.078125 278.761719 507.078125 295.199219 C 507.078125 318.941406 487.761719 338.257812 464.019531 338.257812 C 440.277344 338.257812 420.960938 318.941406 420.960938 295.199219 C 420.960938 278.761719 445.078125 242.933594 464.019531 219.078125 Z M 464.019531 219.078125 " fill-opacity="1" fill-rule="nonzero"/><path fill="#34e4cb" d="M 594.703125 377.421875 L 333.335938 377.421875 C 328.316406 377.421875 324.246094 381.492188 324.246094 386.515625 C 324.246094 391.535156 328.316406 395.605469 333.335938 395.605469 L 594.703125 395.605469 C 599.722656 395.605469 603.792969 391.535156 603.792969 386.515625 C 603.792969 381.492188 599.722656 377.421875 594.703125 377.421875 Z M 594.703125 377.421875 " fill-opacity="1" fill-rule="nonzero"/><path fill="#34e4cb" d="M 594.703125 438.890625 L 333.335938 438.890625 C 328.316406 438.890625 324.246094 442.960938 324.246094 447.980469 C 324.246094 453 328.316406 457.070312 333.335938 457.070312 L 594.703125 457.070312 C 599.722656 457.070312 603.792969 453 603.792969 447.980469 C 603.792969 442.960938 599.722656 438.890625 594.703125 438.890625 Z M 594.703125 438.890625 " fill-opacity="1" fill-rule="nonzero"/><path fill="#34e4cb" d="M 594.703125 500.355469 L 333.335938 500.355469 C 328.316406 500.355469 324.246094 504.421875 324.246094 509.445312 C 324.246094 514.464844 328.316406 518.535156 333.335938 518.535156 L 594.703125 518.535156 C 599.722656 518.535156 603.792969 514.464844 603.792969 509.445312 C 603.792969 504.421875 599.722656 500.355469 594.703125 500.355469 Z M 594.703125 500.355469 " fill-opacity="1" fill-rule="nonzero"/><g clip-path="url(#49f7ebb001)"><path fill="#34e4cb" d="M 627.46875 106.527344 L 603.792969 106.527344 L 603.792969 98.03125 C 603.792969 72.972656 583.402344 52.582031 558.34375 52.582031 L 515.109375 52.582031 C 510.011719 28.917969 489.03125 11.4375 464.019531 11.4375 C 439.011719 11.4375 418.03125 28.917969 412.933594 52.582031 L 369.695312 52.582031 C 344.636719 52.582031 324.246094 72.972656 324.246094 98.03125 L 324.246094 106.527344 L 300.574219 106.527344 C 285.539062 106.527344 273.304688 118.761719 273.304688 133.796875 L 273.304688 561.386719 C 273.304688 576.421875 285.539062 588.65625 300.574219 588.65625 L 627.46875 588.65625 C 642.503906 588.65625 654.738281 576.421875 654.738281 561.386719 L 654.738281 133.796875 C 654.738281 118.761719 642.503906 106.527344 627.46875 106.527344 Z M 342.425781 98.03125 C 342.425781 82.996094 354.660156 70.761719 369.695312 70.761719 L 420.890625 70.761719 C 425.746094 70.761719 429.746094 66.945312 429.96875 62.09375 C 430.816406 43.882812 445.773438 29.617188 464.019531 29.617188 C 482.265625 29.617188 497.226562 43.882812 498.070312 62.09375 C 498.296875 66.945312 502.296875 70.761719 507.152344 70.761719 L 558.34375 70.761719 C 573.378906 70.761719 585.613281 82.996094 585.613281 98.03125 L 585.613281 133.933594 C 585.613281 138.945312 581.535156 143.023438 576.523438 143.023438 L 351.515625 143.023438 C 346.503906 143.023438 342.425781 138.945312 342.425781 133.933594 Z M 636.558594 561.386719 C 636.558594 566.398438 632.480469 570.476562 627.46875 570.476562 L 300.574219 570.476562 C 295.5625 570.476562 291.484375 566.398438 291.484375 561.386719 L 291.484375 133.796875 C 291.484375 128.785156 295.5625 124.707031 300.574219 124.707031 L 324.246094 124.707031 L 324.246094 133.933594 C 324.246094 148.96875 336.480469 161.203125 351.515625 161.203125 L 576.523438 161.203125 C 591.558594 161.203125 603.792969 148.96875 603.792969 133.933594 L 603.792969 124.707031 L 627.46875 124.707031 C 632.480469 124.707031 636.558594 128.785156 636.558594 133.796875 Z M 636.558594 561.386719 " fill-opacity="1" fill-rule="nonzero"/></g><g clip-path="url(#cb7741f972)"><path fill="#34e4cb" d="M 217.726562 106.441406 L 102.480469 106.441406 C 88.605469 106.441406 77.320312 117.726562 77.320312 131.597656 L 77.320312 177.304688 C 77.320312 190.113281 86.945312 200.710938 99.339844 202.261719 L 99.339844 527.804688 C 99.339844 561.308594 126.597656 588.566406 160.101562 588.566406 C 193.605469 588.566406 220.863281 561.308594 220.863281 527.804688 L 220.863281 202.261719 C 233.261719 200.710938 242.886719 190.113281 242.886719 177.304688 L 242.886719 131.597656 C 242.886719 117.726562 231.597656 106.441406 217.726562 106.441406 Z M 202.683594 428.207031 L 117.519531 428.207031 L 117.519531 324.652344 L 202.683594 324.652344 Z M 117.519531 306.472656 L 117.519531 241.90625 L 202.683594 241.90625 L 202.683594 306.472656 Z M 202.683594 223.726562 L 117.519531 223.726562 L 117.519531 202.464844 L 202.683594 202.464844 Z M 160.101562 570.386719 C 136.625 570.386719 117.519531 551.285156 117.519531 527.804688 L 117.519531 446.386719 L 202.683594 446.386719 L 202.683594 527.804688 C 202.683594 551.285156 183.582031 570.386719 160.101562 570.386719 Z M 224.707031 177.304688 C 224.707031 181.152344 221.574219 184.285156 217.726562 184.285156 L 102.480469 184.285156 C 98.628906 184.285156 95.5 181.152344 95.5 177.304688 L 95.5 131.597656 C 95.5 127.75 98.628906 124.621094 102.480469 124.621094 L 217.726562 124.621094 C 221.574219 124.621094 224.707031 127.75 224.707031 131.597656 Z M 224.707031 177.304688 " fill-opacity="1" fill-rule="nonzero"/></g><path fill="#34e4cb" d="M 139.894531 385.519531 L 151.011719 385.519531 L 151.011719 396.636719 C 151.011719 401.660156 155.082031 405.730469 160.101562 405.730469 C 165.121094 405.730469 169.191406 401.660156 169.191406 396.636719 L 169.191406 385.519531 L 180.308594 385.519531 C 185.332031 385.519531 189.402344 381.449219 189.402344 376.429688 C 189.402344 371.410156 185.332031 367.339844 180.308594 367.339844 L 169.191406 367.339844 L 169.191406 356.222656 C 169.191406 351.203125 165.121094 347.132812 160.101562 347.132812 C 155.082031 347.132812 151.011719 351.203125 151.011719 356.222656 L 151.011719 367.339844 L 139.894531 367.339844 C 134.875 367.339844 130.804688 371.410156 130.804688 376.429688 C 130.804688 381.449219 134.875 385.519531 139.894531 385.519531 Z M 139.894531 385.519531 " fill-opacity="1" fill-rule="nonzero"/></svg>