<svg xmlns="http://www.w3.org/2000/svg" xmlns:xlink="http://www.w3.org/1999/xlink" width="1000" zoomAndPan="magnify" viewBox="0 0 750 599.999999" height="800" preserveAspectRatio="xMidYMid meet" version="1.0"><defs><clipPath id="5c89b6d01f"><path d="M 101.988281 269 L 341 269 L 341 494 L 101.988281 494 Z M 101.988281 269 " clip-rule="nonzero"/></clipPath><clipPath id="45196e7819"><path d="M 404 138 L 616.488281 138 L 616.488281 339 L 404 339 Z M 404 138 " clip-rule="nonzero"/></clipPath><clipPath id="3fbdc476ef"><path d="M 211 28.171875 L 528 28.171875 L 528 571.921875 L 211 571.921875 Z M 211 28.171875 " clip-rule="nonzero"/></clipPath><clipPath id="dab0b375d2"><path d="M 99.738281 267 L 273.738281 267 L 273.738281 462.980469 L 99.738281 462.980469 Z M 99.738281 267 " clip-rule="nonzero"/></clipPath><clipPath id="52ec2de788"><path d="M 211 261.980469 L 273.738281 261.980469 L 273.738281 462.980469 L 211 462.980469 Z M 211 261.980469 " clip-rule="nonzero"/></clipPath><clipPath id="6459959988"><path d="M 240.609375 267 L 342 267 L 342 496 L 240.609375 496 Z M 240.609375 267 " clip-rule="nonzero"/></clipPath><clipPath id="2b9e150a65"><path d="M 240.609375 261.980469 L 403.359375 261.980469 L 403.359375 513.980469 L 240.609375 513.980469 Z M 240.609375 261.980469 " clip-rule="nonzero"/></clipPath></defs><g clip-path="url(#5c89b6d01f)"><path fill="#0160a2" d="M 243.074219 410.945312 C 242.921875 413.839844 240.457031 416.074219 237.5625 415.953125 L 204.589844 415.953125 C 201.691406 416.074219 199.21875 413.839844 199.066406 410.945312 L 199.066406 382.9375 L 171.542969 382.9375 C 168.648438 383.050781 166.207031 380.824219 166.0625 377.917969 L 166.0625 343.9375 C 166.207031 341.039062 168.648438 338.804688 171.542969 338.929688 L 199.066406 338.929688 L 199.066406 310.902344 C 199.21875 308.003906 201.691406 305.777344 204.589844 305.921875 L 237.5625 305.921875 C 240.457031 305.777344 242.921875 308.003906 243.074219 310.902344 L 243.074219 338.929688 L 270.597656 338.929688 C 273.492188 338.804688 275.957031 341.039062 276.089844 343.9375 L 276.089844 377.917969 C 275.957031 380.824219 273.492188 383.050781 270.597656 382.9375 L 243.074219 382.9375 Z M 300.292969 269.242188 L 141.855469 269.242188 C 120.339844 268.734375 102.453125 285.71875 101.875 307.242188 L 101.875 415.28125 C 102.730469 436.675781 120.703125 453.355469 142.09375 452.625 L 237.140625 452.625 L 286.632812 490.855469 C 288.476562 492.296875 290.742188 493.078125 293.082031 493.089844 C 294.6875 493.078125 296.253906 492.71875 297.699219 492.019531 C 301.316406 490.277344 303.621094 486.597656 303.601562 482.589844 L 303.601562 452.5 C 323.820312 451.359375 339.78125 434.859375 340.273438 414.625 L 340.273438 307.242188 C 339.6875 285.71875 321.800781 268.734375 300.292969 269.242188 " fill-opacity="1" fill-rule="nonzero"/></g><g clip-path="url(#45196e7819)"><path fill="#0160a2" d="M 449.664062 265.859375 C 443.636719 265.859375 438.742188 262.203125 438.742188 257.6875 C 438.742188 253.1875 443.636719 249.527344 449.664062 249.527344 L 558.902344 249.527344 C 564.9375 249.527344 569.832031 253.1875 569.832031 257.6875 C 569.832031 262.203125 564.9375 265.859375 558.902344 265.859375 Z M 526.90625 218.039062 C 526.90625 222.542969 523.164062 226.199219 518.550781 226.199219 L 451.746094 226.199219 C 447.140625 226.199219 443.398438 222.542969 443.398438 218.039062 C 443.398438 213.535156 447.140625 209.878906 451.746094 209.878906 L 518.550781 209.878906 C 523.164062 209.878906 526.90625 213.535156 526.90625 218.039062 Z M 446.902344 170.214844 L 577.539062 170.214844 C 582.035156 170.214844 585.691406 173.875 585.691406 178.386719 C 585.691406 182.890625 582.035156 186.546875 577.539062 186.546875 L 446.902344 186.546875 C 442.402344 186.546875 438.742188 182.890625 438.742188 178.386719 C 438.742188 173.875 442.402344 170.214844 446.902344 170.214844 Z M 580.890625 138.738281 L 439.8125 138.738281 C 420.660156 138.273438 404.738281 153.398438 404.222656 172.566406 L 404.222656 268.179688 C 404.65625 286.210938 418.875 300.882812 436.878906 301.90625 L 436.878906 328.6875 C 436.867188 332.273438 438.90625 335.539062 442.121094 337.09375 C 443.421875 337.722656 444.820312 338.050781 446.253906 338.050781 C 448.316406 338.050781 450.324219 337.363281 451.941406 336.085938 L 496.035156 302.019531 L 580.683594 302.019531 C 599.726562 302.675781 615.738281 287.820312 616.492188 268.765625 L 616.492188 172.566406 C 615.964844 153.398438 600.046875 138.273438 580.890625 138.738281 " fill-opacity="1" fill-rule="nonzero"/></g><g clip-path="url(#3fbdc476ef)"><path fill="#0160a2" d="M 507.285156 320.679688 L 507.285156 534.832031 C 507.285156 543.972656 499.847656 551.402344 490.75 551.402344 L 248.308594 551.402344 C 243.621094 551.402344 239.140625 549.382812 236.007812 545.816406 C 233.285156 542.777344 231.769531 538.871094 231.769531 534.832031 L 231.769531 472.058594 L 230.773438 471.285156 L 211.707031 471.285156 L 211.707031 534.832031 C 211.707031 547.269531 217.953125 558.695312 228.382812 565.375 C 234.246094 569.3125 241.117188 571.382812 248.308594 571.382812 L 490.75 571.382812 C 495.621094 571.382812 500.414062 570.421875 504.957031 568.515625 C 518.550781 562.839844 527.339844 549.609375 527.339844 534.832031 L 527.339844 320.679688 Z M 407.429688 50.6875 L 403.234375 50.6875 C 400.863281 50.6875 398.9375 48.769531 398.9375 46.402344 C 398.9375 44.039062 400.863281 42.113281 403.234375 42.113281 L 407.429688 42.113281 C 409.796875 42.113281 411.726562 44.039062 411.726562 46.402344 C 411.726562 48.769531 409.796875 50.6875 407.429688 50.6875 Z M 386.984375 50.6875 L 337.082031 50.6875 C 334.710938 50.6875 332.785156 48.769531 332.785156 46.402344 C 332.785156 44.039062 334.710938 42.113281 337.082031 42.113281 L 386.984375 42.113281 C 389.34375 42.113281 391.28125 44.039062 391.28125 46.402344 C 391.28125 48.769531 389.34375 50.6875 386.984375 50.6875 Z M 522.917969 47.710938 C 520.074219 42.453125 515.910156 37.890625 510.695312 34.507812 C 504.773438 30.65625 497.867188 28.617188 490.75 28.617188 L 248.308594 28.617188 C 237.261719 28.617188 226.917969 33.519531 219.953125 42.074219 C 214.5625 48.679688 211.707031 56.664062 211.707031 65.164062 L 211.707031 250.578125 L 231.769531 250.578125 L 231.769531 65.164062 C 231.769531 56.023438 239.191406 48.585938 248.308594 48.585938 L 289.535156 48.585938 C 290.628906 57.972656 298.605469 65.289062 308.257812 65.289062 L 444.171875 65.289062 C 453.828125 65.289062 461.804688 57.972656 462.886719 48.585938 L 490.75 48.585938 C 495.46875 48.585938 499.96875 50.625 503.113281 54.191406 C 505.792969 57.230469 507.285156 61.136719 507.285156 65.164062 L 507.285156 120.066406 L 527.339844 120.066406 L 527.339844 65.164062 C 527.339844 58.960938 525.78125 52.976562 522.917969 47.710938 " fill-opacity="1" fill-rule="nonzero"/></g><g clip-path="url(#dab0b375d2)"><path fill="#34e4cb" d="M 243.164062 411.578125 C 243.003906 414.523438 240.5 416.796875 237.558594 416.671875 L 204.039062 416.671875 C 201.09375 416.796875 198.582031 414.523438 198.421875 411.578125 L 198.421875 383.109375 L 170.445312 383.109375 C 167.5 383.222656 165.019531 380.960938 164.871094 378.007812 L 164.871094 343.460938 C 165.019531 340.515625 167.5 338.242188 170.445312 338.371094 L 198.421875 338.371094 L 198.421875 309.878906 C 198.582031 306.933594 201.09375 304.671875 204.039062 304.816406 L 237.558594 304.816406 C 240.5 304.671875 243.003906 306.933594 243.164062 309.878906 L 243.164062 338.371094 L 271.140625 338.371094 C 274.085938 338.242188 276.589844 340.515625 276.722656 343.460938 L 276.722656 378.007812 C 276.589844 380.960938 274.085938 383.222656 271.140625 383.109375 L 243.164062 383.109375 Z M 301.332031 267.527344 L 140.265625 267.527344 C 118.394531 267.011719 100.210938 284.277344 99.621094 306.160156 L 99.621094 415.988281 C 100.492188 437.734375 118.761719 454.695312 140.507812 453.953125 L 237.128906 453.953125 L 287.441406 492.8125 C 289.316406 494.28125 291.621094 495.078125 293.996094 495.085938 C 295.632812 495.078125 297.222656 494.710938 298.691406 493.996094 C 302.367188 492.226562 304.714844 488.488281 304.691406 484.414062 L 304.691406 453.824219 C 325.246094 452.664062 341.472656 435.890625 341.972656 415.320312 L 341.972656 306.160156 C 341.375 284.277344 323.191406 267.011719 301.332031 267.527344 " fill-opacity="1" fill-rule="nonzero"/></g><g clip-path="url(#52ec2de788)"><path fill="#34e4cb" d="M 511.753906 319.816406 L 511.753906 537.523438 C 511.753906 546.8125 504.191406 554.367188 494.941406 554.367188 L 248.484375 554.367188 C 243.71875 554.367188 239.160156 552.3125 235.976562 548.6875 C 233.210938 545.597656 231.671875 541.628906 231.671875 537.523438 L 231.671875 473.707031 L 230.65625 472.921875 L 211.277344 472.921875 L 211.277344 537.523438 C 211.277344 550.164062 217.625 561.78125 228.226562 568.570312 C 234.183594 572.570312 241.171875 574.675781 248.484375 574.675781 L 494.941406 574.675781 C 499.894531 574.675781 504.765625 573.703125 509.386719 571.765625 C 523.203125 565.992188 532.136719 552.542969 532.136719 537.523438 L 532.136719 319.816406 Z M 410.238281 45.351562 L 405.976562 45.351562 C 403.566406 45.351562 401.609375 43.402344 401.609375 40.992188 C 401.609375 38.59375 403.566406 36.636719 405.976562 36.636719 L 410.238281 36.636719 C 412.648438 36.636719 414.609375 38.59375 414.609375 40.992188 C 414.609375 43.402344 412.648438 45.351562 410.238281 45.351562 Z M 389.457031 45.351562 L 338.726562 45.351562 C 336.316406 45.351562 334.359375 43.402344 334.359375 40.992188 C 334.359375 38.59375 336.316406 36.636719 338.726562 36.636719 L 389.457031 36.636719 C 391.855469 36.636719 393.824219 38.59375 393.824219 40.992188 C 393.824219 43.402344 391.855469 45.351562 389.457031 45.351562 Z M 527.644531 42.324219 C 524.753906 36.980469 520.519531 32.339844 515.222656 28.90625 C 509.199219 24.988281 502.179688 22.914062 494.941406 22.914062 L 248.484375 22.914062 C 237.253906 22.914062 226.738281 27.898438 219.65625 36.59375 C 214.179688 43.308594 211.277344 51.425781 211.277344 60.066406 L 211.277344 248.554688 L 231.671875 248.554688 L 231.671875 60.066406 C 231.671875 50.777344 239.214844 43.214844 248.484375 43.214844 L 290.394531 43.214844 C 291.503906 52.757812 299.613281 60.195312 309.425781 60.195312 L 447.59375 60.195312 C 457.410156 60.195312 465.515625 52.757812 466.617188 43.214844 L 494.941406 43.214844 C 499.738281 43.214844 504.316406 45.289062 507.511719 48.910156 C 510.234375 52.003906 511.753906 55.972656 511.753906 60.066406 L 511.753906 115.878906 L 532.136719 115.878906 L 532.136719 60.066406 C 532.136719 53.761719 530.554688 47.675781 527.644531 42.324219 " fill-opacity="1" fill-rule="nonzero"/></g><g clip-path="url(#6459959988)"><path fill="#34e4cb" d="M 243.164062 411.578125 C 243.003906 414.523438 240.5 416.796875 237.558594 416.671875 L 204.039062 416.671875 C 201.09375 416.796875 198.582031 414.523438 198.421875 411.578125 L 198.421875 383.109375 L 170.445312 383.109375 C 167.5 383.222656 165.019531 380.960938 164.871094 378.007812 L 164.871094 343.460938 C 165.019531 340.515625 167.5 338.242188 170.445312 338.371094 L 198.421875 338.371094 L 198.421875 309.878906 C 198.582031 306.933594 201.09375 304.671875 204.039062 304.816406 L 237.558594 304.816406 C 240.5 304.671875 243.003906 306.933594 243.164062 309.878906 L 243.164062 338.371094 L 271.140625 338.371094 C 274.085938 338.242188 276.589844 340.515625 276.722656 343.460938 L 276.722656 378.007812 C 276.589844 380.960938 274.085938 383.222656 271.140625 383.109375 L 243.164062 383.109375 Z M 301.332031 267.527344 L 140.265625 267.527344 C 118.394531 267.011719 100.210938 284.277344 99.621094 306.160156 L 99.621094 415.988281 C 100.492188 437.734375 118.761719 454.695312 140.507812 453.953125 L 237.128906 453.953125 L 287.441406 492.8125 C 289.316406 494.28125 291.621094 495.078125 293.996094 495.085938 C 295.632812 495.078125 297.222656 494.710938 298.691406 493.996094 C 302.367188 492.226562 304.714844 488.488281 304.691406 484.414062 L 304.691406 453.824219 C 325.246094 452.664062 341.472656 435.890625 341.972656 415.320312 L 341.972656 306.160156 C 341.375 284.277344 323.191406 267.011719 301.332031 267.527344 " fill-opacity="1" fill-rule="nonzero"/></g><g clip-path="url(#2b9e150a65)"><path fill="#34e4cb" d="M 511.753906 319.816406 L 511.753906 537.523438 C 511.753906 546.8125 504.191406 554.367188 494.941406 554.367188 L 248.484375 554.367188 C 243.71875 554.367188 239.160156 552.3125 235.976562 548.6875 C 233.210938 545.597656 231.671875 541.628906 231.671875 537.523438 L 231.671875 473.707031 L 230.65625 472.921875 L 211.277344 472.921875 L 211.277344 537.523438 C 211.277344 550.164062 217.625 561.78125 228.226562 568.570312 C 234.183594 572.570312 241.171875 574.675781 248.484375 574.675781 L 494.941406 574.675781 C 499.894531 574.675781 504.765625 573.703125 509.386719 571.765625 C 523.203125 565.992188 532.136719 552.542969 532.136719 537.523438 L 532.136719 319.816406 Z M 410.238281 45.351562 L 405.976562 45.351562 C 403.566406 45.351562 401.609375 43.402344 401.609375 40.992188 C 401.609375 38.59375 403.566406 36.636719 405.976562 36.636719 L 410.238281 36.636719 C 412.648438 36.636719 414.609375 38.59375 414.609375 40.992188 C 414.609375 43.402344 412.648438 45.351562 410.238281 45.351562 Z M 389.457031 45.351562 L 338.726562 45.351562 C 336.316406 45.351562 334.359375 43.402344 334.359375 40.992188 C 334.359375 38.59375 336.316406 36.636719 338.726562 36.636719 L 389.457031 36.636719 C 391.855469 36.636719 393.824219 38.59375 393.824219 40.992188 C 393.824219 43.402344 391.855469 45.351562 389.457031 45.351562 Z M 527.644531 42.324219 C 524.753906 36.980469 520.519531 32.339844 515.222656 28.90625 C 509.199219 24.988281 502.179688 22.914062 494.941406 22.914062 L 248.484375 22.914062 C 237.253906 22.914062 226.738281 27.898438 219.65625 36.59375 C 214.179688 43.308594 211.277344 51.425781 211.277344 60.066406 L 211.277344 248.554688 L 231.671875 248.554688 L 231.671875 60.066406 C 231.671875 50.777344 239.214844 43.214844 248.484375 43.214844 L 290.394531 43.214844 C 291.503906 52.757812 299.613281 60.195312 309.425781 60.195312 L 447.59375 60.195312 C 457.410156 60.195312 465.515625 52.757812 466.617188 43.214844 L 494.941406 43.214844 C 499.738281 43.214844 504.316406 45.289062 507.511719 48.910156 C 510.234375 52.003906 511.753906 55.972656 511.753906 60.066406 L 511.753906 115.878906 L 532.136719 115.878906 L 532.136719 60.066406 C 532.136719 53.761719 530.554688 47.675781 527.644531 42.324219 " fill-opacity="1" fill-rule="nonzero"/></g></svg>