<svg xmlns="http://www.w3.org/2000/svg" xmlns:xlink="http://www.w3.org/1999/xlink" width="1080" zoomAndPan="magnify" viewBox="0 0 810 809.999993" height="1080" preserveAspectRatio="xMidYMid meet" version="1.0"><defs><clipPath id="76c6925163"><path d="M 387.296875 103.699219 L 810 103.699219 L 810 674.449219 L 387.296875 674.449219 Z M 387.296875 103.699219 " clip-rule="nonzero"/></clipPath></defs><path fill="#ffffff" d="M 701.753906 303.070312 L 658.878906 303.070312 L 658.878906 260.195312 C 658.878906 259.257812 658.789062 258.328125 658.605469 257.40625 C 658.421875 256.488281 658.152344 255.59375 657.792969 254.726562 C 657.433594 253.859375 656.992188 253.035156 656.472656 252.253906 C 655.949219 251.476562 655.355469 250.753906 654.695312 250.089844 C 654.03125 249.425781 653.308594 248.832031 652.527344 248.3125 C 651.746094 247.792969 650.925781 247.351562 650.058594 246.992188 C 649.191406 246.632812 648.296875 246.363281 647.375 246.179688 C 646.457031 245.996094 645.527344 245.902344 644.585938 245.902344 C 643.648438 245.902344 642.71875 245.996094 641.800781 246.179688 C 640.878906 246.363281 639.984375 246.632812 639.117188 246.992188 C 638.25 247.351562 637.429688 247.792969 636.648438 248.3125 C 635.867188 248.832031 635.144531 249.425781 634.480469 250.089844 C 633.820312 250.753906 633.226562 251.476562 632.703125 252.253906 C 632.183594 253.035156 631.742188 253.859375 631.382812 254.726562 C 631.023438 255.59375 630.753906 256.488281 630.570312 257.40625 C 630.386719 258.328125 630.296875 259.257812 630.296875 260.195312 L 630.296875 303.070312 L 587.421875 303.070312 C 586.480469 303.070312 585.550781 303.164062 584.632812 303.347656 C 583.710938 303.527344 582.816406 303.800781 581.949219 304.160156 C 581.085938 304.519531 580.261719 304.957031 579.480469 305.480469 C 578.699219 306 577.976562 306.59375 577.3125 307.257812 C 576.652344 307.921875 576.058594 308.644531 575.535156 309.421875 C 575.015625 310.203125 574.574219 311.027344 574.214844 311.894531 C 573.855469 312.761719 573.585938 313.65625 573.402344 314.574219 C 573.21875 315.496094 573.128906 316.425781 573.128906 317.363281 C 573.128906 318.300781 573.21875 319.230469 573.402344 320.152344 C 573.585938 321.070312 573.855469 321.964844 574.214844 322.832031 C 574.574219 323.699219 575.015625 324.523438 575.535156 325.304688 C 576.058594 326.082031 576.652344 326.804688 577.3125 327.46875 C 577.976562 328.132812 578.699219 328.726562 579.480469 329.246094 C 580.261719 329.769531 581.085938 330.207031 581.949219 330.566406 C 582.816406 330.925781 583.710938 331.199219 584.632812 331.378906 C 585.550781 331.5625 586.480469 331.65625 587.421875 331.65625 L 630.296875 331.65625 L 630.296875 403.113281 C 630.296875 404.054688 630.386719 404.984375 630.570312 405.902344 C 630.753906 406.824219 631.023438 407.71875 631.382812 408.582031 C 631.742188 409.449219 632.183594 410.273438 632.703125 411.054688 C 633.226562 411.835938 633.820312 412.558594 634.480469 413.21875 C 635.144531 413.882812 635.867188 414.476562 636.648438 414.996094 C 637.429688 415.519531 638.25 415.960938 639.117188 416.320312 C 639.984375 416.679688 640.878906 416.949219 641.800781 417.132812 C 642.71875 417.316406 643.648438 417.40625 644.585938 417.40625 C 645.527344 417.40625 646.457031 417.316406 647.375 417.132812 C 648.296875 416.949219 649.191406 416.679688 650.058594 416.320312 C 650.925781 415.960938 651.746094 415.519531 652.527344 414.996094 C 653.308594 414.476562 654.03125 413.882812 654.695312 413.21875 C 655.355469 412.558594 655.949219 411.835938 656.472656 411.054688 C 656.992188 410.273438 657.433594 409.449219 657.792969 408.582031 C 658.152344 407.71875 658.421875 406.824219 658.605469 405.902344 C 658.789062 404.984375 658.878906 404.054688 658.878906 403.113281 L 658.878906 331.65625 L 701.753906 331.65625 C 702.695312 331.65625 703.625 331.5625 704.542969 331.378906 C 705.464844 331.199219 706.359375 330.925781 707.222656 330.566406 C 708.089844 330.207031 708.914062 329.769531 709.695312 329.246094 C 710.476562 328.726562 711.199219 328.132812 711.859375 327.46875 C 712.523438 326.804688 713.117188 326.082031 713.636719 325.304688 C 714.160156 324.523438 714.601562 323.699219 714.960938 322.832031 C 715.320312 321.964844 715.589844 321.070312 715.773438 320.152344 C 715.957031 319.230469 716.046875 318.300781 716.046875 317.363281 C 716.046875 316.425781 715.957031 315.496094 715.773438 314.574219 C 715.589844 313.65625 715.320312 312.761719 714.960938 311.894531 C 714.601562 311.027344 714.160156 310.203125 713.636719 309.421875 C 713.117188 308.644531 712.523438 307.921875 711.859375 307.257812 C 711.199219 306.59375 710.476562 306 709.695312 305.480469 C 708.914062 304.957031 708.089844 304.519531 707.222656 304.160156 C 706.359375 303.800781 705.464844 303.527344 704.542969 303.347656 C 703.625 303.164062 702.695312 303.070312 701.753906 303.070312 Z M 701.753906 303.070312 " fill-opacity="1" fill-rule="nonzero"/><g clip-path="url(#76c6925163)"><path fill="#ffffff" d="M 887.550781 588.910156 L 873.257812 588.910156 L 873.257812 546.035156 C 873.257812 545.09375 873.167969 544.164062 872.984375 543.246094 C 872.800781 542.324219 872.53125 541.429688 872.171875 540.5625 C 871.8125 539.695312 871.375 538.871094 870.851562 538.089844 C 870.332031 537.3125 869.738281 536.589844 869.074219 535.925781 C 868.410156 535.261719 867.6875 534.667969 866.910156 534.148438 C 866.128906 533.625 865.304688 533.1875 864.4375 532.828125 C 863.570312 532.46875 862.675781 532.199219 861.753906 532.015625 C 860.835938 531.832031 859.90625 531.742188 858.964844 531.742188 L 844.675781 531.742188 L 844.675781 303.070312 C 844.675781 299.796875 844.59375 296.523438 844.433594 293.253906 C 844.273438 289.984375 844.03125 286.71875 843.710938 283.460938 C 843.390625 280.199219 842.988281 276.953125 842.507812 273.710938 C 842.027344 270.472656 841.46875 267.25 840.828125 264.035156 C 840.191406 260.824219 839.472656 257.632812 838.679688 254.453125 C 837.882812 251.277344 837.007812 248.125 836.058594 244.988281 C 835.109375 241.855469 834.082031 238.746094 832.976562 235.664062 C 831.875 232.582031 830.695312 229.527344 829.445312 226.5 C 828.191406 223.476562 826.863281 220.484375 825.464844 217.523438 C 824.0625 214.5625 822.59375 211.640625 821.046875 208.75 C 819.503906 205.863281 817.890625 203.015625 816.207031 200.207031 C 814.523438 197.398438 812.773438 194.632812 810.953125 191.910156 C 809.132812 189.1875 807.25 186.511719 805.296875 183.878906 C 803.347656 181.25 801.335938 178.667969 799.257812 176.136719 C 797.179688 173.605469 795.042969 171.128906 792.84375 168.703125 C 790.644531 166.277344 788.386719 163.90625 786.070312 161.589844 C 783.753906 159.273438 781.382812 157.015625 778.957031 154.816406 C 776.53125 152.617188 774.050781 150.480469 771.519531 148.402344 C 768.988281 146.324219 766.410156 144.3125 763.777344 142.359375 C 761.148438 140.410156 758.472656 138.523438 755.75 136.707031 C 753.027344 134.886719 750.261719 133.136719 747.453125 131.453125 C 744.644531 129.769531 741.796875 128.15625 738.90625 126.609375 C 736.019531 125.066406 733.097656 123.59375 730.136719 122.195312 C 727.175781 120.796875 724.183594 119.46875 721.15625 118.214844 C 718.132812 116.960938 715.078125 115.785156 711.996094 114.679688 C 708.910156 113.578125 705.804688 112.550781 702.667969 111.601562 C 699.535156 110.648438 696.382812 109.777344 693.203125 108.980469 C 690.027344 108.1875 686.835938 107.46875 683.621094 106.828125 C 680.410156 106.191406 677.1875 105.632812 673.945312 105.152344 C 670.707031 104.671875 667.457031 104.269531 664.199219 103.949219 C 660.941406 103.628906 657.675781 103.386719 654.40625 103.226562 C 651.136719 103.066406 647.863281 102.984375 644.585938 102.984375 C 641.3125 102.984375 638.039062 103.066406 634.769531 103.226562 C 631.5 103.386719 628.234375 103.628906 624.976562 103.949219 C 621.71875 104.269531 618.46875 104.671875 615.230469 105.152344 C 611.988281 105.632812 608.765625 106.191406 605.554688 106.828125 C 602.339844 107.46875 599.148438 108.1875 595.972656 108.980469 C 592.792969 109.777344 589.640625 110.648438 586.503906 111.601562 C 583.371094 112.550781 580.265625 113.578125 577.179688 114.679688 C 574.097656 115.785156 571.042969 116.960938 568.019531 118.214844 C 564.992188 119.46875 562 120.796875 559.039062 122.195312 C 556.078125 123.59375 553.15625 125.066406 550.269531 126.609375 C 547.378906 128.15625 544.53125 129.769531 541.722656 131.453125 C 538.914062 133.136719 536.148438 134.886719 533.425781 136.707031 C 530.703125 138.523438 528.027344 140.410156 525.394531 142.359375 C 522.765625 144.3125 520.1875 146.324219 517.65625 148.402344 C 515.125 150.480469 512.644531 152.617188 510.21875 154.816406 C 507.792969 157.015625 505.421875 159.273438 503.105469 161.589844 C 500.789062 163.90625 498.53125 166.277344 496.332031 168.703125 C 494.132812 171.128906 491.996094 173.605469 489.917969 176.136719 C 487.839844 178.667969 485.828125 181.25 483.875 183.878906 C 481.925781 186.511719 480.042969 189.1875 478.222656 191.910156 C 476.402344 194.632812 474.652344 197.398438 472.96875 200.207031 C 471.285156 203.015625 469.671875 205.863281 468.128906 208.75 C 466.582031 211.640625 465.113281 214.5625 463.710938 217.523438 C 462.3125 220.484375 460.984375 223.476562 459.730469 226.5 C 458.480469 229.527344 457.300781 232.582031 456.199219 235.664062 C 455.09375 238.746094 454.066406 241.855469 453.117188 244.988281 C 452.167969 248.125 451.292969 251.277344 450.496094 254.453125 C 449.703125 257.632812 448.984375 260.824219 448.347656 264.035156 C 447.707031 267.25 447.148438 270.472656 446.667969 273.710938 C 446.1875 276.953125 445.785156 280.199219 445.464844 283.460938 C 445.144531 286.71875 444.902344 289.984375 444.742188 293.253906 C 444.582031 296.523438 444.5 299.796875 444.5 303.070312 L 444.5 531.742188 L 430.210938 531.742188 C 429.269531 531.742188 428.339844 531.832031 427.421875 532.015625 C 426.5 532.199219 425.605469 532.46875 424.738281 532.828125 C 423.871094 533.1875 423.046875 533.625 422.265625 534.148438 C 421.488281 534.667969 420.765625 535.261719 420.101562 535.925781 C 419.4375 536.589844 418.84375 537.3125 418.324219 538.089844 C 417.800781 538.871094 417.363281 539.695312 417.003906 540.5625 C 416.644531 541.429688 416.375 542.324219 416.191406 543.246094 C 416.007812 544.164062 415.917969 545.09375 415.917969 546.035156 L 415.917969 588.910156 L 401.625 588.910156 C 400.6875 588.910156 399.757812 589 398.835938 589.183594 C 397.917969 589.363281 397.023438 589.636719 396.15625 589.996094 C 395.289062 590.355469 394.464844 590.792969 393.683594 591.316406 C 392.902344 591.835938 392.179688 592.429688 391.515625 593.09375 C 390.855469 593.757812 390.261719 594.480469 389.738281 595.257812 C 389.21875 596.039062 388.777344 596.863281 388.417969 597.730469 C 388.058594 598.597656 387.789062 599.492188 387.605469 600.414062 C 387.425781 601.332031 387.332031 602.261719 387.332031 603.199219 L 387.332031 660.367188 C 387.332031 661.308594 387.425781 662.238281 387.605469 663.15625 C 387.789062 664.078125 388.0625 664.972656 388.417969 665.839844 C 388.777344 666.707031 389.21875 667.53125 389.738281 668.3125 C 390.261719 669.089844 390.855469 669.8125 391.515625 670.476562 C 392.179688 671.140625 392.902344 671.734375 393.683594 672.253906 C 394.464844 672.777344 395.289062 673.214844 396.15625 673.574219 C 397.023438 673.933594 397.917969 674.203125 398.835938 674.386719 C 399.757812 674.570312 400.6875 674.660156 401.625 674.660156 L 887.550781 674.660156 C 888.488281 674.660156 889.417969 674.570312 890.339844 674.386719 C 891.257812 674.203125 892.152344 673.933594 893.019531 673.574219 C 893.886719 673.214844 894.710938 672.777344 895.492188 672.253906 C 896.273438 671.734375 896.996094 671.140625 897.660156 670.476562 C 898.320312 669.8125 898.914062 669.089844 899.4375 668.3125 C 899.957031 667.53125 900.398438 666.707031 900.757812 665.839844 C 901.113281 664.972656 901.386719 664.078125 901.570312 663.15625 C 901.75 662.238281 901.84375 661.308594 901.84375 660.367188 L 901.84375 603.199219 C 901.84375 602.261719 901.75 601.332031 901.570312 600.414062 C 901.386719 599.492188 901.113281 598.597656 900.757812 597.730469 C 900.398438 596.863281 899.957031 596.039062 899.4375 595.257812 C 898.914062 594.476562 898.320312 593.757812 897.660156 593.09375 C 896.996094 592.429688 896.273438 591.835938 895.492188 591.316406 C 894.710938 590.792969 893.886719 590.355469 893.019531 589.996094 C 892.152344 589.636719 891.257812 589.363281 890.339844 589.183594 C 889.417969 589 888.488281 588.910156 887.550781 588.910156 Z M 473.085938 303.070312 C 473.085938 300.265625 473.152344 297.460938 473.292969 294.65625 C 473.429688 291.851562 473.636719 289.054688 473.910156 286.261719 C 474.1875 283.46875 474.53125 280.683594 474.941406 277.90625 C 475.351562 275.128906 475.832031 272.367188 476.378906 269.613281 C 476.929688 266.859375 477.542969 264.121094 478.226562 261.398438 C 478.90625 258.675781 479.65625 255.972656 480.46875 253.285156 C 481.285156 250.601562 482.164062 247.9375 483.109375 245.292969 C 484.054688 242.652344 485.066406 240.035156 486.140625 237.441406 C 487.214844 234.847656 488.351562 232.28125 489.550781 229.746094 C 490.75 227.207031 492.011719 224.699219 493.335938 222.226562 C 494.660156 219.75 496.042969 217.308594 497.484375 214.902344 C 498.929688 212.492188 500.429688 210.125 501.988281 207.789062 C 503.546875 205.457031 505.164062 203.160156 506.835938 200.90625 C 508.507812 198.652344 510.234375 196.441406 512.015625 194.269531 C 513.796875 192.101562 515.628906 189.976562 517.511719 187.898438 C 519.398438 185.816406 521.332031 183.785156 523.316406 181.800781 C 525.300781 179.816406 527.335938 177.882812 529.414062 175.996094 C 531.492188 174.113281 533.617188 172.277344 535.789062 170.5 C 537.957031 168.71875 540.167969 166.992188 542.421875 165.320312 C 544.679688 163.648438 546.972656 162.03125 549.304688 160.472656 C 551.640625 158.914062 554.011719 157.410156 556.417969 155.96875 C 558.824219 154.527344 561.265625 153.144531 563.742188 151.820312 C 566.21875 150.496094 568.722656 149.234375 571.261719 148.035156 C 573.796875 146.835938 576.363281 145.699219 578.957031 144.625 C 581.550781 143.550781 584.167969 142.539062 586.808594 141.59375 C 589.453125 140.648438 592.117188 139.769531 594.804688 138.953125 C 597.488281 138.140625 600.195312 137.390625 602.917969 136.707031 C 605.640625 136.027344 608.375 135.410156 611.128906 134.863281 C 613.882812 134.316406 616.648438 133.835938 619.421875 133.425781 C 622.199219 133.011719 624.984375 132.667969 627.777344 132.394531 C 630.570312 132.121094 633.371094 131.914062 636.171875 131.777344 C 638.976562 131.636719 641.78125 131.570312 644.585938 131.570312 C 647.394531 131.570312 650.199219 131.636719 653.003906 131.777344 C 655.804688 131.914062 658.605469 132.121094 661.398438 132.394531 C 664.191406 132.667969 666.976562 133.011719 669.753906 133.425781 C 672.527344 133.835938 675.292969 134.316406 678.046875 134.863281 C 680.800781 135.410156 683.535156 136.027344 686.257812 136.707031 C 688.980469 137.390625 691.6875 138.140625 694.371094 138.953125 C 697.058594 139.769531 699.722656 140.648438 702.367188 141.59375 C 705.007812 142.539062 707.625 143.550781 710.21875 144.625 C 712.8125 145.699219 715.378906 146.835938 717.914062 148.035156 C 720.453125 149.234375 722.957031 150.496094 725.433594 151.820312 C 727.910156 153.144531 730.351562 154.527344 732.757812 155.96875 C 735.164062 157.410156 737.535156 158.914062 739.871094 160.472656 C 742.203125 162.03125 744.496094 163.648438 746.75 165.320312 C 749.007812 166.992188 751.21875 168.71875 753.386719 170.5 C 755.558594 172.277344 757.683594 174.113281 759.761719 175.996094 C 761.839844 177.882812 763.875 179.816406 765.859375 181.800781 C 767.84375 183.785156 769.777344 185.816406 771.664062 187.898438 C 773.546875 189.976562 775.378906 192.101562 777.160156 194.269531 C 778.941406 196.441406 780.667969 198.652344 782.339844 200.90625 C 784.011719 203.160156 785.628906 205.457031 787.1875 207.789062 C 788.746094 210.125 790.246094 212.492188 791.691406 214.902344 C 793.132812 217.308594 794.515625 219.75 795.839844 222.226562 C 797.164062 224.699219 798.425781 227.207031 799.625 229.746094 C 800.824219 232.28125 801.960938 234.847656 803.035156 237.441406 C 804.109375 240.035156 805.121094 242.652344 806.066406 245.292969 C 807.011719 247.9375 807.890625 250.601562 808.707031 253.285156 C 809.519531 255.972656 810.269531 258.675781 810.949219 261.398438 C 811.632812 264.121094 812.246094 266.859375 812.796875 269.613281 C 813.34375 272.367188 813.824219 275.128906 814.234375 277.90625 C 814.644531 280.683594 814.988281 283.46875 815.265625 286.261719 C 815.539062 289.054688 815.746094 291.851562 815.882812 294.65625 C 816.023438 297.460938 816.089844 300.265625 816.089844 303.070312 L 816.089844 531.742188 L 473.085938 531.742188 Z M 444.5 560.324219 L 844.675781 560.324219 L 844.675781 588.910156 L 444.5 588.910156 Z M 873.257812 646.078125 L 415.917969 646.078125 L 415.917969 617.492188 L 873.257812 617.492188 Z M 873.257812 646.078125 " fill-opacity="1" fill-rule="nonzero"/></g></svg>