<svg xmlns="http://www.w3.org/2000/svg" xmlns:xlink="http://www.w3.org/1999/xlink" width="1080" zoomAndPan="magnify" viewBox="0 0 810 809.999993" height="1080" preserveAspectRatio="xMidYMid meet" version="1.0"><defs><clipPath id="6b24fb6ff6"><path d="M 287 688 L 806 688 L 806 740.550781 L 287 740.550781 Z M 287 688 " clip-rule="nonzero"/></clipPath><clipPath id="2c77f25081"><path d="M 287 40.050781 L 806 40.050781 L 806 397 L 287 397 Z M 287 40.050781 " clip-rule="nonzero"/></clipPath></defs><path fill="#ffffff" d="M 936.085938 413.8125 C 886.488281 399.464844 840.085938 373.507812 801.882812 338.785156 L 793.59375 331.238281 L 785.808594 339.132812 C 748.175781 377.378906 700.570312 403.707031 648.152344 415.253906 L 635.601562 418.011719 L 635.601562 425.3125 C 635.601562 529.164062 692.238281 624.59375 783.382812 674.363281 L 793.945312 680.136719 L 804.507812 674.363281 C 895.671875 624.59375 952.289062 529.164062 952.289062 425.3125 L 952.289062 418.492188 Z M 795.804688 658.441406 L 793.945312 659.472656 L 792.085938 658.441406 C 708.878906 613.023438 656.421875 526.976562 653.863281 432.574219 C 680.957031 426.429688 707 416.5 731.292969 403.074219 C 754.300781 390.347656 775.46875 374.644531 794.273438 356.320312 C 813.1875 372.917969 833.851562 387.546875 855.832031 399.816406 C 879.578125 413.089844 904.902344 423.671875 931.03125 431.238281 L 934.050781 432.113281 C 931.644531 526.691406 879.140625 612.957031 795.804688 658.441406 Z M 795.804688 658.441406 " fill-opacity="1" fill-rule="nonzero"/><g clip-path="url(#6b24fb6ff6)"><path fill="#ffffff" d="M 782.246094 705.785156 C 782.246094 711.910156 777.261719 716.894531 771.136719 716.894531 L 322.109375 716.894531 C 315.988281 716.894531 311 711.910156 311 705.785156 L 311 688.3125 L 287.601562 688.3125 L 287.601562 705.785156 C 287.601562 724.8125 303.085938 740.292969 322.109375 740.292969 L 771.117188 740.292969 C 790.140625 740.292969 805.621094 724.8125 805.621094 705.785156 L 805.621094 691.417969 L 782.222656 691.417969 L 782.222656 705.785156 Z M 782.246094 705.785156 " fill-opacity="1" fill-rule="nonzero"/></g><g clip-path="url(#2c77f25081)"><path fill="#ffffff" d="M 311.023438 74.558594 C 311.023438 68.433594 316.007812 63.449219 322.132812 63.449219 L 771.136719 63.449219 C 777.261719 63.449219 782.246094 68.433594 782.246094 74.558594 L 782.332031 314.488281 L 805.730469 314.488281 L 805.644531 74.558594 C 805.644531 55.535156 790.160156 40.050781 771.136719 40.050781 L 322.109375 40.050781 C 303.085938 40.050781 287.601562 55.535156 287.601562 74.558594 L 287.601562 396.753906 L 311 396.753906 L 311 74.558594 Z M 311.023438 74.558594 " fill-opacity="1" fill-rule="nonzero"/></g><path fill="#ffffff" d="M 474.328125 646.480469 L 474.328125 512.148438 C 474.328125 500.558594 464.902344 491.136719 453.316406 491.136719 L 422.699219 491.136719 L 379.992188 406.027344 C 374.789062 395.660156 362.148438 391.460938 351.785156 396.667969 L 143.035156 501.390625 C 132.671875 506.59375 128.472656 519.234375 133.675781 529.601562 L 193.921875 649.675781 C 195.867188 653.566406 198.929688 656.695312 202.691406 658.726562 C 206.515625 664.042969 212.75 667.496094 219.769531 667.496094 L 453.316406 667.496094 C 464.902344 667.496094 474.328125 658.050781 474.328125 646.480469 Z M 453.316406 509.503906 C 454.78125 509.503906 455.960938 510.683594 455.960938 512.148438 L 455.960938 646.480469 C 455.960938 647.945312 454.78125 649.128906 453.316406 649.128906 L 219.769531 649.128906 C 218.699219 649.128906 217.757812 648.472656 217.34375 647.554688 C 217.320312 647.507812 217.296875 647.464844 217.296875 647.421875 C 217.277344 647.378906 217.253906 647.335938 217.253906 647.289062 C 217.234375 647.246094 217.234375 647.203125 217.234375 647.179688 C 217.210938 647.136719 217.210938 647.09375 217.1875 647.027344 C 217.1875 646.984375 217.167969 646.941406 217.167969 646.898438 C 217.167969 646.851562 217.144531 646.808594 217.144531 646.765625 C 217.144531 646.679688 217.125 646.589844 217.125 646.480469 L 217.125 512.148438 C 217.125 510.683594 218.304688 509.503906 219.769531 509.503906 Z M 344.414062 491.136719 L 390.992188 468.894531 L 402.167969 491.136719 Z M 151.300781 517.8125 L 360.050781 413.089844 C 360.421875 412.894531 360.835938 412.804688 361.230469 412.804688 C 362.191406 412.804688 363.132812 413.332031 363.59375 414.269531 L 373.738281 434.496094 L 255.105469 491.15625 L 219.792969 491.15625 C 219.417969 491.15625 219.070312 491.15625 218.71875 491.179688 C 209.425781 491.660156 201.707031 498.199219 199.453125 506.921875 C 199.015625 508.605469 198.796875 510.355469 198.796875 512.171875 L 198.796875 518.054688 L 158.210938 537.429688 L 150.164062 521.378906 C 149.464844 520.066406 149.988281 518.46875 151.300781 517.8125 Z M 175.445312 571.824219 L 198.777344 560.695312 L 198.777344 618.316406 Z M 175.445312 571.824219 " fill-opacity="1" fill-rule="nonzero"/><path fill="#ffffff" d="M 241.175781 621.464844 L 252.546875 621.464844 L 252.546875 634.367188 L 241.175781 634.367188 Z M 241.175781 621.464844 " fill-opacity="1" fill-rule="nonzero"/><path fill="#ffffff" d="M 276.558594 621.464844 L 300.570312 621.464844 L 300.570312 634.367188 L 276.558594 634.367188 Z M 276.558594 621.464844 " fill-opacity="1" fill-rule="nonzero"/><path fill="#ffffff" d="M 372.558594 621.464844 L 396.566406 621.464844 L 396.566406 634.367188 L 372.558594 634.367188 Z M 372.558594 621.464844 " fill-opacity="1" fill-rule="nonzero"/><path fill="#ffffff" d="M 324.558594 621.464844 L 348.570312 621.464844 L 348.570312 634.367188 L 324.558594 634.367188 Z M 324.558594 621.464844 " fill-opacity="1" fill-rule="nonzero"/><path fill="#ffffff" d="M 420.558594 621.464844 L 431.929688 621.464844 L 431.929688 634.367188 L 420.558594 634.367188 Z M 420.558594 621.464844 " fill-opacity="1" fill-rule="nonzero"/><path fill="#ffffff" d="M 821.914062 422.863281 L 766.128906 422.863281 L 766.128906 472.417969 L 716.578125 472.417969 L 716.578125 528.199219 L 766.128906 528.199219 L 766.128906 577.753906 L 821.914062 577.753906 L 821.914062 528.199219 L 871.464844 528.199219 L 871.464844 472.417969 L 821.914062 472.417969 Z M 821.914062 422.863281 " fill-opacity="1" fill-rule="nonzero"/><path fill="#ffffff" d="M 399.585938 118.796875 L 399.585938 168.371094 L 350.035156 168.371094 L 350.035156 224.132812 L 399.585938 224.132812 L 399.585938 273.707031 L 455.371094 273.707031 L 455.371094 224.132812 L 504.945312 224.132812 L 504.945312 168.371094 L 455.371094 168.371094 L 455.371094 118.796875 Z M 399.585938 118.796875 " fill-opacity="1" fill-rule="nonzero"/><path fill="#ffffff" d="M 259.546875 601.5 L 286.179688 601.5 L 286.179688 577.839844 L 309.839844 577.839844 L 309.839844 551.203125 L 286.179688 551.203125 L 286.179688 527.542969 L 259.546875 527.542969 L 259.546875 551.203125 L 235.886719 551.203125 L 235.886719 577.839844 L 259.546875 577.839844 Z M 259.546875 601.5 " fill-opacity="1" fill-rule="nonzero"/><path fill="#ffffff" d="M 552.613281 148.382812 L 723.398438 148.382812 L 723.398438 170.25 L 552.613281 170.25 Z M 552.613281 148.382812 " fill-opacity="1" fill-rule="nonzero"/><path fill="#ffffff" d="M 552.613281 213.308594 L 723.398438 213.308594 L 723.398438 235.175781 L 552.613281 235.175781 Z M 552.613281 213.308594 " fill-opacity="1" fill-rule="nonzero"/><path fill="#ffffff" d="M 552.613281 278.234375 L 723.398438 278.234375 L 723.398438 300.101562 L 552.613281 300.101562 Z M 552.613281 278.234375 " fill-opacity="1" fill-rule="nonzero"/><path fill="#ffffff" d="M 358.933594 348.316406 L 723.398438 348.316406 L 723.398438 370.183594 L 358.933594 370.183594 Z M 358.933594 348.316406 " fill-opacity="1" fill-rule="nonzero"/><path fill="#ffffff" d="M 427.488281 424.328125 L 427.488281 446.195312 L 621.015625 446.195312 C 620.535156 439.285156 620.296875 432.3125 620.296875 425.3125 L 620.296875 424.328125 Z M 427.488281 424.328125 " fill-opacity="1" fill-rule="nonzero"/><path fill="#ffffff" d="M 504.945312 500.363281 L 504.945312 522.230469 L 636.410156 522.230469 C 633.941406 515.035156 631.753906 507.753906 629.851562 500.363281 Z M 504.945312 500.363281 " fill-opacity="1" fill-rule="nonzero"/><path fill="#ffffff" d="M 504.945312 576.375 L 504.945312 598.242188 L 675.335938 598.242188 C 670.304688 591.15625 665.605469 583.851562 661.230469 576.375 Z M 504.945312 576.375 " fill-opacity="1" fill-rule="nonzero"/><path fill="#ffffff" d="M 711.679688 640.554688 L 499.082031 640.554688 L 499.082031 662.421875 L 737.046875 662.421875 C 728.144531 655.578125 719.683594 648.273438 711.679688 640.554688 Z M 711.679688 640.554688 " fill-opacity="1" fill-rule="nonzero"/></svg>