<svg xmlns="http://www.w3.org/2000/svg" xmlns:xlink="http://www.w3.org/1999/xlink" width="1080" zoomAndPan="magnify" viewBox="0 0 810 809.999993" height="1080" preserveAspectRatio="xMidYMid meet" version="1.0"><path fill="#ffffff" d="M 744.566406 257.3125 C 745.625 247.386719 748.273438 240.902344 751.980469 237.195312 C 760.714844 228.59375 769.449219 230.179688 777.921875 239.445312 C 781.492188 243.28125 784.933594 248.972656 788.375 255.722656 C 800.816406 280.871094 814.582031 327.855469 814.582031 343.207031 C 814.582031 360.808594 807.039062 371.792969 794.992188 378.542969 C 784.800781 384.234375 771.832031 386.089844 757.933594 386.089844 C 744.039062 386.089844 731.070312 384.234375 720.878906 378.542969 C 708.832031 371.792969 701.289062 360.808594 701.289062 343.207031 C 701.289062 328.121094 709.628906 318.722656 719.6875 307.339844 C 729.613281 296.089844 741.921875 282.195312 744.4375 257.445312 Z M 427.191406 241.960938 L 580.585938 241.960938 C 603.351562 241.960938 622.011719 260.621094 622.011719 283.386719 L 622.011719 674.082031 C 622.011719 696.847656 603.484375 715.507812 580.585938 715.507812 L 427.191406 715.507812 C 404.5625 715.507812 385.765625 696.847656 385.765625 674.082031 L 385.765625 283.386719 C 385.765625 260.621094 404.296875 241.960938 427.191406 241.960938 Z M 580.585938 268.960938 L 427.191406 268.960938 C 419.25 268.960938 412.765625 275.445312 412.765625 283.386719 L 412.765625 385.425781 C 500.515625 305.222656 510.574219 511.953125 594.878906 417.191406 L 594.878906 283.386719 C 594.878906 275.445312 588.394531 268.960938 580.453125 268.960938 Z M 412.898438 426.191406 L 412.898438 673.949219 C 412.898438 681.890625 419.382812 688.375 427.324219 688.375 L 580.71875 688.375 C 588.660156 688.375 595.144531 681.890625 595.144531 673.949219 L 595.144531 454.25 C 493.765625 534.1875 483.707031 331.164062 413.03125 426.191406 Z M 499.191406 28.480469 C 508.984375 18.683594 518.777344 21.992188 527.382812 31.257812 C 546.175781 50.050781 575.558594 141.109375 575.558594 168.375 C 575.558594 211.386719 539.824219 221.445312 503.824219 221.445312 C 467.824219 221.445312 432.089844 211.386719 432.089844 168.375 C 432.089844 149.710938 442.808594 137.667969 455.78125 122.976562 C 489.660156 84.59375 488.339844 39.199219 499.191406 28.480469 Z M 516.527344 64.214844 L 516.265625 63.550781 C 510.308594 101.933594 491.382812 123.375 476.03125 140.710938 C 466.765625 151.167969 459.222656 159.769531 459.222656 168.242188 C 459.222656 193.386719 484.5 194.3125 503.957031 194.3125 C 523.410156 194.3125 548.691406 193.386719 548.691406 168.242188 C 548.691406 150.769531 531.882812 94.917969 516.660156 64.082031 Z M 701.289062 394.03125 L 814.714844 394.03125 C 833.507812 394.03125 848.859375 409.382812 848.859375 428.175781 L 848.859375 717.359375 C 848.859375 736.152344 833.507812 751.507812 814.714844 751.507812 L 701.289062 751.507812 C 682.496094 751.507812 667.144531 736.15625 667.144531 717.359375 L 667.144531 428.175781 C 667.144531 409.382812 682.496094 394.03125 701.289062 394.03125 Z M 814.714844 421.027344 L 701.289062 421.027344 C 697.320312 421.027344 694.144531 424.207031 694.144531 428.175781 L 694.144531 495.9375 C 719.554688 476.484375 743.375 485.75 765.613281 523.734375 C 785.332031 546.101562 802.273438 545.835938 821.859375 525.984375 L 821.859375 428.308594 C 821.859375 424.335938 818.683594 421.160156 814.714844 421.160156 Z M 694.144531 535.113281 L 694.144531 717.359375 C 694.144531 721.199219 697.320312 724.507812 701.289062 724.507812 L 814.714844 724.507812 C 818.683594 724.507812 821.859375 721.332031 821.859375 717.359375 L 821.859375 561.1875 C 794.066406 578.527344 758.597656 566.21875 742.847656 538.027344 C 728.289062 512.878906 712.011719 511.820312 694.273438 535.113281 Z M 787.582031 343.207031 C 787.582031 332.222656 778.183594 299.796875 768.390625 276.769531 C 762.433594 299.664062 750.125 313.5625 739.9375 325.074219 C 733.582031 332.222656 728.421875 338.179688 728.421875 343.207031 C 728.421875 349.429688 730.671875 353.132812 734.113281 354.988281 C 739.539062 358.03125 748.140625 358.957031 758.066406 358.957031 C 767.992188 358.957031 776.597656 358.03125 782.023438 354.988281 C 785.464844 353 787.714844 349.429688 787.714844 343.207031 Z M 787.582031 343.207031 " fill-opacity="1" fill-rule="nonzero"/></svg>