<svg xmlns="http://www.w3.org/2000/svg" xmlns:xlink="http://www.w3.org/1999/xlink" width="1080" zoomAndPan="magnify" viewBox="0 0 810 809.999993" height="1080" preserveAspectRatio="xMidYMid meet" version="1.0"><defs><clipPath id="f1902a4238"><path d="M 236.890625 164 L 431 164 L 431 728.847656 L 236.890625 728.847656 Z M 236.890625 164 " clip-rule="nonzero"/></clipPath><clipPath id="5f05f00df9"><path d="M 525 481 L 809.890625 481 L 809.890625 503 L 525 503 Z M 525 481 " clip-rule="nonzero"/></clipPath><clipPath id="3a8077a9ee"><path d="M 525 553 L 809.890625 553 L 809.890625 575 L 525 575 Z M 525 553 " clip-rule="nonzero"/></clipPath><clipPath id="d2c2999b16"><path d="M 525 625 L 809.890625 625 L 809.890625 647 L 525 647 Z M 525 625 " clip-rule="nonzero"/></clipPath><clipPath id="f6b265b129"><path d="M 466 53.097656 L 809.890625 53.097656 L 809.890625 728.847656 L 466 728.847656 Z M 466 53.097656 " clip-rule="nonzero"/></clipPath></defs><g clip-path="url(#f1902a4238)"><path fill="#ffffff" d="M 401.300781 164.398438 L 266.351562 164.398438 C 250.105469 164.398438 236.890625 177.613281 236.890625 193.855469 L 236.890625 247.375 C 236.890625 262.375 248.160156 274.78125 262.675781 276.597656 L 262.675781 657.792969 C 262.675781 697.023438 294.59375 728.941406 333.824219 728.941406 C 373.058594 728.941406 404.972656 697.023438 404.972656 657.792969 L 404.972656 276.597656 C 419.488281 274.78125 430.757812 262.375 430.757812 247.375 L 430.757812 193.855469 C 430.757812 177.613281 417.542969 164.398438 401.300781 164.398438 Z M 383.6875 541.167969 L 283.964844 541.167969 L 283.964844 419.914062 L 383.6875 419.914062 Z M 283.964844 398.625 L 283.964844 323.019531 L 383.6875 323.019531 L 383.6875 398.625 Z M 383.6875 301.730469 L 283.964844 301.730469 L 283.964844 276.835938 L 383.6875 276.835938 Z M 333.824219 707.652344 C 306.332031 707.652344 283.964844 685.285156 283.964844 657.792969 L 283.964844 562.457031 L 383.6875 562.457031 L 383.6875 657.792969 C 383.6875 685.285156 361.320312 707.652344 333.824219 707.652344 Z M 409.472656 247.375 C 409.472656 251.882812 405.804688 255.546875 401.300781 255.546875 L 266.351562 255.546875 C 261.84375 255.546875 258.179688 251.882812 258.179688 247.375 L 258.179688 193.855469 C 258.179688 189.351562 261.84375 185.683594 266.351562 185.683594 L 401.300781 185.683594 C 405.804688 185.683594 409.472656 189.351562 409.472656 193.855469 Z M 409.472656 247.375 " fill-opacity="1" fill-rule="nonzero"/></g><path fill="#ffffff" d="M 310.164062 491.183594 L 323.179688 491.183594 L 323.179688 504.203125 C 323.179688 510.082031 327.949219 514.847656 333.824219 514.847656 C 339.703125 514.847656 344.46875 510.082031 344.46875 504.203125 L 344.46875 491.183594 L 357.488281 491.183594 C 363.367188 491.183594 368.132812 486.417969 368.132812 480.539062 C 368.132812 474.660156 363.367188 469.894531 357.488281 469.894531 L 344.46875 469.894531 L 344.46875 456.878906 C 344.46875 451 339.703125 446.234375 333.824219 446.234375 C 327.949219 446.234375 323.179688 451 323.179688 456.878906 L 323.179688 469.894531 L 310.164062 469.894531 C 304.285156 469.894531 299.519531 474.660156 299.519531 480.539062 C 299.519531 486.417969 304.285156 491.183594 310.164062 491.183594 Z M 310.164062 491.183594 " fill-opacity="1" fill-rule="nonzero"/><path fill="#ffffff" d="M 689.464844 457.027344 C 729.003906 457.027344 761.171875 424.859375 761.171875 385.320312 C 761.171875 348.753906 704.097656 280.199219 697.59375 272.503906 C 695.570312 270.109375 692.597656 268.730469 689.464844 268.730469 C 686.332031 268.730469 683.359375 270.109375 681.335938 272.503906 C 674.828125 280.199219 617.753906 348.753906 617.753906 385.320312 C 617.753906 424.859375 649.921875 457.027344 689.464844 457.027344 Z M 689.464844 296.183594 C 711.644531 324.117188 739.882812 366.074219 739.882812 385.320312 C 739.882812 413.121094 717.265625 435.742188 689.464844 435.742188 C 661.660156 435.742188 639.042969 413.121094 639.042969 385.320312 C 639.042969 366.074219 667.28125 324.117188 689.464844 296.183594 Z M 689.464844 296.183594 " fill-opacity="1" fill-rule="nonzero"/><g clip-path="url(#5f05f00df9)"><path fill="#ffffff" d="M 842.484375 481.601562 L 536.441406 481.601562 C 530.5625 481.601562 525.796875 486.367188 525.796875 492.242188 C 525.796875 498.121094 530.5625 502.886719 536.441406 502.886719 L 842.484375 502.886719 C 848.363281 502.886719 853.128906 498.121094 853.128906 492.242188 C 853.128906 486.367188 848.363281 481.601562 842.484375 481.601562 Z M 842.484375 481.601562 " fill-opacity="1" fill-rule="nonzero"/></g><g clip-path="url(#3a8077a9ee)"><path fill="#ffffff" d="M 842.484375 553.574219 L 536.441406 553.574219 C 530.5625 553.574219 525.796875 558.339844 525.796875 564.214844 C 525.796875 570.09375 530.5625 574.859375 536.441406 574.859375 L 842.484375 574.859375 C 848.363281 574.859375 853.128906 570.09375 853.128906 564.214844 C 853.128906 558.339844 848.363281 553.574219 842.484375 553.574219 Z M 842.484375 553.574219 " fill-opacity="1" fill-rule="nonzero"/></g><g clip-path="url(#d2c2999b16)"><path fill="#ffffff" d="M 842.484375 625.542969 L 536.441406 625.542969 C 530.5625 625.542969 525.796875 630.308594 525.796875 636.1875 C 525.796875 642.066406 530.5625 646.832031 536.441406 646.832031 L 842.484375 646.832031 C 848.363281 646.832031 853.128906 642.066406 853.128906 636.1875 C 853.128906 630.308594 848.363281 625.542969 842.484375 625.542969 Z M 842.484375 625.542969 " fill-opacity="1" fill-rule="nonzero"/></g><path fill="#ffffff" d="M 700.105469 119.445312 C 700.105469 120.144531 700.039062 120.835938 699.902344 121.523438 C 699.765625 122.207031 699.5625 122.875 699.296875 123.519531 C 699.027344 124.164062 698.703125 124.777344 698.3125 125.359375 C 697.925781 125.941406 697.484375 126.476562 696.988281 126.972656 C 696.496094 127.464844 695.957031 127.90625 695.375 128.296875 C 694.796875 128.683594 694.183594 129.011719 693.535156 129.28125 C 692.890625 129.546875 692.226562 129.75 691.539062 129.886719 C 690.855469 130.019531 690.160156 130.089844 689.464844 130.089844 C 688.765625 130.089844 688.070312 130.019531 687.386719 129.886719 C 686.699219 129.75 686.035156 129.546875 685.390625 129.28125 C 684.742188 129.011719 684.128906 128.683594 683.550781 128.296875 C 682.96875 127.90625 682.429688 127.464844 681.9375 126.972656 C 681.441406 126.476562 681 125.941406 680.613281 125.359375 C 680.222656 124.777344 679.898438 124.164062 679.628906 123.519531 C 679.363281 122.875 679.160156 122.207031 679.023438 121.523438 C 678.886719 120.835938 678.820312 120.144531 678.820312 119.445312 C 678.820312 118.746094 678.886719 118.054688 679.023438 117.367188 C 679.160156 116.683594 679.363281 116.019531 679.628906 115.371094 C 679.898438 114.726562 680.222656 114.113281 680.613281 113.53125 C 681 112.949219 681.441406 112.414062 681.9375 111.917969 C 682.429688 111.425781 682.96875 110.984375 683.550781 110.59375 C 684.128906 110.207031 684.742188 109.878906 685.390625 109.613281 C 686.035156 109.34375 686.699219 109.140625 687.386719 109.007812 C 688.070312 108.871094 688.765625 108.800781 689.464844 108.800781 C 690.160156 108.800781 690.855469 108.871094 691.539062 109.007812 C 692.226562 109.140625 692.890625 109.34375 693.535156 109.613281 C 694.183594 109.878906 694.796875 110.207031 695.375 110.59375 C 695.957031 110.984375 696.496094 111.425781 696.988281 111.917969 C 697.484375 112.414062 697.925781 112.949219 698.3125 113.53125 C 698.703125 114.113281 699.027344 114.726562 699.296875 115.371094 C 699.5625 116.019531 699.765625 116.683594 699.902344 117.367188 C 700.039062 118.054688 700.105469 118.746094 700.105469 119.445312 Z M 700.105469 119.445312 " fill-opacity="1" fill-rule="nonzero"/><g clip-path="url(#f6b265b129)"><path fill="#ffffff" d="M 880.851562 164.398438 L 853.128906 164.398438 L 853.128906 154.449219 C 853.128906 125.101562 829.253906 101.226562 799.910156 101.226562 L 749.285156 101.226562 C 743.316406 73.519531 718.75 53.050781 689.464844 53.050781 C 660.179688 53.050781 635.613281 73.519531 629.644531 101.226562 L 579.015625 101.226562 C 549.671875 101.226562 525.796875 125.101562 525.796875 154.449219 L 525.796875 164.398438 L 498.078125 164.398438 C 480.46875 164.398438 466.144531 178.722656 466.144531 196.328125 L 466.144531 697.007812 C 466.144531 714.617188 480.46875 728.941406 498.078125 728.941406 L 880.851562 728.941406 C 898.457031 728.941406 912.78125 714.617188 912.78125 697.007812 L 912.78125 196.328125 C 912.78125 178.722656 898.457031 164.398438 880.851562 164.398438 Z M 547.082031 154.449219 C 547.082031 136.839844 561.410156 122.515625 579.015625 122.515625 L 638.960938 122.515625 C 644.644531 122.515625 649.328125 118.046875 649.589844 112.367188 C 650.582031 91.042969 668.097656 74.335938 689.464844 74.335938 C 710.828125 74.335938 728.34375 91.042969 729.335938 112.367188 C 729.597656 118.046875 734.28125 122.515625 739.96875 122.515625 L 799.910156 122.515625 C 817.515625 122.515625 831.84375 136.839844 831.84375 154.449219 L 831.84375 196.488281 C 831.84375 202.355469 827.066406 207.128906 821.199219 207.128906 L 557.726562 207.128906 C 551.859375 207.128906 547.082031 202.355469 547.082031 196.488281 Z M 891.496094 697.007812 C 891.496094 702.878906 886.71875 707.652344 880.851562 707.652344 L 498.078125 707.652344 C 492.207031 707.652344 487.433594 702.878906 487.433594 697.007812 L 487.433594 196.328125 C 487.433594 190.460938 492.207031 185.683594 498.078125 185.683594 L 525.796875 185.683594 L 525.796875 196.488281 C 525.796875 214.09375 540.121094 228.417969 557.726562 228.417969 L 821.199219 228.417969 C 838.804688 228.417969 853.128906 214.09375 853.128906 196.488281 L 853.128906 185.683594 L 880.851562 185.683594 C 886.71875 185.683594 891.496094 190.460938 891.496094 196.328125 Z M 891.496094 697.007812 " fill-opacity="1" fill-rule="nonzero"/></g></svg>