<svg xmlns="http://www.w3.org/2000/svg" xmlns:xlink="http://www.w3.org/1999/xlink" width="1080" zoomAndPan="magnify" viewBox="0 0 810 809.999993" height="1080" preserveAspectRatio="xMidYMid meet" version="1.0"><defs><clipPath id="6ccff04d9a"><path d="M 239.246094 348 L 540 348 L 540 630 L 239.246094 630 Z M 239.246094 348 " clip-rule="nonzero"/></clipPath></defs><g clip-path="url(#6ccff04d9a)"><path fill="#ffffff" d="M 416.890625 526.4375 C 416.695312 530.082031 413.59375 532.898438 409.949219 532.742188 L 368.429688 532.742188 C 364.785156 532.898438 361.671875 530.082031 361.476562 526.4375 L 361.476562 491.171875 L 326.824219 491.171875 C 323.175781 491.316406 320.101562 488.515625 319.921875 484.855469 L 319.921875 442.066406 C 320.101562 438.421875 323.175781 435.605469 326.824219 435.761719 L 361.476562 435.761719 L 361.476562 400.472656 C 361.671875 396.824219 364.785156 394.023438 368.429688 394.203125 L 409.949219 394.203125 C 413.59375 394.023438 416.695312 396.824219 416.890625 400.472656 L 416.890625 435.761719 L 451.542969 435.761719 C 455.1875 435.605469 458.289062 438.421875 458.457031 442.066406 L 458.457031 484.855469 C 458.289062 488.515625 455.1875 491.316406 451.542969 491.171875 L 416.890625 491.171875 Z M 488.933594 348.015625 L 289.445312 348.015625 C 262.355469 347.382812 239.832031 368.761719 239.105469 395.867188 L 239.105469 531.898438 C 240.179688 558.832031 262.808594 579.839844 289.742188 578.917969 L 409.414062 578.917969 L 471.730469 627.050781 C 474.050781 628.867188 476.90625 629.855469 479.851562 629.867188 C 481.875 629.855469 483.847656 629.398438 485.664062 628.515625 C 490.21875 626.324219 493.125 621.691406 493.097656 616.644531 L 493.097656 578.761719 C 518.554688 577.320312 538.652344 556.550781 539.273438 531.070312 L 539.273438 395.867188 C 538.535156 368.761719 516.011719 347.382812 488.933594 348.015625 " fill-opacity="1" fill-rule="nonzero"/></g><path fill="#ffffff" d="M 677.007812 343.761719 C 669.417969 343.761719 663.253906 339.15625 663.253906 333.472656 C 663.253906 327.804688 669.417969 323.199219 677.007812 323.199219 L 814.546875 323.199219 C 822.148438 323.199219 828.3125 327.804688 828.3125 333.472656 C 828.3125 339.15625 822.148438 343.761719 814.546875 343.761719 Z M 774.261719 283.546875 C 774.261719 289.21875 769.550781 293.824219 763.738281 293.824219 L 679.628906 293.824219 C 673.828125 293.824219 669.117188 289.21875 669.117188 283.546875 C 669.117188 277.878906 673.828125 273.273438 679.628906 273.273438 L 763.738281 273.273438 C 769.550781 273.273438 774.261719 277.878906 774.261719 283.546875 Z M 673.53125 223.335938 L 838.015625 223.335938 C 843.671875 223.335938 848.277344 227.941406 848.277344 233.625 C 848.277344 239.292969 843.671875 243.898438 838.015625 243.898438 L 673.53125 243.898438 C 667.859375 243.898438 663.253906 239.292969 663.253906 233.625 C 663.253906 227.941406 667.859375 223.335938 673.53125 223.335938 Z M 842.230469 183.699219 L 664.601562 183.699219 C 640.484375 183.117188 620.441406 202.164062 619.789062 226.292969 L 619.789062 346.679688 C 620.335938 369.386719 638.238281 387.859375 660.90625 389.144531 L 660.90625 422.863281 C 660.894531 427.378906 663.460938 431.492188 667.507812 433.453125 C 669.144531 434.242188 670.910156 434.660156 672.710938 434.660156 C 675.308594 434.660156 677.835938 433.789062 679.875 432.179688 L 735.390625 389.289062 L 841.972656 389.289062 C 865.949219 390.117188 886.109375 371.410156 887.058594 347.421875 L 887.058594 226.292969 C 886.394531 202.164062 866.351562 183.117188 842.230469 183.699219 " fill-opacity="1" fill-rule="nonzero"/><path fill="#ffffff" d="M 749.558594 412.785156 L 749.558594 682.425781 C 749.558594 693.933594 740.191406 703.289062 728.734375 703.289062 L 423.480469 703.289062 C 417.578125 703.289062 411.933594 700.746094 407.988281 696.253906 C 404.5625 692.429688 402.65625 687.511719 402.65625 682.425781 L 402.65625 603.386719 L 401.398438 602.414062 L 377.394531 602.414062 L 377.394531 682.425781 C 377.394531 698.085938 385.257812 712.472656 398.386719 720.878906 C 405.769531 725.835938 414.421875 728.445312 423.480469 728.445312 L 728.734375 728.445312 C 734.871094 728.445312 740.902344 727.238281 746.625 724.835938 C 763.738281 717.6875 774.804688 701.03125 774.804688 682.425781 L 774.804688 412.785156 Z M 623.824219 72.835938 L 618.546875 72.835938 C 615.5625 72.835938 613.136719 70.421875 613.136719 67.4375 C 613.136719 64.46875 615.5625 62.042969 618.546875 62.042969 L 623.824219 62.042969 C 626.808594 62.042969 629.234375 64.46875 629.234375 67.4375 C 629.234375 70.421875 626.808594 72.835938 623.824219 72.835938 Z M 598.085938 72.835938 L 535.25 72.835938 C 532.265625 72.835938 529.839844 70.421875 529.839844 67.4375 C 529.839844 64.46875 532.265625 62.042969 535.25 62.042969 L 598.085938 62.042969 C 601.054688 62.042969 603.496094 64.46875 603.496094 67.4375 C 603.496094 70.421875 601.054688 72.835938 598.085938 72.835938 Z M 769.238281 69.085938 C 765.660156 62.46875 760.417969 56.722656 753.851562 52.46875 C 746.390625 47.613281 737.699219 45.046875 728.734375 45.046875 L 423.480469 45.046875 C 409.570312 45.046875 396.546875 51.222656 387.773438 61.988281 C 380.988281 70.304688 377.394531 80.359375 377.394531 91.066406 L 377.394531 324.519531 L 402.65625 324.519531 L 402.65625 91.066406 C 402.65625 79.558594 411.996094 70.191406 423.480469 70.191406 L 475.390625 70.191406 C 476.765625 82.007812 486.804688 91.21875 498.964844 91.21875 L 670.089844 91.21875 C 682.25 91.21875 692.289062 82.007812 693.652344 70.191406 L 728.734375 70.191406 C 734.675781 70.191406 740.347656 72.757812 744.304688 77.246094 C 747.675781 81.074219 749.558594 85.992188 749.558594 91.066406 L 749.558594 160.191406 L 774.804688 160.191406 L 774.804688 91.066406 C 774.804688 83.253906 772.847656 75.714844 769.238281 69.085938 " fill-opacity="1" fill-rule="nonzero"/></svg>