<svg xmlns="http://www.w3.org/2000/svg" xmlns:xlink="http://www.w3.org/1999/xlink" width="48" zoomAndPan="magnify" viewBox="0 0 36 36.000001" height="48" preserveAspectRatio="xMidYMid meet" version="1.0"><defs><clipPath id="8d3c7c6f66"><path d="M 5 9 L 16.394531 9 L 16.394531 26 L 5 26 Z M 5 9 " clip-rule="nonzero"/></clipPath><clipPath id="22515ccb8d"><path d="M 12 2 L 33.414062 2 L 33.414062 33 L 12 33 Z M 12 2 " clip-rule="nonzero"/></clipPath></defs><g clip-path="url(#8d3c7c6f66)"><path fill="#0061a2" d="M 16.132812 17.640625 L 8.496094 9.921875 C 7.019531 8.433594 3.988281 11.191406 5.765625 12.925781 L 10.597656 17.640625 L 5.609375 22.277344 C 4.09375 23.6875 6.90625 26.585938 8.417969 25.121094 Z M 16.132812 17.640625 " fill-opacity="1" fill-rule="nonzero"/></g><g clip-path="url(#22515ccb8d)"><path fill="#0061a2" d="M 33.480469 17.765625 L 18.75 2.882812 C 15.90625 0.0078125 10.0625 5.324219 13.492188 8.671875 L 22.808594 17.765625 L 13.191406 26.707031 C 10.261719 29.429688 15.6875 35.019531 18.601562 32.195312 Z M 33.480469 17.765625 " fill-opacity="1" fill-rule="nonzero"/></g></svg>